<svg width="410" height="1050" viewBox="0 0 410 1050" fill="none" xmlns="http://www.w3.org/2000/svg">
<rect width="410" height="1050" fill="white"/>
<rect width="410" height="1050" fill="#0B0E4F"/>
<rect x="139" y="37" width="15" height="298" rx="7.5" fill="white"/>
<ellipse cx="72.881" cy="191.333" rx="15.881" ry="9.66667" fill="white"/>
<ellipse cx="78.7503" cy="181.667" rx="12.0833" ry="9.66667" fill="white"/>
<ellipse cx="89.107" cy="189.952" rx="15.5357" ry="11.0476" fill="white"/>
<circle cx="80.5" cy="73.5" r="17.5" fill="white"/>
<path d="M89.5 282C84.8587 282 80.4075 283.844 77.1256 287.126C73.8437 290.408 72 294.859 72 299.5C72 304.141 73.8437 308.592 77.1256 311.874C80.4075 315.156 84.8587 317 89.5 317L89.5 299.5L89.5 282Z" fill="white"/>
<circle cx="56.5" cy="519.5" r="32.5" fill="white"/>
<circle cx="57" cy="520" r="26" fill="#CBEA69"/>
<circle cx="158.5" cy="519.5" r="32.5" fill="white"/>
<circle cx="159" cy="520" r="26" fill="#2D3809"/>
<circle cx="257.5" cy="519.5" r="32.5" fill="white"/>
<circle cx="352.5" cy="519.5" r="32.5" fill="white"/>
<circle cx="57.5" cy="615.5" r="32.5" fill="white"/>
<circle cx="159.5" cy="615.5" r="32.5" fill="white"/>
<circle cx="58" cy="616" r="26" fill="#F79232"/>
<circle cx="258" cy="520" r="26" fill="#DB81E0"/>
<circle cx="160" cy="616" r="26" fill="#47BFF3"/>
<circle cx="258.5" cy="615.5" r="32.5" fill="white"/>
<circle cx="353.5" cy="615.5" r="32.5" fill="white"/>
<circle cx="57.5" cy="711.5" r="32.5" fill="white"/>
<circle cx="159.5" cy="711.5" r="32.5" fill="white"/>
<circle cx="58" cy="712" r="26" fill="#0B0E4F"/>
<circle cx="259" cy="616" r="26" fill="#863098"/>
<circle cx="353" cy="520" r="26" fill="#6AE8B4"/>
<circle cx="160" cy="712" r="26" fill="#89A828"/>
<circle cx="258.5" cy="711.5" r="32.5" fill="white"/>
<circle cx="353.5" cy="711.5" r="32.5" fill="white"/>
<circle cx="259" cy="712" r="26" fill="#FDE159"/>
<circle cx="354" cy="616" r="26" fill="#6F56E6"/>
<circle cx="354" cy="712" r="26" fill="#F978B9"/>
<rect x="173" y="292" width="15" height="56" rx="7.5" transform="rotate(90 173 292)" fill="white"/>
<circle cx="56.5" cy="519.5" r="32.5" fill="white"/>
<circle cx="56.5" cy="519.5" r="25.5" fill="#CBEA69"/>
<circle cx="158.5" cy="519.5" r="32.5" fill="white"/>
<circle cx="158.5" cy="519.5" r="25.5" fill="#2D3809"/>
<circle cx="57.5" cy="615.5" r="32.5" fill="white"/>
<circle cx="57.5" cy="615.5" r="25.5" fill="#F79232"/>
<circle cx="257.5" cy="519.5" r="32.5" fill="white"/>
<circle cx="257.5" cy="519.5" r="25.5" fill="#DB81E0"/>
<circle cx="159.5" cy="615.5" r="32.5" fill="white"/>
<circle cx="159.5" cy="615.5" r="25.5" fill="#47BFF3"/>
<circle cx="57.5" cy="711.5" r="32.5" fill="white"/>
<circle cx="57.5" cy="711.5" r="25.5" fill="#0B0E4F"/>
<circle cx="258.5" cy="615.5" r="32.5" fill="white"/>
<circle cx="258.5" cy="615.5" r="25.5" fill="#863098"/>
<circle cx="352.5" cy="519.5" r="32.5" fill="white"/>
<circle cx="352.5" cy="519.5" r="25.5" fill="#6AE8B4"/>
<circle cx="159.5" cy="711.5" r="32.5" fill="white"/>
<circle cx="159.5" cy="711.5" r="25.5" fill="#89A828"/>
<circle cx="353.5" cy="615.5" r="32.5" fill="white"/>
<circle cx="353.5" cy="615.5" r="25.5" fill="#6F56E6"/>
<circle cx="353.5" cy="711.5" r="32.5" fill="white"/>
<circle cx="353.5" cy="711.5" r="25.5" fill="#F978B9"/>
<circle cx="56.5" cy="807.5" r="32.5" fill="white"/>
<circle cx="158.5" cy="807.5" r="32.5" fill="white"/>
<circle cx="57" cy="808" r="26" fill="#0B0E4F"/>
<circle cx="159" cy="808" r="26" fill="#89A828"/>
<circle cx="257.5" cy="807.5" r="32.5" fill="white"/>
<circle cx="352.5" cy="807.5" r="32.5" fill="white"/>
<circle cx="258" cy="808" r="26" fill="#FDE159"/>
<circle cx="353" cy="808" r="26" fill="#F978B9"/>
<circle cx="56.5" cy="807.5" r="32.5" fill="white"/>
<circle cx="56.5" cy="807.5" r="25.5" fill="#357FE0"/>
<circle cx="158.5" cy="807.5" r="32.5" fill="white"/>
<circle cx="158.5" cy="807.5" r="25.5" fill="#87B2EB"/>
<circle cx="258.5" cy="711.5" r="32.5" fill="white"/>
<circle cx="258.5" cy="711.5" r="25.5" fill="#03295B"/>
<rect x="375" y="996" width="19" height="350" rx="9.50001" transform="rotate(90 375 996)" fill="white"/>
<rect x="254" y="996" width="19" height="229" rx="9.5" transform="rotate(90 254 996)" fill="#CBEA69"/>
<rect x="305" y="292" width="15" height="56" rx="7.5" transform="rotate(90 305 292)" fill="white"/>
<rect x="270" y="37" width="15" height="298" rx="7.5" fill="white"/>
<path d="M348.647 56.7812C349.545 54.0172 353.455 54.0172 354.353 56.7812L356.552 63.5471C356.953 64.7832 358.105 65.6201 359.405 65.6201L366.519 65.6201C369.425 65.6201 370.633 69.3389 368.282 71.0471L362.527 75.2287C361.475 75.9926 361.035 77.3467 361.437 78.5828L363.635 85.3488C364.533 88.1127 361.37 90.4111 359.019 88.7029L353.263 84.5213C352.212 83.7574 350.788 83.7574 349.737 84.5213L343.981 88.7029C341.63 90.4111 338.467 88.1127 339.365 85.3488L341.563 78.5828C341.965 77.3467 341.525 75.9926 340.473 75.2287L334.718 71.0471C332.367 69.3389 333.575 65.6201 336.481 65.6201L343.595 65.6201C344.895 65.6201 346.047 64.7832 346.448 63.5471L348.647 56.7812Z" fill="white"/>
<path d="M352.927 283.245L355.125 290.011C355.727 291.865 357.455 293.12 359.405 293.12L366.519 293.12C367.972 293.12 368.576 294.979 367.401 295.834L361.645 300.015C360.068 301.161 359.408 303.192 360.01 305.046L362.209 311.812C362.658 313.194 361.076 314.343 359.901 313.489L354.145 309.308C352.568 308.162 350.432 308.162 348.855 309.308L343.099 313.489C341.924 314.343 340.342 313.194 340.791 311.812L342.99 305.046C343.592 303.192 342.932 301.161 341.355 300.015L335.599 295.834C334.424 294.979 335.028 293.12 336.481 293.12L343.595 293.12C345.545 293.12 347.273 291.865 347.875 290.011L350.073 283.245C350.522 281.863 352.478 281.863 352.927 283.245Z" stroke="white" stroke-width="3"/>
<circle cx="42.9066" cy="414.907" r="4.5814" fill="#CBEA69"/>
<rect x="22.5" y="394.5" width="40.814" height="40.814" rx="7.5" stroke="white" stroke-width="5"/>
<circle cx="118.597" cy="404.217" r="4.5814" fill="#FD8CC8"/>
<circle cx="97.2171" cy="425.597" r="4.5814" fill="#FD8CC8"/>
<rect x="87.5" y="394.5" width="40.814" height="40.814" rx="7.5" stroke="white" stroke-width="5"/>
<circle cx="172.907" cy="414.907" r="4.5814" fill="#F79435"/>
<circle cx="162.217" cy="426.361" r="4.5814" fill="#F79435"/>
<circle cx="183.597" cy="403.453" r="4.5814" fill="#F79435"/>
<rect x="152.5" y="394.5" width="40.814" height="40.814" rx="7.5" stroke="white" stroke-width="5"/>
<circle cx="292.217" cy="425.597" r="4.5814" fill="#FDE159"/>
<circle cx="292.217" cy="404.217" r="4.5814" fill="#FDE159"/>
<circle cx="313.597" cy="404.217" r="4.5814" fill="#FDE159"/>
<circle cx="313.597" cy="425.597" r="4.5814" fill="#FDE159"/>
<circle cx="302.907" cy="414.907" r="4.5814" fill="#FDE159"/>
<rect x="282.5" y="394.5" width="40.814" height="40.814" rx="7.5" stroke="white" stroke-width="5"/>
<circle cx="378.597" cy="426.361" r="4.5814" fill="#EB504E"/>
<circle cx="378.597" cy="414.907" r="4.5814" fill="#EB504E"/>
<circle cx="357.217" cy="414.907" r="4.5814" fill="#EB504E"/>
<circle cx="357.217" cy="426.361" r="4.5814" fill="#EB504E"/>
<circle cx="357.217" cy="403.453" r="4.5814" fill="#EB504E"/>
<circle cx="378.597" cy="403.453" r="4.5814" fill="#EB504E"/>
<rect x="347.5" y="394.5" width="40.814" height="40.814" rx="7.5" stroke="white" stroke-width="5"/>
<circle cx="248.597" cy="404.217" r="4.5814" fill="#5DBDE6"/>
<circle cx="227.217" cy="404.217" r="4.5814" fill="#5DBDE6"/>
<circle cx="227.217" cy="425.597" r="4.5814" fill="#5DBDE6"/>
<circle cx="248.597" cy="425.597" r="4.5814" fill="#5DBDE6"/>
<rect x="217.5" y="394.5" width="40.814" height="40.814" rx="7.5" stroke="white" stroke-width="5"/>
<path d="M161.143 1001.2H163.398V1010.06H168.745V1012H161.143V1001.2ZM175.088 1010.39C175.981 1010.39 176.689 1010.06 177.212 1009.4C177.739 1008.74 178.003 1007.8 178.003 1006.59C178.003 1005.38 177.739 1004.44 177.212 1003.78C176.689 1003.12 175.981 1002.79 175.088 1002.79C174.194 1002.79 173.481 1003.12 172.949 1003.77C172.417 1004.43 172.151 1005.37 172.151 1006.59C172.151 1007.8 172.417 1008.74 172.949 1009.4C173.481 1010.06 174.194 1010.39 175.088 1010.39ZM180.259 1006.59C180.259 1008.53 179.714 1010.01 178.625 1011.04C177.81 1011.88 176.631 1012.3 175.088 1012.3C173.545 1012.3 172.366 1011.88 171.55 1011.04C170.457 1010.01 169.91 1008.53 169.91 1006.59C169.91 1004.61 170.457 1003.13 171.55 1002.13C172.366 1001.29 173.545 1000.87 175.088 1000.87C176.631 1000.87 177.81 1001.29 178.625 1002.13C179.714 1003.13 180.259 1004.61 180.259 1006.59ZM184.939 1007.92H187.678L186.331 1003.67L184.939 1007.92ZM185.078 1001.2H187.627L191.45 1012H189.004L188.308 1009.78H184.331L183.584 1012H181.226L185.078 1001.2ZM195.017 1003.08V1010.12H197.097C198.162 1010.12 198.904 1009.6 199.324 1008.55C199.553 1007.97 199.668 1007.29 199.668 1006.49C199.668 1005.39 199.495 1004.55 199.148 1003.97C198.806 1003.37 198.123 1003.08 197.097 1003.08H195.017ZM197.478 1001.2C198.147 1001.21 198.704 1001.29 199.148 1001.44C199.905 1001.69 200.518 1002.14 200.986 1002.81C201.362 1003.35 201.619 1003.93 201.755 1004.55C201.892 1005.18 201.96 1005.77 201.96 1006.34C201.96 1007.77 201.672 1008.99 201.096 1009.99C200.315 1011.33 199.109 1012 197.478 1012H192.827V1001.2H197.478ZM205.732 1012H203.491V1001.2H205.732V1012ZM207.805 1001.2H210.171L214.47 1008.74V1001.2H216.572V1012H214.316L209.907 1004.33V1012H207.805V1001.2ZM225.94 1004.57C225.769 1003.84 225.352 1003.32 224.688 1003.03C224.316 1002.87 223.904 1002.79 223.45 1002.79C222.581 1002.79 221.865 1003.12 221.304 1003.77C220.747 1004.43 220.469 1005.42 220.469 1006.73C220.469 1008.06 220.771 1009 221.377 1009.55C221.982 1010.11 222.671 1010.38 223.442 1010.38C224.199 1010.38 224.819 1010.16 225.303 1009.73C225.786 1009.29 226.084 1008.72 226.196 1008.01H223.699V1006.21H228.196V1012H226.702L226.475 1010.65C226.04 1011.17 225.649 1011.53 225.303 1011.74C224.707 1012.1 223.975 1012.29 223.105 1012.29C221.675 1012.29 220.503 1011.79 219.59 1010.8C218.638 1009.8 218.162 1008.44 218.162 1006.71C218.162 1004.96 218.643 1003.56 219.604 1002.51C220.566 1001.45 221.838 1000.93 223.42 1000.93C224.792 1000.93 225.894 1001.27 226.724 1001.97C227.559 1002.67 228.037 1003.53 228.159 1004.57H225.94ZM230.151 1009.82H232.371V1012H230.151V1009.82ZM234.326 1009.82H236.545V1012H234.326V1009.82ZM238.501 1009.82H240.72V1012H238.501V1009.82Z" fill="#0B0E4F"/>
<path d="M49.5518 941.335C49.6885 942.321 49.957 943.059 50.3574 943.547C51.0898 944.436 52.3447 944.88 54.1221 944.88C55.1865 944.88 56.0508 944.763 56.7148 944.528C57.9746 944.079 58.6045 943.244 58.6045 942.023C58.6045 941.311 58.292 940.759 57.667 940.368C57.042 939.987 56.0605 939.65 54.7227 939.357L52.4375 938.845C50.1914 938.337 48.6387 937.785 47.7793 937.189C46.3242 936.193 45.5967 934.636 45.5967 932.517C45.5967 930.583 46.2998 928.977 47.7061 927.697C49.1123 926.418 51.1777 925.778 53.9023 925.778C56.1777 925.778 58.1162 926.384 59.7178 927.595C61.3291 928.796 62.1738 930.544 62.252 932.839H57.916C57.8379 931.54 57.2715 930.617 56.2168 930.07C55.5137 929.709 54.6396 929.528 53.5947 929.528C52.4326 929.528 51.5049 929.763 50.8115 930.231C50.1182 930.7 49.7715 931.354 49.7715 932.194C49.7715 932.966 50.1133 933.542 50.7969 933.923C51.2363 934.177 52.1738 934.475 53.6094 934.816L57.3301 935.71C58.9609 936.101 60.1914 936.623 61.0215 937.277C62.3105 938.293 62.9551 939.763 62.9551 941.687C62.9551 943.659 62.1982 945.3 60.6846 946.608C59.1807 947.907 57.0518 948.557 54.2979 948.557C51.4854 948.557 49.2734 947.917 47.6621 946.638C46.0508 945.349 45.2451 943.581 45.2451 941.335H49.5518ZM72.1982 939.841H77.6768L74.9814 931.345L72.1982 939.841ZM72.4766 926.408H77.5742L85.2207 948H80.3281L78.9365 943.562H70.9824L69.4883 948H64.7715L72.4766 926.408ZM98.3896 926.408H103.077L95.709 948H91.4463L84.1514 926.408H88.9707L93.6582 942.8L98.3896 926.408ZM121.725 930.231H110.299V934.816H120.787V938.566H110.299V944.118H122.252V948H105.89V926.408H121.725V930.231Z" fill="white"/>
<rect x="27.5" y="906.5" width="115" height="60" rx="17.5" stroke="white" stroke-width="5"/>
<circle cx="257.5" cy="807.5" r="32.5" fill="white"/>
<circle cx="257.5" cy="807.5" r="25.5" fill="#FDE159"/>
<circle cx="352.5" cy="807.5" r="32.5" fill="white"/>
<circle cx="352.5" cy="807.5" r="25.5" fill="#B9F5DC"/>
</svg>
