<svg width="44" height="43" viewBox="0 0 44 43" fill="none" xmlns="http://www.w3.org/2000/svg">
<path d="M19.2802 8.97305C20.1783 6.20912 24.0885 6.20911 24.9866 8.97305L26.246 12.8493C26.6477 14.0854 27.7995 14.9222 29.0992 14.9222H33.1749C36.0811 14.9222 37.2894 18.6411 34.9383 20.3493L31.641 22.745C30.5895 23.5089 30.1495 24.863 30.5511 26.0991L31.8106 29.9753C32.7087 32.7392 29.5452 35.0376 27.1941 33.3294L23.8968 30.9338C22.8453 30.1698 21.4215 30.1698 20.37 30.9338L17.0727 33.3294C14.7216 35.0376 11.5581 32.7392 12.4562 29.9753L13.7157 26.0991C14.1173 24.863 13.6773 23.5089 12.6258 22.745L9.3285 20.3493C6.97736 18.6411 8.18569 14.9222 11.0919 14.9222H15.1676C16.4673 14.9222 17.6191 14.0854 18.0208 12.8493L19.2802 8.97305Z" fill="white"/>
</svg>
