<svg width="44" height="43" viewBox="0 0 44 43" fill="none" xmlns="http://www.w3.org/2000/svg">
<path d="M23.56 9.37847L24.8195 13.2547C25.4219 15.1088 27.1497 16.3641 29.0992 16.3641H33.1749C34.628 16.3641 35.2322 18.2236 34.0566 19.0777L30.7593 21.4733C29.1821 22.6192 28.5221 24.6504 29.1246 26.5045L30.384 30.3807C30.8331 31.7627 29.2513 32.9119 28.0758 32.0578L24.7784 29.6621C23.2012 28.5162 21.0656 28.5162 19.4884 29.6621L16.191 32.0578C15.0155 32.9119 13.4337 31.7627 13.8828 30.3807L15.1422 26.5045C15.7447 24.6504 15.0847 22.6192 13.5075 21.4733L10.2102 19.0777C9.03461 18.2236 9.63878 16.3641 11.0919 16.3641H15.1676C17.1171 16.3641 18.8449 15.1088 19.4473 13.2547L20.7068 9.37847C21.1558 7.9965 23.111 7.99651 23.56 9.37847Z" stroke="#0B0E4F" stroke-width="3"/>
</svg>
