<svg width="712" height="800" viewBox="0 0 712 800" fill="none" xmlns="http://www.w3.org/2000/svg">
<rect x="-3" width="715" height="800" fill="url(#paint0_linear)"/>
<path d="M119.214 516.151H66.2546L-1.47232 514.357V540L21.4428 537.799L49.9594 535.964L72.8745 534.129L99.8635 532.662L125.325 531.561L171.155 529.727L187.959 529.36H283.184L331.561 530.827L392.159 532.662L434.424 534.863L480.255 538.165L485.856 536.698L587.701 514.317L687 490.468H669.686L609.089 489H529.14L460.904 494.137L368.734 501.108L267.398 511.014L196.616 516.151H119.214Z" fill="#0651B3"/>
<path d="M16.3157 594.083L-1 592.62V691L7.14857 690.269L47.8914 687.708L90.6714 685.514L135.998 682.223L144.656 680.76L166.555 680.028L187.436 678.931L214.428 677.102L241.42 674.542L257.717 673.445L272.486 672.714L288.274 671.982L305.59 670.519L327.489 668.691L345.824 667.228L367.214 666.131L396.752 663.571L418.651 662.839H427.309L428.328 662.108L435.967 650.039L450.736 628.827L462.45 612.369L468.052 602.86L472.126 597.74L475.182 591.523H476.201L501.665 592.986L538.334 593.717L564.307 594.449L598.429 593.717L619.31 592.986L624.912 599.569L644.265 627.364L659.034 647.113L712 645.284V484L696.212 487.657L648.339 499.726L591.809 513.258L542.917 523.864L480.784 537.761L448.699 545.807L413.559 552.025L369.251 562.996L337.166 568.848L308.136 573.237L274.524 580.551L240.911 585.671L202.205 591.523L168.592 594.083L129.886 597.375L90.1621 597.009L44.8357 596.277L16.3157 594.083Z" fill="#357FE0"/>
<path d="M-1 594.134L-1 539.856L5.12064 539.107L14.3016 538.358L18.8921 537.984L27.563 537.235L39.2942 536.487L54.5958 535.364L79.5884 533.492L99.4804 532.369L111.722 531.995L123.963 531.246L140.285 530.872L163.747 529.749L183.129 529H194.86H224.443H262.187H288.2L312.172 529.749L334.615 530.497L366.748 531.62L394.801 532.369L418.774 533.866L436.625 534.615L452.437 535.738L466.719 536.861L481 537.984L472.839 540.23L458.558 543.973L441.216 547.717L425.404 550.711L413.673 552.583L393.271 557.824L379.499 561.193L369.298 563.813L348.896 567.556L339.205 569.428L327.474 571.299L316.253 573.171L305.542 575.043L290.75 578.412L275.449 581.781L267.798 582.904L246.376 586.273L231.584 588.519L215.262 591.139L203.531 593.011L197.921 593.385L181.089 594.508L154.566 596.754L130.084 599L72.9577 598.251L44.9048 597.877L35.7238 597.128L-1 594.134Z" fill="#1A6AD3"/>
<path d="M-1 799.628L-1 689.505L6.13 688.761L19.8807 688.017L48.4007 686.156L71.3186 685.04L98.3107 683.18L119.191 682.064L135.998 680.576L147.202 679.088L174.194 677.972L194.566 676.855L210.354 675.367L222.067 674.623L238.874 673.135L254.661 672.019L281.654 670.531L299.988 669.043L323.415 667.182L341.24 665.694L374.344 663.462L405.41 661.23L427.309 660.858L425.781 663.462L421.198 669.415L415.086 675.367L413.049 677.972H414.577L426.291 676.855L432.402 676.111V677.227L430.874 680.576L432.402 680.948L439.023 682.064L460.922 685.784L483.331 689.133L508.286 692.853L516.434 693.597L527.129 693.225L550.047 689.877L592.318 683.924L607.087 681.692L627.459 678.716L664.127 674.995L685.517 673.135L684.499 672.019L667.692 656.021L659.034 644.86L712 643V800L-1 799.628Z" fill="#ADCA52"/>
<path d="M457.914 673.519L443 675L471.286 618L479 633.175L477.457 663.896L464.6 666.487L459.971 669.448L457.914 673.519Z" fill="#EAA93C"/>
<path d="M488 661.268L483 662V636L495 661.268H488Z" fill="#EAA93C"/>
<path d="M416.102 674.256L409.991 680.042L409.436 680.428L410.549 680.427L430.58 678.867L473.308 613.315L468.281 603.301L466.614 604.844L456.623 618.726L437.194 644.949L425.54 661.916L416.102 674.256Z" fill="#87B2EB"/>
<path d="M678.694 667.249L688.641 675.439L666.113 677.29L629.44 680.622L601.672 685.075L557.139 691.009L537.23 693.977L528.324 695.09L514.179 695.828L507.369 695.081L506.846 694.336L495.868 667.17L481.748 638.514L465.009 609.113L462.918 604.647L468.687 596.464L471.835 590.512L500.646 592.012L533.125 592.771L575.033 593.161L598.083 592.799L616.942 592.063L620.609 592.064L642.064 620.351L655.668 639.705L666.132 655.337L678.694 667.249Z" fill="#87B2EB"/>
<path d="M451.316 647.111L471.038 616L472.076 617.852L459.62 642.667L449.241 663.778L443.532 674.148V676L445.089 676.741L461.177 678.593L482.975 680.815L498.025 683.407H505.291L506.329 687.481L511 696L429 682.667L431.076 678.222L438.861 666L451.316 647.111Z" fill="#5181BF"/>
<path d="M458.237 673.433L443 675.167V675.6V677.333L445.627 677.767L468.746 681.233L482.932 682.533L498.169 686L505 685.567L495.542 660L485.559 660.433L477.678 662.167L465.068 665.2L460.339 669.1L458.237 673.433Z" fill="#295289"/>
<defs>
<linearGradient id="paint0_linear" x1="354.5" y1="0" x2="354.5" y2="800" gradientUnits="userSpaceOnUse">
<stop stop-color="#F79130"/>
<stop offset="0.65625" stop-color="white"/>
</linearGradient>
</defs>
</svg>
