<svg width="1270" height="1050" viewBox="0 0 1270 1050" fill="none" xmlns="http://www.w3.org/2000/svg">
<rect width="1270" height="1050" fill="url(#paint0_linear)"/>
<path d="M68.9268 544.111L-8 555.031V634.684L58.7317 664.875L125.463 688L211.659 664.875L284.878 650.101L334 634.684L296.927 587.149L277.463 549.892L265.415 503L211.659 516.49L143.073 534.476L68.9268 544.111Z" fill="#ADCA52"/>
<path d="M329.606 531.617L267 503L271.537 537.976L281.517 563.413L307.83 606.019L329.606 634L358.641 630.184L422.154 613.015L486.575 595.845L502 591.393L397.656 563.413L329.606 531.617Z" fill="#CBEA69"/>
<path d="M628.526 752.655L651 782L493.68 768.603L379.51 752.655L185.332 706.724L126 685.672L188.928 667.81L271.634 646.759L313.885 637.828L481.094 598.276L550.315 577.224L597.961 560L588.971 591.259V617.414V646.759V672.276L606.95 711.828L628.526 752.655Z" fill="#ADCA52"/>
<path d="M669.332 596.314L599.042 562L589 579.157V617.919V672.566L608.17 720.224L649.249 785.039L720.453 790.758L860.122 797.747L1020.79 818.081L1179.63 844.134L1270 874V720.224L1241.7 715.776L1083.77 697.348L997.052 687.817L877.466 663.035L777.964 631.898L669.332 596.314Z" fill="#CBEA69"/>
<path d="M82.4041 665.263L1 633V1055H1270V872.391L1260.96 866.584L1171.41 840.774L1054.73 821.416L942.574 805.93L819.564 790.443L692.031 785.281L535.554 769.795L387.217 747.211L261.493 720.11L144.814 687.847L82.4041 665.263Z" fill="#89A828"/>
<path d="M206.691 884.466L217.475 975.353L226.248 1054.08H1.79731L0 918.389L35.0476 852.463L129.407 646.366L166.252 567L181.529 684.77L194.11 783.338L206.691 884.466Z" fill="#2D3809"/>
<path d="M434.051 798.059L354.071 1054.08H501.451L434.051 798.059Z" fill="#2D3809"/>
<path d="M618.276 723.813L538.295 1054.08H736L618.276 723.813Z" fill="#2D3809"/>
<defs>
<linearGradient id="paint0_linear" x1="635" y1="0" x2="635" y2="1050" gradientUnits="userSpaceOnUse">
<stop stop-color="#F79130"/>
<stop offset="0.666667" stop-color="white"/>
</linearGradient>
</defs>
</svg>
