<svg width="712" height="800" viewBox="0 0 712 800" fill="none" xmlns="http://www.w3.org/2000/svg">
<rect width="712" height="800" fill="url(#paint0_linear)"/>
<path d="M8.44764 628.874L0 628V722H341L295.324 702.666C203.892 663.964 107.206 639.094 8.44764 628.874Z" fill="#357FE0"/>
<path d="M285.824 622.561L136 653.669V725H712V646.743C686.359 658.922 657.628 663.045 629.597 658.568L581.861 650.943C564.676 648.198 547.066 650.316 531.021 657.057C507.246 667.046 480.395 666.745 456.849 656.226L412.041 636.208C372.445 618.519 328.286 613.745 285.824 622.561Z" fill="#357FE0"/>
<rect x="54" y="13" width="44" height="709" fill="#03295B"/>
<rect x="32" y="249" width="34" height="8" fill="#03295B"/>
<rect x="29" y="217" width="8" height="40" fill="#03295B"/>
<rect x="3" y="191" width="46" height="26" fill="#03295B"/>
<rect x="148" y="13" width="45" height="717" fill="#03295B"/>
<rect x="186" y="206" width="60" height="9" fill="#03295B"/>
<rect x="179" y="299" width="35" height="9" fill="#03295B"/>
<rect x="119" y="351" width="34" height="9" fill="#03295B"/>
<rect x="238" y="171" width="8" height="40" fill="#03295B"/>
<rect x="222" y="138" width="69" height="37" fill="#03295B"/>
<rect x="35" y="-4" width="228" height="17" fill="#03295B"/>
<path d="M411 705.6L426.073 722H496.983L510 713.117L492.872 705.6L500.408 697.4L482.595 695.35L479.855 685.1L465.125 691.933L458.958 681L450.737 697.4L437.035 691.933V705.6H411Z" fill="#CBEA69"/>
<path d="M574 705.702L588.84 722H701L686.851 713.512L696.859 703.665L681.674 698.572L692.372 687.707L673.736 681.256V670.391L660.622 675.484V649L637.155 675.484L633.014 665.977L626.111 678.879L609.891 660.544V691.442L585.734 681.256L592.981 708.079L574 705.702Z" fill="#CBEA69"/>
<path d="M140.983 716.156L129 722H259L253.122 716.156H259L253.122 708.739L259 704.243L248.826 698.849L246.791 693.454L239.33 697.05L230.513 693.454V700.422L221.696 697.05V704.243L215.139 700.422L219.209 686.711L205.417 690.083V678.844L191.174 683.339L184.617 673L175.8 683.339L163.591 676.372L160.652 690.083H143.922L147.765 704.243H133.974L140.983 716.156Z" fill="#CBEA69"/>
<rect x="556" y="38" width="62" height="710" fill="#03295B"/>
<rect x="618" y="379" width="33" height="9" fill="#03295B"/>
<rect x="527" y="229" width="60" height="9" fill="#03295B"/>
<rect x="647" y="346" width="7" height="42" fill="#03295B"/>
<rect x="523" y="198" width="7" height="40" fill="#03295B"/>
<rect x="639" y="330" width="45" height="26" fill="#03295B"/>
<rect x="468" y="170" width="69" height="37" fill="#03295B"/>
<rect x="260" y="-4" width="280" height="35" fill="#03295B"/>
<rect x="398" y="-5" width="279" height="53" fill="#03295B"/>
<rect x="433" y="-3" width="279" height="17" fill="#03295B"/>
<rect x="1" y="722" width="711" height="78" fill="#89A828"/>
<path d="M8.44764 628.874L0 628V722H341L295.324 702.666C203.892 663.964 107.206 639.094 8.44764 628.874Z" fill="#357FE0"/>
<path d="M285.824 622.561L136 653.669V725H712V646.743C686.359 658.922 657.628 663.045 629.597 658.568L581.861 650.943C564.676 648.198 547.066 650.316 531.021 657.057C507.246 667.046 480.395 666.745 456.849 656.226L412.041 636.208C372.445 618.519 328.286 613.745 285.824 622.561Z" fill="#357FE0"/>
<rect x="148" y="13" width="45" height="717" fill="#03295B"/>
<rect x="186" y="206" width="60" height="9" fill="#03295B"/>
<rect x="179" y="299" width="35" height="9" fill="#03295B"/>
<rect x="119" y="351" width="34" height="9" fill="#03295B"/>
<rect x="238" y="171" width="8" height="40" fill="#03295B"/>
<rect x="222" y="138" width="69" height="37" fill="#03295B"/>
<rect x="35" y="-4" width="228" height="17" fill="#03295B"/>
<path d="M411 705.6L426.073 722H496.983L510 713.117L492.872 705.6L500.408 697.4L482.595 695.35L479.855 685.1L465.125 691.933L458.958 681L450.737 697.4L437.035 691.933V705.6H411Z" fill="#CBEA69"/>
<path d="M574 705.702L588.84 722H701L686.851 713.512L696.859 703.665L681.674 698.572L692.372 687.707L673.736 681.256V670.391L660.622 675.484V649L637.155 675.484L633.014 665.977L626.111 678.879L609.891 660.544V691.442L585.734 681.256L592.981 708.079L574 705.702Z" fill="#CBEA69"/>
<path d="M140.983 716.156L129 722H259L253.122 716.156H259L253.122 708.739L259 704.243L248.826 698.849L246.791 693.454L239.33 697.05L230.513 693.454V700.422L221.696 697.05V704.243L215.139 700.422L219.209 686.711L205.417 690.083V678.844L191.174 683.339L184.617 673L175.8 683.339L163.591 676.372L160.652 690.083H143.922L147.765 704.243H133.974L140.983 716.156Z" fill="#CBEA69"/>
<rect x="556" y="38" width="62" height="710" fill="#03295B"/>
<rect x="618" y="379" width="33" height="9" fill="#03295B"/>
<rect x="527" y="229" width="60" height="9" fill="#03295B"/>
<rect x="647" y="346" width="7" height="42" fill="#03295B"/>
<rect x="523" y="198" width="7" height="40" fill="#03295B"/>
<rect x="639" y="330" width="45" height="26" fill="#03295B"/>
<rect x="468" y="170" width="69" height="37" fill="#03295B"/>
<rect x="260" y="-4" width="280" height="35" fill="#03295B"/>
<rect x="398" y="-5" width="279" height="53" fill="#03295B"/>
<rect x="433" y="-3" width="279" height="17" fill="#03295B"/>
<rect x="1" y="722" width="711" height="78" fill="#89A828"/>
<defs>
<linearGradient id="paint0_linear" x1="356" y1="0" x2="356" y2="800" gradientUnits="userSpaceOnUse">
<stop stop-color="#F79130"/>
<stop offset="1" stop-color="white"/>
</linearGradient>
</defs>
</svg>
