<svg width="1039" height="768" viewBox="0 0 1039 768" fill="none" xmlns="http://www.w3.org/2000/svg">
<rect width="1039" height="768" fill="url(#paint0_linear)"/>
<path d="M173.83 361.655H96.7705L-1.77712 358.77V400L31.5661 396.46L73.0598 393.511L106.403 390.561L145.674 388.201L182.722 386.432L249.408 383.482L273.86 382.892H412.419L482.81 385.252L570.984 388.201L632.484 391.741L699.17 397.05L707.321 394.691L855.513 358.705L1000 320.36H974.807L886.633 318H770.303L671.014 326.259L536.9 337.468L389.449 353.396L286.456 361.655H173.83Z" fill="#0651B3"/>
<path d="M24.2086 471.604L-1 469.47V613L10.8629 611.933L70.1771 608.198L132.457 604.996L198.444 600.194L211.049 598.06L242.93 596.993L273.329 595.392L312.624 592.724L351.92 588.989L375.646 587.389L397.147 586.322L420.131 585.254L445.34 583.12L477.221 580.452L503.913 578.318L535.053 576.717L578.056 572.982L609.937 571.915H622.541L624.024 570.848L635.146 553.24L656.647 522.293L673.7 498.283L681.856 484.41L687.787 476.94L692.236 467.869H693.719L730.79 470.004L784.173 471.071L821.986 472.138L871.661 471.071L902.06 470.004L910.216 479.608L938.39 520.159L959.891 548.972L1037 546.304V311L1014.02 316.336L944.321 333.943L862.023 353.686L790.846 369.159L700.391 389.435L653.681 401.173L602.523 410.244L538.019 426.251L491.309 434.788L449.047 441.191L400.113 451.862L351.179 459.332L294.83 467.869L245.896 471.604L189.547 476.406L131.716 475.873L65.7286 474.806L24.2086 471.604Z" fill="#357FE0"/>
<path d="M-1 474.492L-1 390.749L8.16825 389.594L21.9206 388.439L28.7968 387.861L41.7852 386.706L59.3577 385.551L82.2783 383.818L119.715 380.93L149.512 379.198L167.849 378.62L186.185 377.465L210.634 376.888L245.779 375.155L274.812 374H292.384H336.697H393.235H432.2L468.109 375.155L501.726 376.31L549.859 378.043L591.88 379.198L627.789 381.508L654.53 382.663L678.215 384.396L699.607 386.128L721 387.861L708.776 391.326L687.383 397.102L661.406 402.877L637.722 407.497L620.149 410.385L589.588 418.471L568.96 423.668L553.679 427.711L523.119 433.487L508.602 436.374L491.03 439.262L474.221 442.15L458.177 445.037L436.02 450.235L413.099 455.433L401.639 457.166L369.55 462.364L347.394 465.829L322.945 469.872L305.372 472.759L296.968 473.337L271.756 475.07L232.026 478.535L195.353 482L109.783 480.845L67.7619 480.267L54.0095 479.112L-1 474.492Z" fill="#1A6AD3"/>
<path d="M-1 769.467L-1 611.647L9.38 610.581L29.3986 609.514L70.9186 606.848L104.283 605.249L143.579 602.583L173.977 600.983L198.444 598.851L214.756 596.718L254.051 595.118L283.709 593.519L306.693 591.386L323.746 590.32L348.213 588.187L371.197 586.588L410.493 584.455L437.184 582.322L471.29 579.656L497.24 577.524L545.433 574.325L590.66 571.126L622.541 570.592L620.317 574.325L613.644 582.855L604.747 591.386L601.781 595.118H604.006L621.059 593.519L629.956 592.453V594.052L627.731 598.851L629.956 599.384L639.594 600.983L671.476 606.315L704.099 611.114L740.429 616.445L752.291 617.512L767.861 616.979L801.226 612.18L862.764 603.649L884.266 600.45L913.923 596.185L967.306 590.853L998.446 588.187L996.963 586.588L972.496 563.661L959.891 547.666L1037 545V770L-1 769.467Z" fill="#ADCA52"/>
<path d="M665.487 589.731L643 592L685.648 504.648L697.279 527.904L694.953 574.983L675.567 578.954L668.589 583.492L665.487 589.731Z" fill="#EAA93C"/>
<path d="M710.141 571.19L702.367 572.299V532.906L721.026 571.19H710.141Z" fill="#EAA93C"/>
<path d="M607.17 587.123L598.386 595.546L597.587 596.108L599.187 596.107L627.98 593.835L689.396 498.408L682.17 483.829L679.774 486.075L665.413 506.285L637.487 544.459L620.735 569.158L607.17 587.123Z" fill="#87B2EB"/>
<path d="M988.391 576.34L1002.87 588.201L970.076 590.881L916.688 595.707L876.264 602.156L811.434 610.749L782.451 615.047L769.485 616.658L748.894 617.727L738.981 616.645L738.219 615.567L722.237 576.225L701.682 534.727L677.314 492.149L674.269 485.681L682.668 473.831L687.251 465.211L729.193 467.385L776.474 468.483L837.483 469.048L871.039 468.524L898.494 467.458L903.832 467.46L935.065 508.425L954.869 536.453L970.103 559.09L988.391 576.34Z" fill="#87B2EB"/>
<path d="M657.114 547.111L685.494 502L686.987 504.685L669.063 540.667L654.127 571.278L645.911 586.315V589L648.152 590.074L671.304 592.759L702.671 595.981L724.329 599.741H734.785L736.278 605.648L743 618L625 598.667L627.987 592.222L639.19 574.5L657.114 547.111Z" fill="#5181BF"/>
<path d="M667.873 584.567L646 586.833V587.4V589.667L649.771 590.233L682.958 594.767L703.322 596.467L725.195 601L735 600.433L721.424 567L707.093 567.567L695.78 569.833L677.678 573.8L670.89 578.9L667.873 584.567Z" fill="#295289"/>
<defs>
<linearGradient id="paint0_linear" x1="519.5" y1="0" x2="519.5" y2="768" gradientUnits="userSpaceOnUse">
<stop stop-color="#F79130"/>
<stop offset="0.536458" stop-color="white"/>
</linearGradient>
</defs>
</svg>
