<svg width="1090" height="899" viewBox="0 0 1090 899" fill="none" xmlns="http://www.w3.org/2000/svg">
<rect x="-5" width="1095" height="899" fill="url(#paint0_linear)"/>
<path d="M183.509 470.719H102.689L-0.668635 467.764V510L34.3018 506.374L77.8207 503.353L112.791 500.331L153.979 497.914L192.835 496.101L262.776 493.079L288.421 492.475H433.742L507.569 494.892L600.047 497.914L664.548 501.54L734.489 506.978L743.037 504.561L898.461 467.698L1050 428.417H1023.58L931.1 426H809.092L704.958 434.46L564.299 445.942L409.652 462.259L301.632 470.719H183.509Z" fill="#0651B3"/>
<path d="M26.4471 586.581L0 584.341L0 735L12.4457 733.88L74.6743 729.959L140.014 726.599L209.244 721.558L222.467 719.318L255.915 718.198L287.807 716.518L329.034 713.717L370.26 709.797L395.151 708.117L417.709 706.996L441.823 705.876L468.27 703.636L501.718 700.836L529.721 698.595L562.391 696.915L607.506 692.995L640.954 691.875H654.178L655.734 690.754L667.401 672.272L689.959 639.788L707.85 614.585L716.406 600.023L722.629 592.182L727.296 582.661H728.852L767.745 584.901L823.751 586.021L863.421 587.141L915.538 586.021L947.43 584.901L955.986 594.982L985.545 637.548L1008.1 667.792L1089 664.991V418L1064.89 423.601L991.768 442.083L905.426 462.806L830.751 479.048L735.853 500.33L686.848 512.652L633.176 522.173L565.502 538.975L516.497 547.936L472.159 554.657L420.821 565.859L369.482 573.7L310.365 582.661L259.026 586.581L199.909 591.622L139.236 591.062L70.0071 589.942L26.4471 586.581Z" fill="#357FE0"/>
<path d="M0 590.144L0 502.524L9.38413 501.316L23.4603 500.107L30.4984 499.503L43.7926 498.294L61.7788 497.086L85.2392 495.273L123.558 492.251L154.056 490.439L172.824 489.834L191.593 488.626L216.617 488.021L252.589 486.209L282.306 485H300.292H345.649H403.517H443.4L480.154 486.209L514.563 487.417L563.83 489.23L606.84 490.439L643.595 492.856L670.965 494.064L695.207 495.877L717.104 497.69L739 499.503L726.488 503.128L704.591 509.171L678.003 515.214L653.761 520.048L635.775 523.07L604.494 531.529L583.38 536.968L567.74 541.198L536.459 547.241L521.601 550.262L503.615 553.283L486.411 556.305L469.988 559.326L447.31 564.765L423.85 570.203L412.12 572.016L379.275 577.455L356.597 581.08L331.572 585.31L313.586 588.332L304.984 588.936L279.178 590.749L238.513 594.374L200.977 598L113.392 596.791L70.381 596.187L56.3048 594.979L0 590.144Z" fill="#1A6AD3"/>
<path d="M0 899.441L0 733.905L10.89 732.787L31.8921 731.668L75.4521 728.872L110.456 727.194L151.682 724.398L183.574 722.72L209.244 720.483L226.356 718.246L267.583 716.569L298.697 714.891L322.811 712.654L340.701 711.536L366.371 709.299L390.484 707.621L431.711 705.384L459.714 703.147L495.495 700.351L522.72 698.114L573.281 694.758L620.73 691.403L654.178 690.844L651.844 694.758L644.844 703.706L635.509 712.654L632.398 716.569H634.731L652.622 714.891L661.956 713.773V715.45L659.623 720.483L661.956 721.043L672.069 722.72L705.516 728.313L739.742 733.346L777.857 738.938L790.303 740.057L806.638 739.498L841.641 734.464L906.204 725.517L928.761 722.161L959.876 717.687L1015.88 712.095L1048.55 709.299L1047 707.621L1021.33 683.573L1008.1 666.796L1089 664V900L0 899.441Z" fill="#ADCA52"/>
<path d="M701.46 706.738L678.751 709.007L721.819 621.647L733.565 644.905L731.216 691.989L711.639 695.96L704.592 700.498L701.46 706.738Z" fill="#EAA93C"/>
<path d="M746.555 688.198L738.704 689.308V649.911L757.546 688.198H746.555Z" fill="#EAA93C"/>
<path d="M638.111 708.163L628.898 716.999L628.06 717.589L629.738 717.587L659.942 715.204L724.366 615.102L716.786 599.809L714.273 602.165L699.208 623.364L669.914 663.409L652.341 689.319L638.111 708.163Z" fill="#87B2EB"/>
<path d="M1038.01 696.852L1053.2 709.293L1018.8 712.104L962.794 717.167L920.389 723.932L852.383 732.946L821.98 737.455L808.379 739.144L786.779 740.265L776.38 739.131L775.581 738L758.816 696.731L737.253 653.199L711.692 608.535L708.497 601.751L717.308 589.32L722.115 580.278L766.112 582.558L815.71 583.71L879.708 584.303L914.907 583.753L943.708 582.635L949.307 582.637L982.07 625.609L1002.84 655.009L1018.82 678.756L1038.01 696.852Z" fill="#87B2EB"/>
<path d="M690.747 666.444L720.57 619L722.139 621.824L703.304 659.667L687.608 691.861L678.975 707.676V710.5L681.329 711.63L705.658 714.454L738.62 717.843L761.38 721.796H772.367L773.937 728.009L781 741L657 720.667L660.139 713.889L671.911 695.25L690.747 666.444Z" fill="#5181BF"/>
<path d="M701.856 705.6L679 708V708.6V711L682.941 711.6L717.619 716.4L738.898 718.2L761.754 723L772 722.4L757.814 687L742.839 687.6L731.017 690L712.102 694.2L705.008 699.6L701.856 705.6Z" fill="#295289"/>
<defs>
<linearGradient id="paint0_linear" x1="542.5" y1="0" x2="542.5" y2="899" gradientUnits="userSpaceOnUse">
<stop stop-color="#F79130"/>
<stop offset="0.536458" stop-color="white"/>
</linearGradient>
</defs>
</svg>
