<svg width="712" height="800" viewBox="0 0 712 800" fill="none" xmlns="http://www.w3.org/2000/svg">
<rect width="712" height="800" fill="url(#paint0_linear)"/>
<path d="M712 561L665.078 579.876C626.137 595.54 583.78 600.76 542.201 595.017C496.277 588.673 449.497 595.715 407.476 615.298L394 621.578L448.216 682.155L605.652 689L712 621.578V561Z" fill="#E79D56"/>
<path d="M53.5505 406L31.4113 400.763C17.5026 397.473 16.1417 378.213 29.4495 373L35.8991 377.516C26.2492 379.162 25.3928 392.692 34.7583 395.542L60 403.221L53.5505 406Z" fill="#0B0E4F"/>
<path d="M415.794 634.115L346.075 591.195C227.619 518.271 72.4523 555.514 0 674.26V803H712V618.887L678.439 637.65C596.536 683.438 496.435 682.09 415.794 634.115Z" fill="#A2BA57"/>
<circle cx="22.5" cy="670.5" r="52.5" fill="#0B0E4F"/>
<circle cx="8" cy="733" r="38" fill="#0B0E4F"/>
<ellipse cx="27" cy="795.5" rx="38" ry="38.5" fill="#0B0E4F"/>
<circle cx="65" cy="804" r="30" fill="#0B0E4F"/>
<circle cx="120" cy="768" r="45" fill="#0B0E4F"/>
<ellipse cx="174" cy="775.5" rx="37" ry="37.5" fill="#0B0E4F"/>
<circle cx="217.5" cy="802.5" r="23.5" fill="#0B0E4F"/>
<ellipse cx="250.5" cy="794" rx="27.5" ry="28" fill="#0B0E4F"/>
<path d="M120.128 533.09V803H130.484L125.996 429.145V384.449L185.113 376.294C194.116 375.052 202.665 371.575 209.98 366.181L220.577 358.366C228.156 352.777 237.976 351.216 246.915 354.179L253.906 356.497C263.354 359.629 273.681 355.458 278.303 346.643C284.629 334.579 277.53 319.829 264.154 317.247L257.275 315.919C255.827 315.64 254.407 315.235 253.029 314.711L235.078 307.876L202.488 293.236C191.432 288.269 179.449 285.702 167.328 285.702H158.051C147.714 285.702 137.594 288.663 128.888 294.235L125.009 296.718C106.993 308.249 83.5199 306.462 67.4577 292.336L66.5952 291.577C61.1759 286.811 54.6546 283.471 47.6204 281.857C31.9183 278.254 15.512 283.637 4.99603 295.842L0 301.64V324.416C0 358.185 24.5751 386.932 57.9335 392.185C66.1883 393.484 74.6111 393.265 82.7871 391.537L116.331 384.449L120.128 524.082L103.683 518.532C89.5805 513.773 80.0854 500.548 80.0854 485.663V455.806C80.0854 453.137 77.9217 450.974 75.2527 450.974C72.5836 450.974 70.4199 453.137 70.4199 455.806V489.421C70.4199 506.313 81.4449 521.226 97.5941 526.179L120.128 533.09Z" fill="#0B0E4F"/>
<circle cx="53" cy="426" r="26" fill="#0B0E4F"/>
<ellipse cx="77" cy="441.5" rx="18" ry="17.5" fill="#0B0E4F"/>
<path d="M618 803V0H681V803H618Z" fill="#0B0E4F"/>
<ellipse cx="603" cy="262.5" rx="53" ry="52.5" fill="#0B0E4F"/>
<circle cx="617.5" cy="341.5" r="29.5" fill="#0B0E4F"/>
<path d="M373.783 26.1575H329.179C299.898 26.1575 274.324 6.35068 267 -22H671.203C676.614 -22 681 -17.6139 681 -12.2033C681 -7.7651 678.016 -3.88133 673.728 -2.73751L643.332 5.37008L611.792 9.49449C596.31 11.5191 582.177 19.3577 572.262 31.42C562.412 43.4037 548.396 51.2216 533.024 53.3066L468.173 62.103C450.208 64.5398 432.205 57.8983 420.126 44.3779C409.769 32.785 394.961 26.1575 379.416 26.1575H373.783Z" fill="#0B0E4F"/>
<path d="M415.794 634.115L346.075 591.195C227.619 518.271 72.4523 555.514 0 674.26V803H712V618.887L678.439 637.65C596.536 683.438 496.435 682.09 415.794 634.115Z" fill="#A2BA57"/>
<circle cx="22.5" cy="670.5" r="52.5" fill="#0B0E4F"/>
<circle cx="8" cy="733" r="38" fill="#0B0E4F"/>
<ellipse cx="27" cy="795.5" rx="38" ry="38.5" fill="#0B0E4F"/>
<circle cx="65" cy="804" r="30" fill="#0B0E4F"/>
<circle cx="120" cy="768" r="45" fill="#0B0E4F"/>
<ellipse cx="174" cy="775.5" rx="37" ry="37.5" fill="#0B0E4F"/>
<circle cx="217.5" cy="802.5" r="23.5" fill="#0B0E4F"/>
<ellipse cx="250.5" cy="794" rx="27.5" ry="28" fill="#0B0E4F"/>
<path d="M120.128 533.09V803H130.484L125.996 429.145V384.449L185.113 376.294C194.116 375.052 202.665 371.575 209.98 366.181L220.577 358.366C228.156 352.777 237.976 351.216 246.915 354.179L253.906 356.497C263.354 359.629 273.681 355.458 278.303 346.643C284.629 334.579 277.53 319.829 264.154 317.247L257.275 315.919C255.827 315.64 254.407 315.235 253.029 314.711L235.078 307.876L202.488 293.236C191.432 288.269 179.449 285.702 167.328 285.702H158.051C147.714 285.702 137.594 288.663 128.888 294.235L125.009 296.718C106.993 308.249 83.5199 306.462 67.4577 292.336L66.5952 291.577C61.1759 286.811 54.6546 283.471 47.6204 281.857C31.9183 278.254 15.512 283.637 4.99603 295.842L0 301.64V324.416C0 358.185 24.5751 386.932 57.9335 392.185C66.1883 393.484 74.6111 393.265 82.7871 391.537L116.331 384.449L120.128 524.082L103.683 518.532C89.5805 513.773 80.0854 500.548 80.0854 485.663V455.806C80.0854 453.137 77.9217 450.974 75.2527 450.974C72.5836 450.974 70.4199 453.137 70.4199 455.806V489.421C70.4199 506.313 81.4449 521.226 97.5941 526.179L120.128 533.09Z" fill="#0B0E4F"/>
<circle cx="53" cy="426" r="26" fill="#0B0E4F"/>
<ellipse cx="77" cy="441.5" rx="18" ry="17.5" fill="#0B0E4F"/>
<path d="M618 803V0H681V803H618Z" fill="#0B0E4F"/>
<ellipse cx="603" cy="262.5" rx="53" ry="52.5" fill="#0B0E4F"/>
<circle cx="617.5" cy="341.5" r="29.5" fill="#0B0E4F"/>
<path d="M373.783 26.1575H329.179C299.898 26.1575 274.324 6.35068 267 -22H671.203C676.614 -22 681 -17.6139 681 -12.2033C681 -7.7651 678.016 -3.88133 673.728 -2.73751L643.332 5.37008L611.792 9.49449C596.31 11.5191 582.177 19.3577 572.262 31.42C562.412 43.4037 548.396 51.2216 533.024 53.3066L468.173 62.103C450.208 64.5398 432.205 57.8983 420.126 44.3779C409.769 32.785 394.961 26.1575 379.416 26.1575H373.783Z" fill="#0B0E4F"/>
<defs>
<linearGradient id="paint0_linear" x1="356" y1="0" x2="356" y2="800" gradientUnits="userSpaceOnUse">
<stop stop-color="#5ABCE6"/>
<stop offset="0.760417" stop-color="white"/>
</linearGradient>
</defs>
</svg>
