<svg width="320" height="304" viewBox="0 0 320 304" fill="none" xmlns="http://www.w3.org/2000/svg">
<rect x="-2" width="322" height="289" fill="url(#paint0_linear)"/>
<path d="M320 179.918L298.698 188.641C281.11 195.842 261.926 198.243 243.106 195.597C222.327 192.676 201.148 195.912 182.189 204.905L176 207.84L200.551 235.763L271.843 238.918L320 207.84V179.918Z" fill="#E79D56"/>
<path d="M186.458 213.33L155.283 194.026C101.818 160.919 31.6144 177.769 -1 231.536V289.918H320V206.425L304.878 214.929C267.976 235.68 222.786 235.07 186.458 213.33Z" fill="#A2BA57"/>
<circle cx="8.92857" cy="230.069" r="23.9286" fill="#0B0E4F"/>
<ellipse cx="1.98157" cy="259.015" rx="16.9816" ry="17.3675" fill="#0B0E4F"/>
<ellipse cx="10.8584" cy="286.419" rx="17.3675" ry="16.9816" fill="#0B0E4F"/>
<circle cx="27.8396" cy="290.66" r="12.7362" fill="#0B0E4F"/>
<circle cx="53.312" cy="274.451" r="20.4551" fill="#0B0E4F"/>
<circle cx="77.2407" cy="277.538" r="17.3675" fill="#0B0E4F"/>
<circle cx="96.5382" cy="289.889" r="10.4205" fill="#0B0E4F"/>
<ellipse cx="111.59" cy="285.26" rx="12.3502" ry="12.7362" fill="#0B0E4F"/>
<path d="M53.3823 167.741V289.504H58.0796L56.0441 120.849V100.686L82.8642 97.0058C86.9446 96.4459 90.8208 94.8771 94.1419 92.4413L98.9412 88.9213C102.383 86.3971 106.832 85.692 110.886 87.0285L114.123 88.0958C118.377 89.4985 123.022 87.6239 125.112 83.6613C127.985 78.2109 124.776 71.5337 118.725 70.372L115.583 69.7686C114.931 69.6435 114.291 69.4625 113.671 69.2275L105.522 66.1419L90.7445 59.5396C85.7257 57.2973 80.2904 56.1383 74.7934 56.1383H70.5762C65.8915 56.1383 61.304 57.4746 57.3521 59.9903L55.5776 61.1199C47.4081 66.3205 36.788 65.5131 29.4986 59.1372L29.1116 58.7987C26.646 56.6421 23.6834 55.1316 20.4898 54.4029C13.3657 52.7773 5.92561 55.2121 1.14083 60.735L-1.10596 63.3284V73.4329C-1.10596 88.762 10.0564 101.808 25.201 104.18C28.9263 104.763 32.7265 104.665 36.4166 103.889L51.66 100.686L53.3823 163.677L45.8817 161.16C39.5118 159.022 35.2195 153.054 35.2195 146.334V132.888C35.2195 131.678 34.2381 130.696 33.0275 130.696C31.8168 130.696 30.8354 131.678 30.8354 132.888V148.029C30.8354 155.654 35.8182 162.383 43.1113 164.608L53.3823 167.741Z" fill="#0B0E4F"/>
<ellipse cx="22.8228" cy="120.076" rx="11.5783" ry="11.1924" fill="#0B0E4F"/>
<ellipse cx="33.2432" cy="126.634" rx="7.33295" ry="7.71889" fill="#0B0E4F"/>
<path d="M277.546 289.503V-2.01953H305.334V289.503H277.546Z" fill="#0B0E4F"/>
<ellipse cx="273.5" cy="89" rx="17.5" ry="15" fill="#0B0E4F"/>
<ellipse cx="278" cy="110.5" rx="9" ry="8.5" fill="#0B0E4F"/>
<path d="M159.77 8.15658H132.432C123.239 8.15658 114.978 2.54532 111.59 -6H295.621C297.149 -6 298.387 -4.76174 298.387 -3.23426C298.387 -1.88949 297.42 -0.739609 296.095 -0.509364L281.391 2.04583L265.135 3.43084C259.365 3.92243 253.867 6.1029 249.329 9.69999C244.816 13.2774 239.353 15.4541 233.616 15.9611L199.995 18.9322C193.162 19.5361 186.342 17.6413 180.799 13.5994C175.949 10.0624 170.101 8.15658 164.099 8.15658H159.77Z" fill="#0B0E4F"/>
<defs>
<linearGradient id="paint0_linear" x1="159" y1="0" x2="159" y2="289" gradientUnits="userSpaceOnUse">
<stop stop-color="#5ABCE6"/>
<stop offset="0.760417" stop-color="white"/>
</linearGradient>
</defs>
</svg>
