<svg width="320" height="289" viewBox="0 0 320 289" fill="none" xmlns="http://www.w3.org/2000/svg">
<rect width="321" height="289" fill="url(#paint0_linear)"/>
<path d="M151.813 257.178L133.904 248.933C90.9133 229.138 45.0318 216.352 -2 211.058V257.178H151.813Z" fill="#357FE0"/>
<path d="M126.264 208.592L58.5928 223.562V258H319.608V220.218C308.022 226.081 294.86 228.07 282.059 225.892L260.722 222.26C252.897 220.929 244.854 221.949 237.61 225.192C226.887 229.991 214.599 229.848 203.992 224.799L183.657 215.121C165.787 206.615 145.589 204.317 126.264 208.592Z" fill="#357FE0"/>
<rect x="64.0308" y="4.71387" width="20.9744" height="253.211" fill="#03295B"/>
<rect x="78.0137" y="62.2402" width="27.1891" height="2.35764" fill="#03295B"/>
<rect x="74.9067" y="88.1772" width="16.3135" height="2.35764" fill="#03295B"/>
<rect x="50.8252" y="122.126" width="15.5366" height="2.35764" fill="#03295B"/>
<rect x="102.096" y="52.8105" width="3.10733" height="10.8452" fill="#03295B"/>
<rect x="95" y="43" width="22" height="11" fill="#03295B"/>
<rect x="9.65283" width="104.095" height="4.71528" fill="#03295B"/>
<rect x="250.471" y="14.771" width="26.4123" height="250.147" fill="#03295B"/>
<rect x="273.775" y="126.741" width="14.7598" height="2.38235" fill="#03295B"/>
<rect x="236" y="91" width="27.1891" height="3.3353" fill="#03295B"/>
<rect x="286.981" y="117.689" width="3.88416" height="11.4353" fill="#03295B"/>
<rect x="236" y="80" width="2.33049" height="11.9118" fill="#03295B"/>
<rect x="284" y="113" width="16" height="7" fill="#03295B"/>
<rect x="222" y="72" width="18" height="10" fill="#03295B"/>
<rect x="111" width="128" height="12" fill="#03295B"/>
<rect x="174" width="127" height="18" fill="#03295B"/>
<rect x="190.654" width="125.07" height="4.76471" fill="#03295B"/>
<rect x="-2" y="255" width="322" height="34" fill="#89A828"/>
<path d="M184 247.4L191.003 255H223.952L230 250.883L222.042 247.4L225.543 243.6L217.266 242.65L215.993 237.9L209.149 241.067L206.284 236L202.464 243.6L196.097 241.067V247.4H184Z" fill="#CBEA69"/>
<path d="M62.2539 252.376L57 255H114L111.423 252.376H114L111.423 249.046L114 247.028L109.539 244.606L108.647 242.183L105.376 243.798L101.51 242.183V245.312L97.6435 243.798V247.028L94.7687 245.312L96.553 239.156L90.5061 240.67V235.624L84.2609 237.642L81.3861 233L77.52 237.642L72.167 234.514L70.8783 240.67H63.5426L65.2278 247.028H59.1809L62.2539 252.376Z" fill="#CBEA69"/>
<path d="M258 247.409L264.543 255H314L307.761 251.047L312.174 246.46L305.478 244.088L310.196 239.028L301.978 236.023V230.963L296.196 233.335V221L285.848 233.335L284.022 228.907L280.978 234.916L273.826 226.377V240.767L263.174 236.023L266.37 248.516L258 247.409Z" fill="#CBEA69"/>
<rect x="22.8234" width="18.9135" height="255" fill="#03295B"/>
<rect x="13.3667" y="75.2529" width="13.8214" height="2.39662" fill="#03295B"/>
<rect x="11.9116" y="66.625" width="2.90977" height="11.0244" fill="#03295B"/>
<rect x="1" y="55" width="20" height="12" fill="#03295B"/>
<defs>
<linearGradient id="paint0_linear" x1="160.5" y1="0" x2="160.5" y2="289" gradientUnits="userSpaceOnUse">
<stop stop-color="#F79130"/>
<stop offset="1" stop-color="white"/>
</linearGradient>
</defs>
</svg>
