<svg width="969" height="800" viewBox="0 0 969 800" fill="none" xmlns="http://www.w3.org/2000/svg">
<rect x="-3" y="1" width="972" height="795" fill="url(#paint0_linear)"/>
<path d="M70.1815 627.067L-0.664551 620.027V743.108H464.316L347.847 695.768C259.062 659.68 165.551 636.543 70.1815 627.067Z" fill="#357FE0"/>
<path d="M389.373 614.185L184.87 654.287V746H969V645.383C934.011 661.079 895.247 666.383 857.328 660.663L791.626 650.751C768.322 647.235 744.502 649.963 722.596 658.655C690.104 671.548 653.847 671.158 621.64 657.569L560.714 631.863C506.633 609.045 446.973 602.889 389.373 614.185Z" fill="#357FE0"/>
<rect x="201.667" y="-14" width="60.3177" height="759.646" fill="#03295B"/>
<rect x="255.877" y="172.975" width="81.6962" height="12.5173" fill="#03295B"/>
<rect x="246.715" y="303.626" width="46.5744" height="12.5173" fill="#03295B"/>
<rect x="166.546" y="244.17" width="45.8109" height="12.5173" fill="#03295B"/>
<rect x="326.884" y="122.906" width="10.6892" height="57.1104" fill="#03295B"/>
<rect x="305.505" y="76.7505" width="94.6759" height="52.4164" fill="#03295B"/>
<rect x="45.9102" y="-14" width="310.751" height="24.2524" fill="#03295B"/>
<path d="M191.407 729.606L175 737H353L344.951 729.606H353L344.951 720.22L353 714.532L339.07 707.706L336.283 700.881L326.068 705.431L313.995 700.881V709.697L301.922 705.431V714.532L292.944 709.697L298.517 692.349L279.633 696.615V682.394L260.13 688.083L251.153 675L239.08 688.083L222.363 679.266L218.339 696.615H195.431L200.694 714.532H181.81L191.407 729.606Z" fill="#CBEA69"/>
<path d="M560 716.2L580.706 737H678.118L696 725.733L672.471 716.2L682.824 705.8L658.353 703.2L654.588 690.2L634.353 698.867L625.882 685L614.588 705.8L595.765 698.867V716.2H560Z" fill="#CBEA69"/>
<rect x="759.033" y="21.8374" width="83.2232" height="744.475" fill="#03295B"/>
<rect x="839.203" y="283.56" width="45.8109" height="12.28" fill="#03295B"/>
<rect x="732.31" y="193.756" width="81.6962" height="12.28" fill="#03295B"/>
<rect x="879.669" y="240.578" width="10.6892" height="55.26" fill="#03295B"/>
<rect x="726.202" y="150.777" width="10.6892" height="55.26" fill="#03295B"/>
<rect x="868.042" y="217.262" width="55.1534" height="34.3707" fill="#03295B"/>
<rect x="667.993" y="112.068" width="78.5235" height="52.0768" fill="#03295B"/>
<rect x="353.606" y="-14.2339" width="380.994" height="48.3525" fill="#03295B"/>
<rect x="541.431" y="-15" width="381.758" height="73.68" fill="#03295B"/>
<rect x="590.296" y="-1.18604" width="378.704" height="23.7925" fill="#03295B"/>
<path d="M782 717.46L802.215 738H955L935.726 727.302L949.359 714.893L928.674 708.474L943.247 694.781L917.861 686.651V672.958L899.997 679.377V646L868.03 679.377L862.389 667.395L852.986 683.656L830.891 660.549V699.488L797.984 686.651L807.856 720.456L782 717.46Z" fill="#CBEA69"/>
<rect y="737" width="969" height="64" fill="#89A828"/>
<rect x="65.2402" width="58.4919" height="735.765" fill="#03295B"/>
<rect x="32.9946" y="157.774" width="44.9938" height="12.1363" fill="#03295B"/>
<rect x="29.2451" y="114.536" width="9.74865" height="55.372" fill="#03295B"/>
<rect x="-6" y="81.1602" width="61.4915" height="33.3749" fill="#03295B"/>
<defs>
<linearGradient id="paint0_linear" x1="483" y1="1" x2="483" y2="796" gradientUnits="userSpaceOnUse">
<stop stop-color="#F79130"/>
<stop offset="1" stop-color="white"/>
</linearGradient>
</defs>
</svg>
