<svg width="1062" height="768" viewBox="0 0 1062 768" fill="none" xmlns="http://www.w3.org/2000/svg">
<rect x="-2" width="1041" height="765" fill="url(#paint0_linear)"/>
<path d="M1039 445L970.217 472.732C913.173 495.732 851.1 503.396 790.174 494.962C722.883 485.646 654.333 495.985 592.783 524.733L573 533.973L652.449 622.947L883.157 633L1039 533.973V445Z" fill="#E79D56"/>
<path d="M605.092 552.054L502.701 489.136C329.235 382.543 102.185 437.04 -4 610.755V799H1039V529.789L989.829 557.228C869.826 624.193 723.251 622.222 605.092 552.054Z" fill="#A2BA57"/>
<ellipse cx="29.1737" cy="605.882" rx="77.1737" ry="77.5842" fill="#0B0E4F"/>
<ellipse cx="7.4173" cy="698.244" rx="55.4173" ry="55.8278" fill="#0B0E4F"/>
<circle cx="34.9206" cy="788.556" r="55.8278" fill="#0B0E4F"/>
<circle cx="91.159" cy="801.279" r="43.1023" fill="#0B0E4F"/>
<circle cx="171.617" cy="748.735" r="65.2693" fill="#0B0E4F"/>
<circle cx="250.843" cy="759.817" r="54.1858" fill="#0B0E4F"/>
<circle cx="313.65" cy="798.818" r="34.0714" fill="#0B0E4F"/>
<ellipse cx="361.677" cy="786.503" rx="40.2289" ry="40.6394" fill="#0B0E4F"/>
<path d="M75.4135 217.958L42.3428 210.366C22.139 205.727 20.2074 177.708 39.5834 170.341L49.1718 176.857C35.1502 179.178 33.9369 198.87 47.5674 202.895L85.0019 213.948L75.4135 217.958Z" fill="#0B0E4F"/>
<path d="M172.232 403.99V798.404H187.395L180.825 252.097V186.783L267.393 174.865C280.572 173.051 293.088 167.97 303.802 160.085L319.311 148.672C330.413 140.501 344.786 138.219 357.873 142.549L368.19 145.962C381.987 150.526 397.061 144.44 403.82 131.575C413.088 113.937 402.706 92.3545 383.141 88.5855L373.041 86.6399C370.927 86.2327 368.853 85.6436 366.84 84.8791L340.548 74.8892L292.833 53.4983C276.64 46.2385 259.094 42.4855 241.347 42.4855H227.751C212.621 42.4855 197.805 46.8133 185.054 54.9584L179.356 58.598C152.979 75.4467 118.641 72.8335 95.1173 52.1874L93.8595 51.0834C85.9152 44.111 76.3608 39.225 66.0574 36.866C43.0632 31.6013 19.0421 39.4749 3.62615 57.3298L-3.66602 65.7757V98.8523C-3.66602 148.314 32.3368 190.415 81.1985 198.093C93.2627 199.988 105.571 199.668 117.521 197.148L166.672 186.783L172.232 390.826L148.102 382.699C127.485 375.756 113.599 356.428 113.599 334.672V291.071C113.599 287.163 110.431 283.995 106.523 283.995C102.615 283.995 99.4465 287.163 99.4465 291.071V340.163C99.4465 364.852 115.568 386.647 139.176 393.872L172.232 403.99Z" fill="#0B0E4F"/>
<circle cx="73.5078" cy="247.516" r="38.5869" fill="#0B0E4F"/>
<circle cx="108.4" cy="270.092" r="25.8614" fill="#0B0E4F"/>
<ellipse cx="875.592" cy="217.549" rx="84.5922" ry="77.5842" fill="#0B0E4F"/>
<ellipse cx="903.342" cy="329.208" rx="46.9956" ry="43.1023" fill="#0B0E4F"/>
<path d="M901.072 799.228V-111.258H993.024V799.228H901.072Z" fill="#0B0E4F"/>
<path d="M612.279 10.5379H547.057C504.172 10.5379 466.718 -18.4756 456 -60H1047.54C1055.47 -60 1061.9 -53.5749 1061.9 -45.6491C1061.9 -39.1488 1057.53 -33.4603 1051.25 -31.7837L1006.77 -19.9101L960.626 -13.8712C937.957 -10.9044 917.267 0.578617 902.756 18.2461C888.341 35.7985 867.821 47.2511 845.314 50.3064L750.441 63.1857C724.137 66.7564 697.778 57.0278 680.101 37.2248C664.945 20.2459 643.266 10.5379 620.507 10.5379H612.279Z" fill="#0B0E4F"/>
<defs>
<linearGradient id="paint0_linear" x1="518.5" y1="0" x2="518.5" y2="765" gradientUnits="userSpaceOnUse">
<stop stop-color="#5ABCE6"/>
<stop offset="0.760417" stop-color="white"/>
</linearGradient>
</defs>
</svg>
