<svg width="1090" height="900" viewBox="0 0 1090 900" fill="none" xmlns="http://www.w3.org/2000/svg">
<rect width="1089" height="900" fill="url(#paint0_linear)"/>
<path d="M70.7933 565.676L1 538V900H1089V743.355L1081.25 738.373L1004.47 716.232L904.435 699.627L808.276 686.342L702.81 673.058L593.468 668.63L459.309 655.346L332.13 635.972L224.339 612.725L124.301 585.049L70.7933 565.676Z" fill="#89A828"/>
<path d="M58.1301 460.333L-8 469.719V538.177L49.3659 564.125L106.732 584L180.829 564.125L243.772 551.427L286 538.177L254.13 497.323L237.398 465.302L227.041 425L180.829 436.594L121.87 452.052L58.1301 460.333Z" fill="#ADCA52"/>
<path d="M281.815 449.466L228 425L231.9 454.903L240.479 476.65L263.097 513.078L281.815 537L306.772 533.738L361.367 519.058L416.741 504.379L430 500.573L340.309 476.65L281.815 449.466Z" fill="#CBEA69"/>
<path d="M538.693 638.885L558 664L422.854 652.534L324.777 638.885L157.969 599.575L107 581.557L161.058 566.27L232.106 548.253L268.402 540.609L412.043 506.759L471.507 488.741L512.437 474L504.714 500.753V523.138V548.253V570.092L520.159 603.943L538.693 638.885Z" fill="#ADCA52"/>
<path d="M573.008 505.365L512.626 476L504 490.682V523.853V570.619L520.468 611.403L555.756 666.87L616.922 671.764L736.902 677.745L874.918 695.147L1011.37 717.442L1089 743V611.403L1064.69 607.597L929.027 591.827L854.529 583.67L751.802 562.462L666.326 535.817L573.008 505.365Z" fill="#CBEA69"/>
<path d="M176.485 752.67L185.745 830.733L193.278 898.351H0.543346L-1 781.806L29.0952 725.183L110.121 548.168L141.759 480L154.878 581.152L165.681 665.812L176.485 752.67Z" fill="#2D3809"/>
<path d="M371.718 678.456L303.039 898.351H429.593L371.718 678.456Z" fill="#2D3809"/>
<path d="M529.911 614.686L461.232 898.351H631L529.911 614.686Z" fill="#2D3809"/>
<path d="M70.8574 565.676L1 538V900H1090V743.355L1082.24 738.373L1005.39 716.232L905.266 699.627L809.018 686.342L703.455 673.058L594.012 668.63L459.731 655.346L332.435 635.972L224.544 612.725L124.415 585.049L70.8574 565.676Z" fill="#89A828"/>
<path d="M58.1301 460.333L-8 469.719V538.177L49.3659 564.125L106.732 584L180.829 564.125L243.772 551.427L286 538.177L254.13 497.323L237.398 465.302L227.041 425L180.829 436.594L121.87 452.052L58.1301 460.333Z" fill="#ADCA52"/>
<path d="M281.815 449.466L228 425L231.9 454.903L240.479 476.65L263.097 513.078L281.815 537L306.772 533.738L361.367 519.058L416.741 504.379L430 500.573L340.309 476.65L281.815 449.466Z" fill="#CBEA69"/>
<path d="M573.008 505.365L512.626 476L504 490.682V523.853V570.619L520.468 611.403L555.756 666.87L616.922 671.764L736.902 677.745L874.918 695.147L1011.37 717.442L1089 743V611.403L1064.69 607.597L929.027 591.827L854.529 583.67L751.802 562.462L666.326 535.817L573.008 505.365Z" fill="#CBEA69"/>
<path d="M176.485 752.67L185.745 830.733L193.278 898.351H0.543346L-1 781.806L29.0952 725.183L110.121 548.168L141.759 480L154.878 581.152L165.681 665.812L176.485 752.67Z" fill="#2D3809"/>
<path d="M371.718 678.456L303.039 898.351H429.593L371.718 678.456Z" fill="#2D3809"/>
<path d="M529.911 614.686L461.232 898.351H631L529.911 614.686Z" fill="#2D3809"/>
<defs>
<linearGradient id="paint0_linear" x1="544.5" y1="0" x2="544.5" y2="900" gradientUnits="userSpaceOnUse">
<stop stop-color="#F79130"/>
<stop offset="0.666667" stop-color="white"/>
</linearGradient>
</defs>
</svg>
