<svg width="969" height="800" viewBox="0 0 969 800" fill="none" xmlns="http://www.w3.org/2000/svg">
<rect width="969" height="800" fill="url(#paint0_linear)"/>
<path d="M45.1572 406.556L-14 414.938V476.076L37.3171 499.25L88.6341 517L154.919 499.25L211.225 487.91L249 476.076L220.491 439.59L205.523 410.993L196.257 375L154.919 385.354L102.176 399.16L45.1572 406.556Z" fill="#ADCA52"/>
<path d="M245.954 396.845L198 375L201.475 401.699L209.12 421.117L229.274 453.641L245.954 475L268.193 472.087L316.842 458.981L366.185 445.874L378 442.476L298.077 421.117L245.954 396.845Z" fill="#CBEA69"/>
<path d="M475.705 566.397L493 589L371.938 578.681L284.082 566.397L134.658 531.017L89 514.802L137.425 501.043L201.068 484.828L233.582 477.948L362.253 447.483L415.521 431.267L452.185 418L445.267 442.078V462.224V484.828V504.483L459.103 534.948L475.705 566.397Z" fill="#ADCA52"/>
<path d="M506.812 446.395L452.727 420L445 433.198V463.014V505.051L459.751 541.711L491.359 591.568L546.147 595.967L653.617 601.344L777.241 616.986L899.461 637.026L969 660V541.711L947.225 538.289L825.708 524.114L758.979 516.782L666.962 497.719L590.399 473.768L506.812 446.395Z" fill="#CBEA69"/>
<path d="M55.6087 499.771L-7 475V799H969V658.798L962.044 654.339L893.174 634.523L803.435 619.661L717.174 607.771L622.565 595.881L524.478 591.917L404.13 580.028L290.043 562.688L193.348 541.881L103.609 517.11L55.6087 499.771Z" fill="#89A828"/>
<path d="M150.95 668.105L159.243 737.99L165.989 798.524H-6.61783L-8 694.188L18.9524 643.497L91.5165 485.026L119.851 424L131.6 514.555L141.275 590.346L150.95 668.105Z" fill="#2D3809"/>
<path d="M325.795 601.665L264.288 798.524H377.626L325.795 601.665Z" fill="#2D3809"/>
<path d="M467.468 544.576L405.961 798.524H558L467.468 544.576Z" fill="#2D3809"/>
<defs>
<linearGradient id="paint0_linear" x1="484.5" y1="0" x2="484.5" y2="800" gradientUnits="userSpaceOnUse">
<stop stop-color="#F79130"/>
<stop offset="0.666667" stop-color="white"/>
</linearGradient>
</defs>
</svg>
