<svg width="712" height="800" viewBox="0 0 712 800" fill="none" xmlns="http://www.w3.org/2000/svg">
<rect width="712" height="800" fill="url(#paint0_linear)"/>
<path d="M42.5122 510.333L0 516.531V561.74L36.878 578.875L73.7561 592L121.39 578.875L161.854 570.49L189 561.74L168.512 534.76L157.756 513.615L151.098 487L121.39 494.656L83.4878 504.865L42.5122 510.333Z" fill="#ADCA52"/>
<path d="M186.432 503.165L151 487L153.568 506.757L159.216 521.126L174.108 545.194L186.432 561L202.865 558.845L238.811 549.146L275.27 539.447L284 536.932L224.946 521.126L186.432 503.165Z" fill="#CBEA69"/>
<path d="M355.329 627.609L368 644L279.301 636.517L214.932 627.609L105.452 601.954L72 590.195L107.479 580.218L154.11 568.46L177.932 563.471L272.205 541.379L311.233 529.621L338.096 520L333.027 537.46V552.069V568.46V582.713L343.164 604.805L355.329 627.609Z" fill="#ADCA52"/>
<path d="M377.708 540.356L338.588 521L333 530.678V552.544V583.371L343.669 610.255L366.531 646.817L406.158 650.043L483.889 653.986L573.304 665.456L661.704 680.153L712 697V610.255L696.251 607.745L608.359 597.35L560.095 591.974L493.542 577.994L438.165 560.43L377.708 540.356Z" fill="#CBEA69"/>
<path d="M42.866 578.349L-3 560V800H712V696.147L706.904 692.844L656.451 678.165L590.71 667.156L527.517 658.349L458.208 649.541L386.351 646.606L298.187 637.798L214.609 624.954L143.771 609.541L78.0299 591.193L42.866 578.349Z" fill="#89A828"/>
<path d="M116.825 702.832L122.921 754.317L127.879 798.912H1.01587L0 722.048L19.8095 684.704L73.1429 567.958L93.9683 523L102.603 589.712L109.714 645.547L116.825 702.832Z" fill="#2D3809"/>
<path d="M245.333 653.886L200.127 798.912H283.429L245.333 653.886Z" fill="#2D3809"/>
<path d="M349.46 611.829L304.254 798.912H416L349.46 611.829Z" fill="#2D3809"/>
<defs>
<linearGradient id="paint0_linear" x1="356" y1="0" x2="356" y2="800" gradientUnits="userSpaceOnUse">
<stop stop-color="#F79130"/>
<stop offset="0.71875" stop-color="white"/>
</linearGradient>
</defs>
</svg>
