<svg width="1090" height="900" viewBox="0 0 1090 900" fill="none" xmlns="http://www.w3.org/2000/svg">
<rect width="1090" height="901" fill="url(#paint0_linear)"/>
<path d="M1089 538L1016.78 567.223C956.956 591.433 891.817 599.501 827.89 590.619C757.29 580.809 685.359 591.692 620.82 621.946L600 631.706L683.37 725.412L925.466 736L1089 631.706V538Z" fill="#E79D56"/>
<path d="M633.459 651.29L526.224 585.28C344.05 473.14 105.428 530.414 -6 713.024V911H1089V627.873L1037.39 656.726C911.424 727.139 757.48 725.067 633.459 651.29Z" fill="#A2BA57"/>
<ellipse cx="28.0786" cy="707.433" rx="81.0786" ry="81.5098" fill="#0B0E4F"/>
<ellipse cx="5.2213" cy="804.468" rx="58.2213" ry="58.6526" fill="#0B0E4F"/>
<circle cx="34.1164" cy="899.347" r="58.6526" fill="#0B0E4F"/>
<circle cx="93.2002" cy="912.717" r="45.2832" fill="#0B0E4F"/>
<circle cx="177.729" cy="857.514" r="68.5718" fill="#0B0E4F"/>
<circle cx="260.964" cy="869.158" r="56.9275" fill="#0B0E4F"/>
<circle cx="326.948" cy="910.129" r="35.7953" fill="#0B0E4F"/>
<ellipse cx="377.406" cy="897.191" rx="42.2644" ry="42.6956" fill="#0B0E4F"/>
<path d="M76.6579 299.884L41.9138 291.907C20.6878 287.033 18.6584 257.597 39.0149 249.856L49.0884 256.702C34.3573 259.141 33.0826 279.829 47.4028 284.058L86.7314 295.671L76.6579 299.884Z" fill="#0B0E4F"/>
<path d="M178.375 495.327V909.698H194.306L187.403 335.749V267.13L278.351 254.609C292.197 252.703 305.346 247.365 316.603 239.081L332.896 227.09C344.56 218.507 359.66 216.109 373.409 220.657L384.249 224.243C398.743 229.039 414.58 222.644 421.681 209.129C431.418 190.598 420.511 167.924 399.956 163.964L389.344 161.92C387.124 161.492 384.944 160.873 382.83 160.07L355.208 149.575L305.079 127.101C288.066 119.474 269.632 115.531 250.987 115.531H236.704C220.807 115.531 205.243 120.078 191.846 128.635L185.86 132.459C158.148 150.16 122.073 147.415 97.3587 125.724L96.0372 124.564C87.691 117.239 77.6532 112.106 66.8284 109.628C42.6707 104.096 17.4343 112.369 1.23826 131.127L-6.42285 140V174.75C-6.42285 226.714 31.4017 270.946 82.7357 279.012C95.4103 281.004 108.342 280.667 120.896 278.02L172.534 267.13L178.375 481.497L153.025 472.96C131.364 465.665 116.776 445.359 116.776 422.502V376.695C116.776 372.589 113.447 369.26 109.341 369.26C105.235 369.26 101.907 372.589 101.907 376.695V428.271C101.907 454.209 118.844 477.106 143.647 484.698L178.375 495.327Z" fill="#0B0E4F"/>
<circle cx="74.6555" cy="330.935" r="40.5393" fill="#0B0E4F"/>
<circle cx="111.313" cy="354.655" r="27.1699" fill="#0B0E4F"/>
<path d="M944.094 910.559V-45.9957H1040.7V910.559H944.094Z" fill="#0B0E4F"/>
<circle cx="924.687" cy="299.451" r="81.5098" fill="#0B0E4F"/>
<circle cx="951.425" cy="416.756" r="45.2832" fill="#0B0E4F"/>
<path d="M614.045 27.2505H545.524C500.468 27.2505 461.12 -3.23103 449.859 -46.8564H1071.34C1079.66 -46.8564 1086.41 -40.1062 1086.41 -31.7794C1086.41 -24.9503 1081.82 -18.9739 1075.22 -17.2125L1028.5 -4.73812L980.018 1.60637C956.202 4.72332 934.465 16.7873 919.221 35.3487C904.076 53.7893 882.518 65.8213 858.872 69.0312L759.198 82.5622C731.564 86.3136 703.871 76.0927 685.299 55.2877C669.377 37.4497 646.601 27.2505 622.69 27.2505H614.045Z" fill="#0B0E4F"/>
<defs>
<linearGradient id="paint0_linear" x1="545" y1="0" x2="545" y2="901" gradientUnits="userSpaceOnUse">
<stop stop-color="#5ABCE6"/>
<stop offset="0.760417" stop-color="white"/>
</linearGradient>
</defs>
</svg>
