<svg width="1271" height="1050" viewBox="0 0 1271 1050" fill="none" xmlns="http://www.w3.org/2000/svg">
<rect width="1270" height="1050" fill="url(#paint0_linear)"/>
<path d="M213.86 544.446H119.454L-1.27675 541.245V587L39.572 583.072L90.4059 579.799L131.255 576.525L179.365 573.906L224.753 571.942L306.45 568.669L336.406 568.014H506.155L592.391 570.633L700.413 573.906L775.756 577.835L857.454 583.727L867.439 581.108L1048.99 541.173L1226 498.619H1195.14L1087.11 496H944.598L822.959 505.165L658.657 517.604L478.015 535.281L351.838 544.446H213.86Z" fill="#0651B3"/>
<path d="M29.8914 683.767L-1 681.152V857L13.5371 855.693L86.2229 851.117L162.543 847.194L243.406 841.311L258.851 838.696L297.92 837.389L335.171 835.428L383.326 832.159L431.48 827.583L460.554 825.622L486.903 824.314L515.069 823.007L545.96 820.392L585.029 817.124L617.737 814.509L655.897 812.548L708.594 807.972L747.663 806.664H763.109L764.926 805.357L778.554 783.784L804.903 745.869L825.8 716.452L835.794 699.456L843.063 690.304L848.514 679.191H850.331L895.76 681.806L961.177 683.113L1007.51 684.421L1068.39 683.113L1105.64 681.806L1115.63 693.572L1150.16 743.254L1176.51 778.555L1271 775.286V487L1242.83 493.537L1157.43 515.11L1056.58 539.297L969.354 558.254L858.509 583.095L801.269 597.477L738.577 608.59L659.531 628.201L602.291 638.661L550.503 646.505L490.537 659.579L430.571 668.731L361.52 679.191L301.554 683.767L232.503 689.65L161.634 688.996L80.7714 687.689L29.8914 683.767Z" fill="#357FE0"/>
<path d="M-1 687.824L-1 585.471L9.95873 584.059L26.3968 582.647L34.6159 581.941L50.1407 580.529L71.145 579.118L98.5418 577L143.29 573.471L178.906 571.353L200.823 570.647L222.741 569.235L251.964 568.529L293.972 566.412L328.675 565H349.679H402.647H470.225H516.8L559.722 566.412L599.904 567.824L657.437 569.941L707.665 571.353L750.586 574.176L782.549 575.588L810.859 577.706L836.43 579.824L862 581.941L847.388 586.176L821.818 593.235L790.768 600.294L762.458 605.941L741.454 609.471L704.925 619.353L680.268 625.706L662.003 630.647L625.474 637.706L608.123 641.235L587.119 644.765L567.028 648.294L547.85 651.824L521.366 658.176L493.969 664.529L480.271 666.647L441.915 673L415.432 677.235L386.208 682.176L365.204 685.706L355.159 686.412L325.022 688.529L277.534 692.765L233.699 697L131.418 695.588L81.1905 694.882L64.7524 693.471L-1 687.824Z" fill="#1A6AD3"/>
<path d="M-1 1049.35L-1 855.754L11.72 854.445L36.2514 853.137L87.1314 849.867L128.017 847.905L176.171 844.635L213.423 842.673L243.406 840.057L263.394 837.441L311.549 835.479L347.891 833.517L376.057 830.9L396.954 829.592L426.937 826.976L455.103 825.014L503.257 822.398L535.966 819.782L577.76 816.512L609.56 813.896L668.617 809.972L724.04 806.047L763.109 805.393L760.383 809.972L752.206 820.436L741.303 830.9L737.669 835.479H740.394L761.291 833.517L772.194 832.209V834.171L769.469 840.057L772.194 840.711L784.006 842.673L823.074 849.213L863.051 855.1L907.571 861.64L922.109 862.948L941.189 862.294L982.074 856.408L1057.49 845.943L1083.83 842.019L1120.18 836.787L1185.59 830.246L1223.75 826.976L1221.94 825.014L1191.95 796.891L1176.51 777.27L1271 774V1050L-1 1049.35Z" fill="#ADCA52"/>
<path d="M818.514 824.351L792 827L842.286 725L856 752.156L853.257 807.13L830.4 811.766L822.171 817.065L818.514 824.351Z" fill="#EAA93C"/>
<path d="M871.167 802.704L862 804V758L884 802.704H871.167Z" fill="#EAA93C"/>
<path d="M744.551 826.015L733.793 836.332L732.814 837.02L734.774 837.018L770.039 834.235L845.26 717.358L836.409 699.502L833.475 702.253L815.886 727.005L781.683 773.76L761.165 804.012L744.551 826.015Z" fill="#87B2EB"/>
<path d="M1211.46 812.807L1229.2 827.334L1189.03 830.616L1123.64 836.528L1074.13 844.426L994.731 854.951L959.233 860.215L943.353 862.188L918.132 863.497L905.991 862.172L905.058 860.851L885.484 812.667L860.308 761.839L830.462 709.691L826.733 701.769L837.019 687.255L842.633 676.698L894.003 679.36L951.912 680.705L1026.63 681.397L1067.73 680.755L1101.36 679.45L1107.9 679.453L1146.15 729.625L1170.41 763.953L1189.07 791.679L1211.46 812.807Z" fill="#87B2EB"/>
<path d="M806.19 777.222L840.823 722L842.646 725.287L820.772 769.333L802.544 806.806L792.519 825.213V828.5L795.253 829.815L823.506 833.102L861.785 837.046L888.215 841.648H900.975L902.797 848.88L911 864L767 840.333L770.646 832.444L784.316 810.75L806.19 777.222Z" fill="#5181BF"/>
<path d="M818.788 822.7L792 825.5V826.2V829L796.619 829.7L837.263 835.3L862.203 837.4L888.992 843L901 842.3L884.373 801L866.822 801.7L852.966 804.5L830.797 809.4L822.483 815.7L818.788 822.7Z" fill="#295289"/>
<defs>
<linearGradient id="paint0_linear" x1="635" y1="0" x2="635" y2="1050" gradientUnits="userSpaceOnUse">
<stop stop-color="#F79130"/>
<stop offset="0.536458" stop-color="white"/>
</linearGradient>
</defs>
</svg>
