<svg width="1270" height="1050" viewBox="0 0 1270 1050" fill="none" xmlns="http://www.w3.org/2000/svg">
<rect x="-7" width="1277" height="1050" fill="url(#paint0_linear)"/>
<path d="M50.6499 467L38 513.75L82.2746 539.188V489.688L65.1069 526.812L50.6499 467Z" fill="#531C5F"/>
<path d="M198.834 590.75V539.188L223.972 582.658L228.652 581.151V543.312L245.82 575.625L228.652 590.75L223.972 582.658L198.834 590.75Z" fill="#531C5F"/>
<path d="M350.633 543.312L334.369 583.875L356.055 596.25L350.633 543.312Z" fill="#531C5F"/>
<path d="M384.969 563.25L375.029 596.25L389.486 606.562L384.969 563.25Z" fill="#531C5F"/>
<path d="M418.4 596.25L412.979 616.188L422.015 617.562L418.4 596.25Z" fill="#531C5F"/>
<path d="M438.279 575.625L431.05 621L443.7 632L438.279 575.625Z" fill="#531C5F"/>
<path d="M469 603.125L453.639 632H469V603.125Z" fill="#531C5F"/>
<path d="M175.16 981.789L-7 969V1050H191L175.16 981.789Z" fill="#B151B7"/>
<path d="M206.801 582.482L180.381 592.217L99.3008 553.277L42.8178 517.814L0 490V992.742L99.3008 999H188.581V976.053L180.381 921.12L174.004 882.18L147.585 826.552L193.136 837.678L240.508 842.545L264.195 852.28L294.258 878.704L339.809 914.167L382.627 941.981L416.335 947.544L528.39 894.697L588.517 846.022L637.712 826.552L645 811.949L604.004 791.784L564.831 763.97L509.258 741.719L457.331 718.772L416.335 695.13L372.606 650.627L311.568 592.217L270.572 553.277L240.508 567.88L206.801 582.482Z" fill="#B151B7"/>
<path d="M600.598 571.351L488 645.26L553.757 674.679L638.432 707.687L765.443 745L1060 571.351L868.132 463L661.852 602.206L600.598 571.351Z" fill="#B151B7" fill-opacity="0.87"/>
<path d="M168.716 978.129L182.348 1050H297.764L338.659 985.88L405 948.535L372.284 918.237L319.574 884.415L290.493 868.914L252.324 833.683L222.334 830.16L168.716 827.342L136 821L139.635 830.16L155.993 875.255L161.446 911.895L168.716 978.129Z" fill="#DB81E0"/>
<path d="M62.7462 523.222L0 489V560.937L28.1903 575.603L58.1994 609.825L88.2085 648.937L125.492 683.857L162.776 702.016L215.52 720.175L268.263 741.825L301 753L296.453 746.714L246.438 690.143L210.973 641.254L182.782 590.968L142.77 563.73L117.308 549.762L62.7462 523.222Z" fill="#DB81E0"/>
<path d="M301.23 584.135L271 554L330.544 572.221L388.255 598.852L484.442 635.995L546.734 664.027L631.011 690.658L723.533 719.391L773 740.415L638.339 814L621.85 803.488L554.978 769.849L511.007 747.423L450.547 719.391L405.661 690.658L353.445 635.995L301.23 584.135Z" fill="#DB81E0"/>
<path d="M542.118 743.218L504 890L612.002 829.19L598.388 762.09L564.808 855.052L542.118 743.218Z" fill="#531C5F"/>
<path d="M689.145 691.495L664.641 799.834L709.112 774.671L689.145 691.495Z" fill="#531C5F"/>
<path d="M1014.97 490.194L983.2 618.104L1034.02 587.349L1014.97 490.194Z" fill="#531C5F"/>
<path d="M1087.57 486L1070.33 568.478L1103 548.907L1087.57 486Z" fill="#531C5F"/>
<path d="M353.421 974.374L230 1053L1270 1050.86V439L1233.7 462.588L1009.55 594.108L857.993 681.312L651.99 804.255L500.436 890.029L353.421 974.374Z" fill="#863098"/>
<defs>
<linearGradient id="paint0_linear" x1="631.5" y1="0" x2="631.5" y2="1050" gradientUnits="userSpaceOnUse">
<stop stop-color="#45BEF2"/>
<stop offset="0.567708" stop-color="white"/>
</linearGradient>
</defs>
</svg>
