<svg width="1039" height="768" viewBox="0 0 1039 768" fill="none" xmlns="http://www.w3.org/2000/svg">
<rect width="1039" height="768" fill="url(#paint0_linear)"/>
<path d="M461.219 543.454L478 565L360.534 555.164L275.288 543.454L130.301 509.73L86 494.273L132.986 481.158L194.74 465.701L226.288 459.144L351.137 430.103L402.822 414.647L438.397 402L431.685 424.951V444.155V465.701V484.437L445.11 513.477L461.219 543.454Z" fill="#ADCA52"/>
<path d="M61.9708 480.777L-5 457V768H1039V633.424L1031.56 629.144L957.891 610.122L861.9 595.856L769.629 584.443L668.428 573.031L563.508 569.226L434.775 557.813L312.739 541.17L209.306 521.197L113.315 497.42L61.9708 480.777Z" fill="#89A828"/>
<path d="M43.6829 390.444L-13 398.531V457.517L36.1707 479.875L85.3415 497L148.854 479.875L202.805 468.934L239 457.517L211.683 422.316L197.341 394.726L188.463 360L148.854 369.99L98.3171 383.309L43.6829 390.444Z" fill="#ADCA52"/>
<path d="M236.089 381.626L190 360L193.34 386.432L200.687 405.655L220.058 437.854L236.089 459L257.463 456.117L304.22 443.141L351.645 430.165L363 426.801L286.185 405.655L236.089 381.626Z" fill="#CBEA69"/>
<path d="M499.193 429.515L436.024 404L427 416.758V445.58V486.216L444.228 521.654L481.145 569.849L545.134 574.102L670.651 579.299L815.038 594.42L957.783 613.792L1039 636V521.654L1013.57 518.346L871.643 504.644L793.708 497.556L686.239 479.128L596.818 455.976L499.193 429.515Z" fill="#CBEA69"/>
<path d="M156.422 644.314L164.584 711.969L171.223 770.571H1.3602L0 669.565L26.5238 620.492L97.9341 467.079L125.818 408L137.38 495.665L146.901 569.037L156.422 644.314Z" fill="#2D3809"/>
<path d="M328.487 579.995L267.958 770.571H379.495L328.487 579.995Z" fill="#2D3809"/>
<path d="M467.907 524.728L407.379 770.571H557L467.907 524.728Z" fill="#2D3809"/>
<defs>
<linearGradient id="paint0_linear" x1="519.5" y1="0" x2="519.5" y2="768" gradientUnits="userSpaceOnUse">
<stop stop-color="#F79130"/>
<stop offset="0.666667" stop-color="white"/>
</linearGradient>
</defs>
</svg>
