<svg width="1091" height="900" viewBox="0 0 1091 900" fill="none" xmlns="http://www.w3.org/2000/svg">
<rect x="-6" y="1" width="1096" height="905" fill="url(#paint0_linear)"/>
<path d="M90.7879 682.84L0 673.327V819.291H522.896L380.545 758.273C288.292 718.73 190.612 693.301 90.7879 682.84Z" fill="#357FE0"/>
<path d="M438.054 666.52L208.644 713.961V822.726H1090.44V703.402C1051.18 721.976 1007.22 728.262 964.331 721.438L891.193 709.803C864.892 705.618 837.945 708.848 813.378 719.128C776.97 734.364 735.889 733.905 699.83 717.86L631.239 687.341C570.607 660.362 503.041 653.08 438.054 666.52Z" fill="#357FE0"/>
<rect x="227.532" y="-2.40186" width="67.8305" height="833.714" fill="#03295B"/>
<rect x="288.494" y="202.806" width="91.8717" height="13.7378" fill="#03295B"/>
<rect x="278.19" y="346.197" width="52.3755" height="13.7378" fill="#03295B"/>
<rect x="188.036" y="280.942" width="51.5169" height="13.7378" fill="#03295B"/>
<rect x="368.345" y="147.856" width="12.0206" height="62.6788" fill="#03295B"/>
<rect x="344.304" y="97.1987" width="106.468" height="57.5272" fill="#03295B"/>
<rect x="52.375" y="-2.40186" width="349.456" height="26.617" fill="#03295B"/>
<path d="M216.435 809.936L198 819H398L388.957 809.936H398L388.957 798.431L398 791.459L382.348 783.092L379.217 774.725L367.739 780.303L354.174 774.725V785.532L340.609 780.303V791.459L330.522 785.532L336.783 764.266L315.565 769.495V752.064L293.652 759.037L283.565 743L270 759.037L251.217 748.229L246.696 769.495H220.957L226.87 791.459H205.652L216.435 809.936Z" fill="#CBEA69"/>
<path d="M631 793.8L654.142 819H763.014L783 805.35L756.702 793.8L768.273 781.2L740.924 778.05L736.716 762.3L714.1 772.8L704.633 756L692.01 781.2L670.972 772.8V793.8H631Z" fill="#CBEA69"/>
<rect x="854.321" y="24.2129" width="93.589" height="832.856" fill="#03295B"/>
<rect x="944.477" y="317.001" width="51.5169" height="13.7378" fill="#03295B"/>
<rect x="824.271" y="216.544" width="91.8717" height="13.7378" fill="#03295B"/>
<rect x="989.982" y="268.917" width="12.0206" height="61.8202" fill="#03295B"/>
<rect x="817.401" y="168.46" width="12.0206" height="61.8202" fill="#03295B"/>
<rect x="977.104" y="243.159" width="71.265" height="37.779" fill="#03295B"/>
<rect x="733.257" y="125.53" width="106.468" height="57.5272" fill="#03295B"/>
<rect x="398.397" y="-16.1396" width="428.448" height="54.0927" fill="#03295B"/>
<rect x="609.616" y="-17" width="429.307" height="82.427" fill="#03295B"/>
<rect x="664.568" y="-1.54541" width="425.873" height="26.617" fill="#03295B"/>
<path d="M880 795.772L902.785 821H1075L1053.27 807.86L1068.64 792.619L1045.33 784.735L1061.75 767.916L1033.14 757.93V741.112L1013 748.995V708L976.97 748.995L970.611 734.279L960.014 754.251L935.109 725.87V773.698L898.016 757.93L909.144 799.451L880 795.772Z" fill="#CBEA69"/>
<rect y="819" width="1090" height="81" fill="#89A828"/>
<rect x="74.1133" y="1" width="65.7773" height="818" fill="#03295B"/>
<rect x="37.8516" y="176.406" width="50.5979" height="13.4928" fill="#03295B"/>
<rect x="33.6348" y="128.338" width="10.9629" height="61.5608" fill="#03295B"/>
<rect x="-6" y="91.2329" width="69.1505" height="37.1052" fill="#03295B"/>
<defs>
<linearGradient id="paint0_linear" x1="542" y1="1" x2="542" y2="906" gradientUnits="userSpaceOnUse">
<stop stop-color="#F79130"/>
<stop offset="1" stop-color="white"/>
</linearGradient>
</defs>
</svg>
