<svg width="1090" height="900" viewBox="0 0 1090 900" fill="none" xmlns="http://www.w3.org/2000/svg">
<rect x="-5" width="1095" height="901" fill="url(#paint0_linear)"/>
<path d="M44.8302 401L34 440.95L71.9057 462.687V420.387L57.2075 452.112L44.8302 401Z" fill="#531C5F"/>
<path d="M171.698 506.75V462.687L193.22 499.835L197.226 498.548V466.212L211.925 493.825L197.226 506.75L193.22 499.835L171.698 506.75Z" fill="#531C5F"/>
<path d="M301.66 466.212L287.736 500.875L306.302 511.45L301.66 466.212Z" fill="#531C5F"/>
<path d="M331.057 483.25L322.547 511.45L334.925 520.262L331.057 483.25Z" fill="#531C5F"/>
<path d="M359.679 511.45L355.038 528.487L362.774 529.662L359.679 511.45Z" fill="#531C5F"/>
<path d="M376.698 493.825L370.509 532.6L381.34 542L376.698 493.825Z" fill="#531C5F"/>
<path d="M403 517.325L389.849 542H403V517.325Z" fill="#531C5F"/>
<path d="M151.218 842.209L-5 831.241V900.705H164.802L151.218 842.209Z" fill="#B151B7"/>
<path d="M178.352 499.767L155.695 508.116L86.1619 474.722L37.7228 444.309L1.00293 420.456V851.6L86.1619 856.967H162.727V837.288L155.695 790.178L150.226 756.784L127.569 709.078L166.633 718.619L207.259 722.793L227.573 731.142L253.355 753.802L292.418 784.215L329.138 808.068L358.045 812.839L454.142 767.518L505.706 725.775L547.895 709.078L554.145 696.555L518.988 679.261L485.393 655.408L437.735 636.326L393.203 616.647L358.045 596.372L320.544 558.207L268.199 508.116L233.042 474.722L207.259 487.244L178.352 499.767Z" fill="#B151B7"/>
<path d="M515.85 490.598L419 553.761L475.561 578.903L548.392 607.112L657.639 639L911 490.598L745.967 398L568.537 516.967L515.85 490.598Z" fill="#B151B7" fill-opacity="0.87"/>
<path d="M145.973 838.486L157.628 900H256.311L291.277 845.12L348 813.157L320.027 787.225L274.959 758.277L250.095 745.009L217.459 714.855L191.818 711.84L145.973 709.428L118 704L121.108 711.84L135.095 750.437L139.757 781.797L145.973 838.486Z" fill="#DB81E0"/>
<path d="M54.7825 449.296L1 420V481.582L25.1631 494.138L50.8852 523.434L76.6073 556.915L108.565 586.81L140.523 602.354L185.731 617.899L230.94 636.434L259 646L255.103 640.619L212.233 592.19L181.834 550.339L157.671 507.291L123.375 483.974L101.55 472.016L54.7825 449.296Z" fill="#DB81E0"/>
<path d="M259.015 501.73L233 476L284.241 491.558L333.905 514.296L416.679 546.011L470.285 569.946L542.81 592.685L622.431 617.218L665 635.17L549.117 698L534.927 689.024L477.38 660.302L439.54 641.154L387.511 617.218L348.883 592.685L303.949 546.011L259.015 501.73Z" fill="#DB81E0"/>
<path d="M464.836 637.927L432 764L525.036 711.77L513.309 654.137L484.382 733.983L464.836 637.927Z" fill="#531C5F"/>
<path d="M591.491 593.502L570.382 686.555L608.691 664.943L591.491 593.502Z" fill="#531C5F"/>
<path d="M872.164 420.602L844.8 530.465L888.582 504.05L872.164 420.602Z" fill="#531C5F"/>
<path d="M934.709 417L919.855 487.841L948 471.031L934.709 417Z" fill="#531C5F"/>
<path d="M303.857 835.643L198 903L1090 901.163V377L1058.87 397.207L866.611 509.878L736.625 584.583L559.937 689.906L429.951 763.386L303.857 835.643Z" fill="#863098"/>
<defs>
<linearGradient id="paint0_linear" x1="542.5" y1="0" x2="542.5" y2="901" gradientUnits="userSpaceOnUse">
<stop stop-color="#45BEF2"/>
<stop offset="0.567708" stop-color="white"/>
</linearGradient>
</defs>
</svg>
