<svg width="320" height="291" viewBox="0 0 320 291" fill="none" xmlns="http://www.w3.org/2000/svg">
<rect x="-2" width="322" height="289" fill="url(#paint0_linear)"/>
<path d="M13.2285 143L10 154.9L21.2998 161.375V148.775L16.9182 158.225L13.2285 143Z" fill="#531C5F"/>
<path d="M51.0482 174.5V161.375L57.464 172.44L58.6583 172.057V162.425L63.0398 170.65L58.6583 174.5L57.464 172.44L51.0482 174.5Z" fill="#531C5F"/>
<path d="M89.7904 162.425L85.6394 172.75L91.174 175.9L89.7904 162.425Z" fill="#531C5F"/>
<path d="M98.5535 167.5L96.0168 175.9L99.7065 178.525L98.5535 167.5Z" fill="#531C5F"/>
<path d="M107.086 175.9L105.702 180.975L108.008 181.325L107.086 175.9Z" fill="#531C5F"/>
<path d="M112.159 170.65L110.314 182.2L113.543 185L112.159 170.65Z" fill="#531C5F"/>
<path d="M120 177.65L116.08 185H120V177.65Z" fill="#531C5F"/>
<path d="M42.7898 274.678L-2 271.617V291H46.6846L42.7898 274.678Z" fill="#B151B7"/>
<path d="M51.3738 172.646L44.5551 175.122L23.6288 165.217L9.05097 156.196L-2 149.121V277.003L23.6288 278.595H46.6713V272.758L44.5551 258.785L42.9092 248.88L36.0906 234.73L47.8469 237.56L60.0735 238.798L66.1868 241.274L73.946 247.996L85.7023 257.016L96.7533 264.091L105.453 265.506L134.374 252.064L149.892 239.682L162.589 234.73L164.47 231.015L153.889 225.886L143.779 218.811L129.436 213.151L116.034 207.314L105.453 201.3L94.1669 189.98L78.4134 175.122L67.8327 165.217L60.0735 168.931L51.3738 172.646Z" fill="#B151B7"/>
<path d="M152.74 169.664L124 188.534L140.784 196.046L162.397 204.473L194.816 214L270 169.664L221.027 142L168.375 177.542L152.74 169.664Z" fill="#B151B7" fill-opacity="0.87"/>
<path d="M40.7568 272.797L44.4054 291H75.2973L86.2432 274.76L104 265.302L95.2432 257.628L81.1351 249.062L73.3514 245.135L63.1351 236.212L55.1081 235.32L40.7568 234.606L32 233L32.973 235.32L37.3514 246.742L38.8108 256.022L40.7568 272.797Z" fill="#DB81E0"/>
<path d="M14.4683 157.556L-2 149V166.984L5.39879 170.651L13.2749 179.206L21.1511 188.984L30.9366 197.714L40.7221 202.254L54.565 206.794L68.4079 212.206L77 215L75.8066 213.429L62.6798 199.286L53.3716 187.063L45.9728 174.492L35.4713 167.683L28.7885 164.19L14.4683 157.556Z" fill="#DB81E0"/>
<path d="M74.8285 172.65L67 165L82.4197 169.625L97.365 176.385L122.274 185.814L138.405 192.93L160.23 199.69L184.19 206.984L197 212.321L162.128 231L157.858 228.332L140.54 219.792L129.153 214.1L113.496 206.984L101.872 199.69L88.3504 185.814L74.8285 172.65Z" fill="#DB81E0"/>
<path d="M138.673 213.578L129 251L156.406 235.497L152.952 218.389L144.43 242.09L138.673 213.578Z" fill="#531C5F"/>
<path d="M175.982 200.391L169.764 228.012L181.048 221.597L175.982 200.391Z" fill="#531C5F"/>
<path d="M258.661 149.069L250.6 181.68L263.497 173.839L258.661 149.069Z" fill="#531C5F"/>
<path d="M277.085 148L272.709 169.028L281 164.038L277.085 148Z" fill="#531C5F"/>
<path d="M90.0925 271.151L59 291L321 290.459V136L311.855 141.955L255.386 175.156L217.206 197.17L165.309 228.206L127.129 249.859L90.0925 271.151Z" fill="#863098"/>
<defs>
<linearGradient id="paint0_linear" x1="159" y1="0" x2="159" y2="289" gradientUnits="userSpaceOnUse">
<stop stop-color="#45BEF2"/>
<stop offset="0.661458" stop-color="white"/>
</linearGradient>
</defs>
</svg>
