<svg width="768" height="758" viewBox="0 0 768 758" fill="none" xmlns="http://www.w3.org/2000/svg">
<rect width="771" height="758" fill="url(#paint0_linear)"/>
<rect x="58.2471" y="2" width="47.4607" height="671.866" fill="#03295B"/>
<rect x="34.5166" y="225.64" width="36.6742" height="7.58099" fill="#03295B"/>
<rect x="31.2808" y="195.317" width="8.62921" height="37.905" fill="#03295B"/>
<rect x="3.23584" y="170.677" width="49.618" height="24.6382" fill="#03295B"/>
<path d="M20.8283 574.627L0 572.472V673.865H367.82L307.704 648.419C216.272 609.716 119.587 584.846 20.8283 574.627Z" fill="#357FE0"/>
<path d="M308.305 566.605L146.697 600.159V677.101H768V592.689C740.342 605.826 709.352 610.273 679.115 605.444L627.625 597.219C609.088 594.259 590.093 596.543 572.787 603.814C547.141 614.589 518.179 614.264 492.781 602.918L444.449 581.326C401.739 562.246 354.106 557.095 308.305 566.605Z" fill="#357FE0"/>
<rect x="159.641" y="15.8081" width="48.5393" height="666.689" fill="#03295B"/>
<rect x="200.629" y="195.264" width="64.7191" height="8.36848" fill="#03295B"/>
<rect x="193.079" y="281.74" width="37.7528" height="8.36848" fill="#03295B"/>
<rect x="128.36" y="330.092" width="36.6742" height="8.36848" fill="#03295B"/>
<rect x="256.719" y="162.723" width="8.62921" height="37.1932" fill="#03295B"/>
<rect x="239.461" y="132.035" width="74.427" height="34.4037" fill="#03295B"/>
<rect x="37.7529" width="245.933" height="15.8071" fill="#03295B"/>
<path d="M443 656.4L459.291 674H535.931L550 664.467L531.488 656.4L539.633 647.6L520.381 645.4L517.419 634.4L501.498 641.733L494.834 630L485.948 647.6L471.138 641.733V656.4H443Z" fill="#CBEA69"/>
<path d="M619 656.363L635.008 674H756L740.736 664.814L751.533 654.158L735.152 648.647L746.693 636.888L726.59 629.907V618.149L712.443 623.66V595L687.128 623.66L682.66 613.372L675.215 627.335L657.717 607.493V640.93L631.658 629.907L639.476 658.935L619 656.363Z" fill="#CBEA69"/>
<path d="M151.904 667.679L139 674H279L272.67 667.679H279L272.67 659.656L279 654.794L268.043 648.959L265.852 643.124L257.817 647.014L248.322 643.124V650.661L238.826 647.014V654.794L231.765 650.661L236.148 635.83L221.296 639.477V627.321L205.957 632.183L198.896 621L189.4 632.183L176.252 624.647L173.087 639.477H155.07L159.209 654.794H144.357L151.904 667.679Z" fill="#CBEA69"/>
<rect x="599.73" y="34.4248" width="66.8764" height="667.483" fill="#03295B"/>
<rect x="666.606" y="355.009" width="35.5955" height="8.46106" fill="#03295B"/>
<rect x="568.449" y="213.99" width="64.7191" height="8.46106" fill="#03295B"/>
<rect x="697.887" y="323.98" width="7.55056" height="39.4849" fill="#03295B"/>
<rect x="564.135" y="184.844" width="7.55056" height="37.6047" fill="#03295B"/>
<rect x="689.258" y="308.939" width="48.5393" height="24.4431" fill="#03295B"/>
<rect x="504.809" y="158.523" width="74.427" height="34.7843" fill="#03295B"/>
<rect x="280.449" y="-5.0625" width="302.022" height="32.9041" fill="#03295B"/>
<rect x="429.303" y="-6" width="300.944" height="49.8262" fill="#03295B"/>
<rect x="467.056" y="-4.12061" width="300.944" height="15.982" fill="#03295B"/>
<rect x="1" y="674" width="767" height="84" fill="#89A828"/>
<defs>
<linearGradient id="paint0_linear" x1="385.5" y1="0" x2="385.5" y2="758" gradientUnits="userSpaceOnUse">
<stop stop-color="#F79130"/>
<stop offset="1" stop-color="white"/>
</linearGradient>
</defs>
</svg>
