<svg width="971" height="800" viewBox="0 0 971 800" fill="none" xmlns="http://www.w3.org/2000/svg">
<rect y="-1" width="969" height="801" fill="url(#paint0_linear)"/>
<path d="M970.638 473L906.099 499.125C852.635 520.766 794.423 527.978 737.294 520.038C674.202 511.269 609.921 520.997 552.248 548.04L533.638 556.767L608.143 640.535L824.493 650L970.638 556.767V473Z" fill="#E79D56"/>
<path d="M563.355 574.274L467.208 515.209C304.396 415.191 91.3149 466.335 -8.3623 629.356V806H970.638V553.38L924.483 579.129C811.84 641.969 674.267 640.12 563.355 574.274Z" fill="#A2BA57"/>
<ellipse cx="22.4899" cy="624.614" rx="72.4899" ry="72.8755" fill="#0B0E4F"/>
<ellipse cx="2.05389" cy="711.369" rx="52.0539" ry="52.4395" fill="#0B0E4F"/>
<circle cx="27.8882" cy="796.2" r="52.4395" fill="#0B0E4F"/>
<circle cx="80.7129" cy="808.152" r="40.4864" fill="#0B0E4F"/>
<circle cx="156.287" cy="758.797" r="61.3079" fill="#0B0E4F"/>
<circle cx="230.705" cy="769.205" r="50.8971" fill="#0B0E4F"/>
<circle cx="289.7" cy="805.84" r="32.0035" fill="#0B0E4F"/>
<ellipse cx="334.813" cy="794.273" rx="37.7873" ry="38.1729" fill="#0B0E4F"/>
<path d="M65.923 260.237L34.8593 253.105C15.8818 248.747 14.0674 222.429 32.2675 215.509L41.2739 221.629C28.1033 223.81 26.9636 242.306 39.7669 246.087L74.9294 256.47L65.923 260.237Z" fill="#0B0E4F"/>
<path d="M156.865 434.978V805.454H171.109L164.936 292.304V230.954L246.251 219.759C258.63 218.055 270.386 213.282 280.451 205.876L295.018 195.155C305.446 187.481 318.947 185.337 331.24 189.404L340.931 192.61C353.89 196.897 368.049 191.18 374.398 179.097C383.103 162.528 373.352 142.256 354.974 138.716L345.486 136.888C343.501 136.506 341.553 135.953 339.663 135.235L314.966 125.851L270.147 105.758C254.936 98.9392 238.455 95.4139 221.786 95.4139H209.015C194.803 95.4139 180.887 99.4791 168.909 107.13L163.557 110.549C138.781 126.375 106.527 123.92 84.431 104.527L83.2495 103.49C75.7874 96.9407 66.8129 92.3513 57.1348 90.1355C35.5361 85.1903 12.973 92.5861 -1.50735 109.357L-8.35693 117.291V148.36C-8.35693 194.819 25.4608 234.365 71.357 241.577C82.689 243.358 94.2507 243.057 105.475 240.69L151.643 230.954L156.865 422.613L134.2 414.98C114.834 408.457 101.791 390.302 101.791 369.867V328.912C101.791 325.241 98.8153 322.265 95.1443 322.265C91.4734 322.265 88.4975 325.241 88.4975 328.912V375.025C88.4975 398.215 103.641 418.687 125.816 425.474L156.865 434.978Z" fill="#0B0E4F"/>
<circle cx="64.1331" cy="288.001" r="36.2449" fill="#0B0E4F"/>
<circle cx="96.9075" cy="309.207" r="24.2918" fill="#0B0E4F"/>
<ellipse cx="817.537" cy="259.848" rx="79.4581" ry="72.8755" fill="#0B0E4F"/>
<ellipse cx="843.602" cy="364.73" rx="44.1434" ry="40.4864" fill="#0B0E4F"/>
<path d="M841.471 806.226V-49H927.842V806.226H841.471Z" fill="#0B0E4F"/>
<path d="M538.794 34.2568H477.531C437.248 34.2568 402.068 7.00414 392 -32H947.643C955.087 -32 961.123 -25.9648 961.123 -18.5201C961.123 -12.4143 957.019 -7.07106 951.119 -5.49625L909.341 5.65672L865.999 11.3291C844.706 14.1159 825.271 24.902 811.642 41.4972C798.101 57.9843 778.827 68.7417 757.686 71.6117L668.57 83.7093C643.863 87.0633 619.104 77.9251 602.5 59.324C588.264 43.3755 567.901 34.2568 546.523 34.2568H538.794Z" fill="#0B0E4F"/>
<defs>
<linearGradient id="paint0_linear" x1="484.5" y1="-1" x2="484.5" y2="800" gradientUnits="userSpaceOnUse">
<stop stop-color="#5ABCE6"/>
<stop offset="0.760417" stop-color="white"/>
</linearGradient>
</defs>
</svg>
