<svg width="768" height="758" viewBox="0 0 768 758" fill="none" xmlns="http://www.w3.org/2000/svg">
<rect x="-2" y="-4" width="770" height="762" fill="url(#paint0_linear)"/>
<path d="M128.601 455.475H71.5742L-1.35498 453.329V484L23.3203 481.367L54.0273 479.173L78.7026 476.978L107.765 475.223L135.182 473.906L184.532 471.712L202.627 471.273H305.167L357.259 473.029L422.511 475.223L468.024 477.856L517.374 481.806L523.406 480.05L633.074 453.281L740 424.755H721.356L656.104 423H570.015L496.537 429.144L397.288 437.482L288.168 449.331L211.949 455.475H128.601Z" fill="#0651B3"/>
<path d="M17.6757 537.124L-1 535.541V642L7.78857 641.208L51.7314 638.438L97.8714 636.064L146.758 632.502L156.096 630.919L179.715 630.127L202.236 628.94L231.348 626.961L260.46 624.191L278.037 623.004L293.966 622.212L310.994 621.421L329.67 619.837L353.289 617.859L373.064 616.276L396.134 615.088L427.992 612.318L451.611 611.527H460.949L462.048 610.735L470.287 597.675L486.216 574.721L498.85 556.912L504.892 546.622L509.286 541.081L512.582 534.353H513.681L541.145 535.936L580.694 536.728L608.707 537.519L645.509 536.728L668.03 535.936L674.072 543.06L694.945 573.138L710.874 594.509L768 592.53V418L750.972 421.958L699.339 435.018L638.369 449.661L585.637 461.138L518.624 476.177L484.019 484.883L446.119 491.611L398.331 503.484L363.726 509.816L332.416 514.565L296.164 522.481L259.911 528.021L218.165 534.353L181.912 537.124L140.166 540.686L97.3221 540.29L48.4357 539.498L17.6757 537.124Z" fill="#357FE0"/>
<path d="M-1 539.369L-1 476.561L5.74286 475.695L15.8571 474.829L20.9143 474.396L30.4667 473.529L43.3905 472.663L60.2476 471.364L87.781 469.198L109.695 467.898L123.181 467.465L136.667 466.599L154.648 466.166L180.495 464.866L201.848 464H214.771H247.362H288.943H317.6L344.01 464.866L368.733 465.733L404.133 467.032L435.038 467.898L461.448 469.631L481.114 470.497L498.533 471.797L514.267 473.096L530 474.396L521.01 476.995L505.276 481.326L486.171 485.658L468.752 489.123L455.829 491.289L433.352 497.353L418.181 501.251L406.943 504.283L384.467 508.615L373.79 510.781L360.867 512.947L348.505 515.112L336.705 517.278L320.41 521.176L303.552 525.075L295.124 526.374L271.524 530.273L255.229 532.872L237.248 535.904L224.324 538.07L218.143 538.503L199.6 539.802L170.381 542.401L143.41 545L80.4762 544.134L49.5714 543.701L39.4571 542.834L-1 539.369Z" fill="#1A6AD3"/>
<path d="M-1 757.604L-1 640.467L6.69 639.675L21.5207 638.884L52.2807 636.905L76.9986 635.718L106.111 633.739L128.631 632.552L146.758 630.969L158.842 629.386L187.954 628.199L209.926 627.012L226.954 625.429L239.587 624.637L257.714 623.055L274.741 621.867L303.854 620.284L323.628 618.701L348.895 616.723L368.12 615.14L403.824 612.765L437.33 610.391L460.949 609.995L459.301 612.765L454.358 619.097L447.766 625.429L445.569 628.199H447.217L459.851 627.012L466.442 626.22V627.408L464.794 630.969L466.442 631.365L473.583 632.552L497.202 636.509L521.371 640.071L548.286 644.028L557.074 644.82L568.609 644.424L593.327 640.863L638.918 634.531L654.847 632.156L676.819 628.991L716.367 625.033L739.437 623.055L738.339 621.867L720.212 604.851L710.874 592.979L768 591V758L-1 757.604Z" fill="#ADCA52"/>
<path d="M493.421 623.35L477 625L508.144 561.473L516.637 578.386L514.939 612.625L500.782 615.512L495.686 618.812L493.421 623.35Z" fill="#EAA93C"/>
<path d="M526.031 609.866L520.354 610.673V582.023L533.979 609.866H526.031Z" fill="#EAA93C"/>
<path d="M449.653 622.556L443.148 628.794L442.556 629.21L443.741 629.209L465.066 627.527L510.553 556.85L505.2 546.053L503.426 547.716L492.79 562.684L472.107 590.957L459.7 609.251L449.653 622.556Z" fill="#87B2EB"/>
<path d="M731.998 614.57L742.723 623.355L718.434 625.34L678.893 628.914L648.954 633.69L600.939 640.055L579.473 643.238L569.87 644.431L554.619 645.223L547.277 644.421L546.713 643.623L534.876 614.485L519.652 583.75L501.604 552.215L499.349 547.425L505.569 538.648L508.964 532.264L540.028 533.874L575.046 534.687L620.231 535.106L645.083 534.718L665.418 533.928L669.371 533.93L692.503 564.27L707.171 585.028L718.454 601.794L731.998 614.57Z" fill="#87B2EB"/>
<path d="M486.677 592.833L507.601 559L508.703 561.014L495.487 588L484.475 610.958L478.418 622.236V624.25L480.07 625.056L497.139 627.069L520.266 629.486L536.234 632.306H543.943L545.044 636.736L550 646L463 631.5L465.203 626.667L473.462 613.375L486.677 592.833Z" fill="#5181BF"/>
<path d="M494.22 620.917L478 622.583V623V624.667L480.797 625.083L505.407 628.417L520.508 629.667L536.729 633L544 632.583L533.932 608L523.305 608.417L514.915 610.083L501.492 613L496.458 616.75L494.22 620.917Z" fill="#295289"/>
<defs>
<linearGradient id="paint0_linear" x1="383" y1="-4" x2="383" y2="758" gradientUnits="userSpaceOnUse">
<stop stop-color="#F79130"/>
<stop offset="0.65625" stop-color="white"/>
</linearGradient>
</defs>
</svg>
