<svg width="1270" height="1050" viewBox="0 0 1270 1050" fill="none" xmlns="http://www.w3.org/2000/svg">
<rect width="1270" height="1050" fill="url(#paint0_linear)"/>
<path d="M130.535 799.679L0 786V956H609L420.292 875.112C328.039 835.568 230.359 810.139 130.535 799.679Z" fill="#357FE0"/>
<path d="M510.186 778.071L243 833.325V960H1270V821.027C1224.27 842.659 1173.08 849.981 1123.12 842.033L1037.94 828.482C1007.31 823.608 975.927 827.37 947.315 839.343C904.911 857.087 857.065 856.553 815.069 837.866L735.183 802.321C664.567 770.9 585.875 762.419 510.186 778.071Z" fill="#357FE0"/>
<rect x="97" y="-14" width="78" height="970" fill="#03295B"/>
<rect x="54" y="194" width="60" height="16" fill="#03295B"/>
<rect x="49" y="137" width="13" height="73" fill="#03295B"/>
<rect x="2" y="93" width="82" height="44" fill="#03295B"/>
<rect x="265" y="-1" width="79" height="971" fill="#03295B"/>
<rect x="336" y="238" width="107" height="16" fill="#03295B"/>
<rect x="324" y="405" width="61" height="16" fill="#03295B"/>
<rect x="219" y="329" width="60" height="16" fill="#03295B"/>
<rect x="429" y="174" width="14" height="73" fill="#03295B"/>
<rect x="401" y="115" width="124" height="67" fill="#03295B"/>
<rect x="61" y="-1" width="407" height="31" fill="#03295B"/>
<path d="M252.477 945.385L231 956H464L453.464 945.385H464L453.464 931.913L464 923.748L445.765 913.95L442.118 904.151L428.746 910.683L412.943 904.151V916.807L397.139 910.683V923.748L385.388 916.807L392.682 891.904L367.963 898.028V877.615L342.435 885.78L330.683 867L314.88 885.78L292.998 873.124L287.73 898.028H257.744L264.633 923.748H239.915L252.477 945.385Z" fill="#CBEA69"/>
<path d="M734 926.4L761.1 956H888.595L912 939.967L881.204 926.4L894.754 911.6L862.727 907.9L857.799 889.4L831.315 901.733L820.228 882L805.446 911.6L780.81 901.733V926.4H734Z" fill="#CBEA69"/>
<rect x="995" y="30" width="109" height="970" fill="#03295B"/>
<rect x="1100" y="371" width="60" height="16" fill="#03295B"/>
<rect x="960" y="254" width="107" height="16" fill="#03295B"/>
<rect x="1153" y="315" width="14" height="72" fill="#03295B"/>
<rect x="952" y="198" width="14" height="72" fill="#03295B"/>
<rect x="1138" y="285" width="83" height="44" fill="#03295B"/>
<rect x="854" y="148" width="124" height="67" fill="#03295B"/>
<rect x="464" y="-17" width="499" height="63" fill="#03295B"/>
<rect x="710" y="-18" width="500" height="96" fill="#03295B"/>
<rect x="774" width="496" height="31" fill="#03295B"/>
<path d="M1025 928.53L1051.52 958H1252L1226.71 942.651L1244.6 924.847L1217.46 915.637L1236.58 895.991L1203.27 884.326V864.679L1179.83 873.888V826L1137.88 873.888L1130.48 856.698L1118.14 880.028L1089.15 846.874V902.744L1045.97 884.326L1058.93 932.828L1025 928.53Z" fill="#CBEA69"/>
<rect y="956" width="1270" height="94" fill="#89A828"/>
<defs>
<linearGradient id="paint0_linear" x1="635" y1="0" x2="635" y2="1050" gradientUnits="userSpaceOnUse">
<stop stop-color="#F79130"/>
<stop offset="1" stop-color="white"/>
</linearGradient>
</defs>
</svg>
