<svg width="1039" height="768" viewBox="0 0 1039 768" fill="none" xmlns="http://www.w3.org/2000/svg">
<rect x="-6" y="-2" width="1045" height="767" fill="url(#paint0_linear)"/>
<path d="M93.689 585.157L1.70801 576.461V701.733H499.118L360.26 648.033C274.707 614.948 185.009 593.791 93.689 585.157Z" fill="#357FE0"/>
<path d="M419.408 570.433L200.182 611.335V704.681H1039V602.272C1001.5 618.278 960.328 623.678 919.97 617.886L849.077 607.71C824.224 604.143 798.873 606.923 775.384 615.791C740.52 628.954 701.985 628.554 667.401 614.67L602.289 588.532C544.286 565.247 480.85 558.969 419.408 570.433Z" fill="#357FE0"/>
<rect x="218.15" y="-3.47119" width="64.5245" height="715.522" fill="#03295B"/>
<rect x="276.141" y="172.646" width="87.3939" height="11.7903" fill="#03295B"/>
<rect x="266.34" y="295.706" width="49.8227" height="11.7903" fill="#03295B"/>
<rect x="180.579" y="239.706" width="49.0059" height="11.7903" fill="#03295B"/>
<rect x="352.1" y="125.484" width="11.4347" height="53.7931" fill="#03295B"/>
<rect x="329.23" y="82.0093" width="101.279" height="49.3718" fill="#03295B"/>
<rect x="51.5303" y="-3.47119" width="332.424" height="22.8437" fill="#03295B"/>
<path d="M207.513 694.248L190 702H380L371.409 694.248H380L371.409 684.408L380 678.445L365.13 671.289L362.157 664.133L351.252 668.904L338.365 664.133V673.376L325.478 668.904V678.445L315.896 673.376L321.843 655.188L301.687 659.661V644.752L280.87 650.716L271.287 637L258.4 650.716L240.557 641.472L236.261 659.661H211.809L217.426 678.445H197.27L207.513 694.248Z" fill="#CBEA69"/>
<path d="M602 680L624.076 702H727.934L747 690.083L721.913 680L732.952 669L706.862 666.25L702.848 652.5L681.273 661.667L672.242 647L660.201 669L640.131 661.667V680H602Z" fill="#CBEA69"/>
<rect x="814.389" y="19.373" width="89.0275" height="714.786" fill="#03295B"/>
<rect x="900.149" y="270.652" width="49.0059" height="11.7903" fill="#03295B"/>
<rect x="785.803" y="184.435" width="87.3939" height="11.7903" fill="#03295B"/>
<rect x="943.438" y="229.386" width="11.4347" height="53.0562" fill="#03295B"/>
<rect x="779.269" y="143.169" width="11.4347" height="53.0562" fill="#03295B"/>
<rect x="931" y="207" width="59" height="33" fill="#03295B"/>
<rect x="717" y="106" width="84" height="50" fill="#03295B"/>
<rect x="380.687" y="-15.2637" width="407.566" height="46.4242" fill="#03295B"/>
<rect x="581.611" y="-16" width="408.383" height="70.7417" fill="#03295B"/>
<rect x="633.884" y="-2.73828" width="405.116" height="22.8437" fill="#03295B"/>
<path d="M839 681.344L860.617 703H1024L1003.39 691.721L1017.97 678.637L995.848 671.87L1011.43 657.433L984.285 648.86V634.423L965.182 641.191V606L930.997 641.191L924.965 628.558L914.91 645.702L891.283 621.34V662.395L856.092 648.86L866.649 684.502L839 681.344Z" fill="#CBEA69"/>
<rect x="2" y="702" width="1037" height="69" fill="#89A828"/>
<rect x="72.209" y="-0.553223" width="62.5714" height="702.036" fill="#03295B"/>
<rect x="37.7139" y="149.985" width="48.1318" height="11.58" fill="#03295B"/>
<rect x="33.7031" y="108.734" width="10.4286" height="52.8336" fill="#03295B"/>
<rect x="-4" y="76.8887" width="65.7801" height="31.8449" fill="#03295B"/>
<defs>
<linearGradient id="paint0_linear" x1="516.5" y1="-2" x2="516.5" y2="765" gradientUnits="userSpaceOnUse">
<stop stop-color="#F79130"/>
<stop offset="1" stop-color="white"/>
</linearGradient>
</defs>
</svg>
