<svg width="1270" height="1050" viewBox="0 0 1270 1050" fill="none" xmlns="http://www.w3.org/2000/svg">
<rect width="1270" height="1050" fill="url(#paint0_linear)"/>
<path d="M1270 618L1186.24 651.955C1116.89 680.07 1041.36 689.44 967.239 679.123C885.384 667.729 801.982 680.366 727.176 715.497L703 726.85L799.669 835.701L1080.38 848L1270 726.85V618Z" fill="#E79D56"/>
<path d="M741.655 749.05L617.129 672.464C405.876 542.54 129.267 608.931 0 820.587V1050H1270V721.915L1210.13 755.352C1064.03 836.954 885.514 834.553 741.655 749.05Z" fill="#A2BA57"/>
<ellipse cx="40" cy="814.5" rx="94" ry="94.5" fill="#0B0E4F"/>
<ellipse cx="13.5" cy="927" rx="67.5" ry="68" fill="#0B0E4F"/>
<circle cx="47" cy="1037" r="68" fill="#0B0E4F"/>
<circle cx="115.5" cy="1052.5" r="52.5" fill="#0B0E4F"/>
<circle cx="213.5" cy="988.5" r="79.5" fill="#0B0E4F"/>
<circle cx="310" cy="1002" r="66" fill="#0B0E4F"/>
<circle cx="386.5" cy="1049.5" r="41.5" fill="#0B0E4F"/>
<ellipse cx="445" cy="1034.5" rx="49" ry="49.5" fill="#0B0E4F"/>
<path d="M96.3211 342L56.0398 332.752C31.431 327.102 29.0783 292.974 52.6789 284L64.3578 291.937C47.2791 294.764 45.8012 318.749 62.4037 323.652L108 337.116L96.3211 342Z" fill="#0B0E4F"/>
<path d="M214.249 568.591V1049H232.719L224.715 383.581V304.027L330.158 289.51C346.21 287.3 361.456 281.112 374.506 271.507L393.396 257.606C406.918 247.654 424.426 244.874 440.366 250.148L452.933 254.305C469.738 259.865 488.098 252.451 496.331 236.782C507.62 215.297 494.974 189.01 471.143 184.419L458.84 182.049C456.266 181.553 453.739 180.836 451.288 179.904L419.263 167.736L361.145 141.682C341.421 132.839 320.05 128.268 298.434 128.268H281.874C263.444 128.268 245.399 133.539 229.867 143.46L222.927 147.893C190.799 168.415 148.974 165.232 120.321 140.085L118.789 138.74C109.113 130.248 97.4752 124.296 84.9253 121.423C56.9176 115.01 27.6592 124.601 8.88207 146.349L0 156.636V196.924C0 257.169 43.8526 308.451 103.368 317.802C118.062 320.111 133.055 319.721 147.609 316.652L207.477 304.027L214.249 552.557L184.859 542.659C159.746 534.201 142.833 510.659 142.833 484.16V431.052C142.833 426.292 138.974 422.433 134.214 422.433C129.453 422.433 125.594 426.292 125.594 431.052V490.848C125.594 520.92 145.231 547.467 173.986 556.268L214.249 568.591Z" fill="#0B0E4F"/>
<circle cx="94" cy="378" r="47" fill="#0B0E4F"/>
<circle cx="136.5" cy="405.5" r="31.5" fill="#0B0E4F"/>
<path d="M1102 1050V-59H1214V1050H1102Z" fill="#0B0E4F"/>
<circle cx="1079.5" cy="341.5" r="94.5" fill="#0B0E4F"/>
<circle cx="1110.5" cy="477.5" r="52.5" fill="#0B0E4F"/>
<path d="M719.352 25.9173H639.91C587.675 25.9173 542.055 -9.42204 529 -60H1249.52C1259.17 -60 1267 -52.174 1267 -42.5201C1267 -34.6026 1261.68 -27.6738 1254.03 -25.6317L1199.85 -11.1693L1143.65 -3.81369C1116.04 -0.199993 1090.84 13.7866 1073.16 35.3062C1055.6 56.6856 1030.61 70.6351 1003.2 74.3567L887.638 90.044C855.599 94.3933 823.493 82.5435 801.962 58.4228C783.502 37.742 757.096 25.9173 729.375 25.9173H719.352Z" fill="#0B0E4F"/>
<defs>
<linearGradient id="paint0_linear" x1="635" y1="0" x2="635" y2="1050" gradientUnits="userSpaceOnUse">
<stop stop-color="#5ABCE6"/>
<stop offset="0.760417" stop-color="white"/>
</linearGradient>
</defs>
</svg>
