<svg width="1039" height="767" viewBox="0 0 1039 767" fill="none" xmlns="http://www.w3.org/2000/svg">
<rect width="1039" height="767" fill="url(#paint0_linear)"/>
<path d="M42.3312 304L32 341.967L68.1593 362.625V322.425L54.1384 352.575L42.3312 304Z" fill="#531C5F"/>
<path d="M163.354 404.5V362.625L183.885 397.928L187.706 396.705V365.975L201.727 392.217L187.706 404.5L183.885 397.928L163.354 404.5Z" fill="#531C5F"/>
<path d="M287.329 365.975L274.046 398.917L291.757 408.967L287.329 365.975Z" fill="#531C5F"/>
<path d="M315.371 382.167L307.254 408.967L319.061 417.342L315.371 382.167Z" fill="#531C5F"/>
<path d="M342.675 408.967L338.247 425.158L345.627 426.275L342.675 408.967Z" fill="#531C5F"/>
<path d="M358.91 392.217L353.006 429.067L363.338 438L358.91 392.217Z" fill="#531C5F"/>
<path d="M384 414.55L371.455 438H384V414.55Z" fill="#531C5F"/>
<path d="M143.953 725.037L-5 714.579V780.813H156.906L143.953 725.037Z" fill="#B151B7"/>
<path d="M169.826 398.519L148.222 406.48L81.9225 374.638L35.736 345.64L0.723633 322.896V733.991L81.9225 739.108H154.927V720.344L148.222 675.425L143.008 643.584L121.404 598.096L158.652 607.194L197.389 611.174L216.757 619.134L241.34 640.741L278.588 669.739L313.6 692.483L341.163 697.032L432.791 653.819L481.957 614.017L522.184 598.096L528.144 586.156L494.621 569.667L462.589 546.923L417.147 528.728L374.685 509.964L341.163 490.632L305.406 454.242L255.494 406.48L221.972 374.638L197.389 386.579L169.826 398.519Z" fill="#B151B7"/>
<path d="M491.52 389.372L399 449.651L453.031 473.646L522.606 500.567L626.969 531L869 389.372L711.346 301L541.85 414.537L491.52 389.372Z" fill="#B151B7" fill-opacity="0.87"/>
<path d="M138.757 721.625L149.905 780H244.297L277.743 727.92L332 697.588L305.243 672.978L262.135 645.508L238.351 632.917L207.135 604.302L182.608 601.44L138.757 599.151L112 594L114.973 601.44L128.351 638.068L132.811 667.828L138.757 721.625Z" fill="#DB81E0"/>
<path d="M52.281 350L1 322V380.857L24.0393 392.857L48.565 420.857L73.0906 452.857L103.562 481.429L134.033 496.286L177.139 511.143L220.245 528.857L247 538L243.284 532.857L202.408 486.571L173.423 446.571L150.384 405.429L117.683 383.143L96.8731 371.714L52.281 350Z" fill="#DB81E0"/>
<path d="M245.87 400.571L221 376L269.987 390.857L317.467 412.571L396.6 442.857L447.849 465.714L517.184 487.429L593.303 510.857L634 528L523.214 588L509.648 579.429L454.631 552L418.456 533.714L368.715 510.857L331.786 487.429L288.828 442.857L245.87 400.571Z" fill="#DB81E0"/>
<path d="M443.309 530.74L412 651L500.709 601.178L489.527 546.202L461.945 622.367L443.309 530.74Z" fill="#531C5F"/>
<path d="M564.073 488.363L543.945 577.126L580.473 556.51L564.073 488.363Z" fill="#531C5F"/>
<path d="M831.691 323.436L805.6 428.234L847.345 403.036L831.691 323.436Z" fill="#531C5F"/>
<path d="M891.327 320L877.164 387.574L904 371.54L891.327 320Z" fill="#531C5F"/>
<path d="M288.991 718.716L188 783L1039 781.247V281L1009.3 300.285L825.879 407.815L701.867 479.112L533.301 579.629L409.29 649.757L288.991 718.716Z" fill="#863098"/>
<defs>
<linearGradient id="paint0_linear" x1="519.5" y1="0" x2="519.5" y2="767" gradientUnits="userSpaceOnUse">
<stop stop-color="#45BEF2"/>
<stop offset="0.567708" stop-color="white"/>
</linearGradient>
</defs>
</svg>
