<svg width="320" height="289" viewBox="0 0 320 289" fill="none" xmlns="http://www.w3.org/2000/svg">
<rect width="320" height="289" fill="url(#paint0_linear)"/>
<path d="M53.7306 167.568H30.014L-0.315867 166.407V183L9.94613 181.576L22.7166 180.388L32.9786 179.201L45.0649 178.252L56.4672 177.54L76.9911 176.353L84.5166 176.115H127.161L148.825 177.065L175.962 178.252L194.89 179.676L215.414 181.813L217.923 180.863L263.531 166.381L308 150.95H300.246L273.109 150H237.306L206.748 153.324L165.472 157.835L120.092 164.245L88.3934 167.568H53.7306Z" fill="#0651B3"/>
<path d="M7.77143 197.458L0 196.8L0 241L3.65714 240.671L21.9429 239.521L41.1429 238.535L61.4857 237.057L65.3714 236.399L75.2 236.071L84.5714 235.578L96.6857 234.756L108.8 233.606L116.114 233.113L122.743 232.784L129.829 232.456L137.6 231.799L147.429 230.977L155.657 230.32L165.257 229.827L178.514 228.677L188.343 228.348H192.229L192.686 228.019L196.114 222.597L202.743 213.067L208 205.673L210.514 201.401L212.343 199.101L213.714 196.307H214.171L225.6 196.965L242.057 197.293L253.714 197.622L269.029 197.293L278.4 196.965L280.914 199.922L289.6 212.41L296.229 221.283L320 220.461V148L312.914 149.643L291.429 155.065L266.057 161.145L244.114 165.91L216.229 172.154L201.829 175.769L186.057 178.562L166.171 183.491L151.771 186.12L138.743 188.092L123.657 191.378L108.571 193.678L91.2 196.307L76.1143 197.458L58.7429 198.936L40.9143 198.772L20.5714 198.443L7.77143 197.458Z" fill="#357FE0"/>
<path d="M0 198.636L0 172.273L2.78095 171.909L6.95238 171.545L9.0381 171.364L12.9778 171L18.3079 170.636L25.2603 170.091L36.6159 169.182L45.654 168.636L51.2159 168.455L56.7778 168.091L64.1936 167.909L74.854 167.364L83.6603 167H88.9905H102.432H119.581H131.4L142.292 167.364L152.489 167.727L167.089 168.273L179.835 168.636L190.727 169.364L198.838 169.727L206.022 170.273L212.511 170.818L219 171.364L215.292 172.455L208.803 174.273L200.924 176.091L193.74 177.545L188.41 178.455L179.14 181L172.883 182.636L168.248 183.909L158.978 185.727L154.575 186.636L149.244 187.545L144.146 188.455L139.279 189.364L132.559 191L125.606 192.636L122.13 193.182L112.397 194.818L105.676 195.909L98.2603 197.182L92.9302 198.091L90.381 198.273L82.7333 198.818L70.6825 199.909L59.5587 201L33.6032 200.636L20.8571 200.455L16.6857 200.091L0 198.636Z" fill="#1A6AD3"/>
<path d="M0 288.836L0 240.438L3.2 240.111L9.37143 239.784L22.1714 238.967L32.4571 238.476L44.5714 237.659L53.9429 237.168L61.4857 236.514L66.5143 235.86L78.6286 235.37L87.7714 234.879L94.8571 234.225L100.114 233.898L107.657 233.244L114.743 232.754L126.857 232.1L135.086 231.445L145.6 230.628L153.6 229.974L168.457 228.993L182.4 228.012L192.229 227.848L191.543 228.993L189.486 231.609L186.743 234.225L185.829 235.37H186.514L191.771 234.879L194.514 234.552V235.043L193.829 236.514L194.514 236.678L197.486 237.168L207.314 238.803L217.371 240.275L228.571 241.91L232.229 242.237L237.029 242.073L247.314 240.602L266.286 237.986L272.914 237.005L282.057 235.697L298.514 234.062L308.114 233.244L307.657 232.754L300.114 225.723L296.229 220.818L320 220V289L0 288.836Z" fill="#ADCA52"/>
<path d="M205.77 233.304L199 234L211.84 207.203L215.342 214.337L214.642 228.78L208.805 229.998L206.704 231.39L205.77 233.304Z" fill="#EAA93C"/>
<path d="M219.215 227.612L216.875 227.952V215.867L222.492 227.612H219.215Z" fill="#EAA93C"/>
<path d="M187.396 233.347L184.688 235.993L184.442 236.17L184.935 236.169L193.811 235.456L212.742 205.477L210.515 200.897L209.776 201.603L205.349 207.952L196.741 219.944L191.577 227.704L187.396 233.347Z" fill="#87B2EB"/>
<path d="M304.908 229.964L309.371 233.69L299.262 234.532L282.805 236.048L270.345 238.074L250.361 240.773L241.426 242.124L237.43 242.63L231.082 242.966L228.026 242.626L227.792 242.287L222.865 229.928L216.529 216.891L209.017 203.515L208.079 201.483L210.668 197.76L212.08 195.053L225.009 195.735L239.584 196.08L258.39 196.258L268.734 196.093L277.197 195.758L278.843 195.759L288.47 208.628L294.575 217.433L299.271 224.545L304.908 229.964Z" fill="#87B2EB"/>
<path d="M202.797 221L211.456 207L211.911 207.833L206.443 219L201.886 228.5L199.38 233.167V234L200.063 234.333L207.127 235.167L216.696 236.167L223.304 237.333H226.494L226.949 239.167L229 243L193 237L193.911 235L197.329 229.5L202.797 221Z" fill="#5181BF"/>
<path d="M205.881 232.717L199 233.583V233.8V234.667L200.186 234.883L210.627 236.617L217.034 237.267L223.915 239L227 238.783L222.729 226L218.22 226.217L214.661 227.083L208.966 228.6L206.831 230.55L205.881 232.717Z" fill="#295289"/>
<defs>
<linearGradient id="paint0_linear" x1="160" y1="0" x2="160" y2="289" gradientUnits="userSpaceOnUse">
<stop stop-color="#F79130"/>
<stop offset="0.796875" stop-color="white"/>
</linearGradient>
</defs>
</svg>
