<svg width="969" height="800" viewBox="0 0 969 800" fill="none" xmlns="http://www.w3.org/2000/svg">
<rect x="-1" width="970" height="800" fill="url(#paint0_linear)"/>
<path d="M161.317 417.993H89.2465L-2.92103 415.284V454L28.2635 450.676L67.0708 447.906L98.2553 445.137L134.984 442.921L169.633 441.259L232.002 438.489L254.871 437.935H384.46L450.294 440.151L532.759 442.921L590.277 446.245L652.646 451.23L660.269 449.014L798.867 415.223L934 379.216H910.438L827.973 377H719.173L626.313 384.755L500.882 395.281L362.977 410.237L266.652 417.993H161.317Z" fill="#0651B3"/>
<path d="M21.5814 520.968L-2 518.975V653L9.09714 652.004L64.5829 648.516L122.843 645.527L184.571 641.042L196.361 639.049L226.185 638.053L254.621 636.558L291.381 634.067L328.14 630.579L350.334 629.085L370.448 628.088L391.949 627.092L415.53 625.099L445.354 622.608L470.322 620.615L499.452 619.12L539.679 615.633L569.503 614.636H581.294L582.681 613.64L593.084 597.198L613.198 568.3L629.15 545.88L636.779 532.926L642.328 525.951L646.489 517.481H647.876L682.555 519.473L732.492 520.47L767.864 521.466L814.334 520.47L842.77 519.473L850.399 528.442L876.755 566.307L896.869 593.212L969 590.721V371L947.499 375.982L882.304 392.424L805.317 410.859L738.734 425.307L654.119 444.24L610.424 455.201L562.567 463.671L502.226 478.618L458.531 486.59L418.998 492.569L373.222 502.534L327.446 509.509L274.735 517.481L228.959 520.968L176.248 525.452L122.149 524.954L60.4214 523.958L21.5814 520.968Z" fill="#357FE0"/>
<path d="M-2 523.909V444.818L6.46984 443.727L19.1746 442.636L25.527 442.091L37.5259 441L53.7598 439.909L74.9344 438.273L109.52 435.545L137.047 433.909L153.986 433.364L170.926 432.273L193.512 431.727L225.98 430.091L252.801 429H269.035H309.972H362.203H398.2L431.374 430.091L462.43 431.182L506.896 432.818L545.716 433.909L578.89 436.091L603.594 437.182L625.474 438.818L645.237 440.455L665 442.091L653.707 445.364L633.944 450.818L609.946 456.273L588.066 460.636L571.832 463.364L543.599 471L524.542 475.909L510.425 479.727L482.193 485.182L468.782 487.909L452.548 490.636L437.02 493.364L422.198 496.091L401.729 501L380.554 505.909L369.967 507.545L340.323 512.455L319.854 515.727L297.268 519.545L281.034 522.273L273.27 522.818L249.978 524.455L213.275 527.727L179.396 531L100.344 529.909L61.5238 529.364L48.819 528.273L-2 523.909Z" fill="#1A6AD3"/>
<path d="M-2 799.5L-2 651.5L7.71 650.5L26.4364 649.5L65.2764 647L96.4871 645.5L133.246 643L161.683 641.5L184.571 639.5L199.829 637.5L236.589 636L264.331 634.5L285.832 632.5L301.784 631.5L324.672 629.5L346.173 628L382.932 626L407.901 624L439.805 621.5L464.08 619.5L509.162 616.5L551.47 613.5L581.294 613L579.213 616.5L572.971 624.5L564.648 632.5L561.874 636H563.954L579.906 634.5L588.229 633.5V635L586.149 639.5L588.229 640L597.246 641.5L627.069 646.5L657.586 651L691.571 656L702.669 657L717.234 656.5L748.444 652L806.011 644L826.124 641L853.867 637L903.804 632L932.934 629.5L931.547 628L908.659 606.5L896.869 591.5L969 589V800L-2 799.5Z" fill="#ADCA52"/>
<path d="M623.336 627.623L603.082 629.647L641.496 551.727L651.973 572.471L649.877 614.467L632.416 618.009L626.13 622.057L623.336 627.623Z" fill="#EAA93C"/>
<path d="M663.559 611.084L656.556 612.074V576.934L673.362 611.084H663.559Z" fill="#EAA93C"/>
<path d="M566.834 628.894L558.616 636.775L557.868 637.301L559.365 637.299L586.305 635.174L643.768 545.889L637.007 532.248L634.765 534.35L621.329 553.258L595.2 588.976L579.526 612.086L566.834 628.894Z" fill="#87B2EB"/>
<path d="M923.519 618.806L937.067 629.903L906.383 632.411L856.432 636.927L818.609 642.96L757.952 651L730.834 655.022L718.703 656.529L699.437 657.529L690.162 656.517L689.449 655.508L674.496 618.699L655.263 579.871L632.464 540.033L629.615 533.982L637.473 522.894L641.761 514.829L681.004 516.863L725.242 517.89L782.324 518.419L813.72 517.929L839.408 516.932L844.403 516.934L873.626 555.262L892.155 581.486L906.408 602.666L923.519 618.806Z" fill="#87B2EB"/>
<path d="M613.937 591.389L640.392 549L641.785 551.523L625.076 585.333L611.152 614.097L603.494 628.227V630.75L605.582 631.759L627.165 634.282L656.405 637.31L676.595 640.843H686.342L687.734 646.394L694 658L584 639.833L586.785 633.778L597.228 617.125L613.937 591.389Z" fill="#5181BF"/>
<path d="M623.398 626.533L603 628.667V629.2V631.333L606.517 631.867L637.466 636.133L656.458 637.733L676.856 642L686 641.467L673.339 610L659.975 610.533L649.424 612.667L632.542 616.4L626.212 621.2L623.398 626.533Z" fill="#295289"/>
<defs>
<linearGradient id="paint0_linear" x1="484" y1="0" x2="484" y2="800" gradientUnits="userSpaceOnUse">
<stop stop-color="#F79130"/>
<stop offset="0.536458" stop-color="white"/>
</linearGradient>
</defs>
</svg>
