<svg width="768" height="760" viewBox="0 0 768 760" fill="none" xmlns="http://www.w3.org/2000/svg">
<rect width="768" height="758" fill="url(#paint0_linear)"/>
<path d="M29.6604 404L22 432.05L48.8113 447.312V417.613L38.4151 439.888L29.6604 404Z" fill="#531C5F"/>
<path d="M119.396 478.25V447.312L134.619 473.395L137.453 472.491V449.787L147.849 469.175L137.453 478.25L134.619 473.395L119.396 478.25Z" fill="#531C5F"/>
<path d="M211.321 449.787L201.472 474.125L214.604 481.55L211.321 449.787Z" fill="#531C5F"/>
<path d="M232.113 461.75L226.094 481.55L234.849 487.737L232.113 461.75Z" fill="#531C5F"/>
<path d="M252.358 481.55L249.075 493.512L254.547 494.338L252.358 481.55Z" fill="#531C5F"/>
<path d="M264.396 469.175L260.019 496.4L267.679 503L264.396 469.175Z" fill="#531C5F"/>
<path d="M283 485.675L273.698 503H283V485.675Z" fill="#531C5F"/>
<path d="M103.865 718.508L-0.962891 711.102V758.002H112.98L103.865 718.508Z" fill="#B151B7"/>
<path d="M124.292 474.189L108.29 480.134L59.1815 456.354L24.971 434.697L-0.962891 417.711V724.732L59.1815 728.554H113.256V714.541L108.29 680.993L104.428 657.213L88.4261 623.241L116.015 630.035L144.708 633.008L159.054 638.953L177.263 655.09L204.852 676.747L230.786 693.733L251.202 697.13L319.072 664.857L355.489 635.131L385.286 623.241L389.7 614.323L364.87 602.009L341.143 585.023L307.484 571.434L276.033 557.42L251.202 542.982L224.717 515.805L187.747 480.134L162.917 456.354L144.708 465.272L124.292 474.189Z" fill="#B151B7"/>
<path d="M363.504 466.087L295 511.165L335.006 529.109L386.521 549.242L463.794 572L643 466.087L526.269 400L400.77 484.906L363.504 466.087Z" fill="#B151B7" fill-opacity="0.87"/>
<path d="M100.946 714.062L109.257 758H179.622L204.554 718.8L245 695.969L225.054 677.446L192.919 656.769L175.189 647.292L151.919 625.754L133.635 623.6L100.946 621.877L81 618L83.2162 623.6L93.1892 651.169L96.5135 673.569L100.946 714.062Z" fill="#DB81E0"/>
<path d="M36.9396 437.741L-1 417V460.598L16.0453 469.487L34.1903 490.228L52.3353 513.931L74.8792 535.095L97.423 546.101L129.314 557.106L161.205 570.228L181 577L178.251 573.19L148.009 538.905L126.565 509.275L109.52 478.799L85.3263 462.291L69.9305 453.825L36.9396 437.741Z" fill="#DB81E0"/>
<path d="M181.427 475.313L163 457L199.296 468.073L234.474 484.256L293.106 506.827L331.077 523.863L382.449 540.046L438.847 557.507L469 570.283L386.916 615L376.865 608.612L336.102 588.17L309.299 574.542L272.445 557.507L245.084 540.046L213.255 506.827L181.427 475.313Z" fill="#DB81E0"/>
<path d="M327.227 571.26L304 661L369.811 623.822L361.515 582.798L341.053 639.633L327.227 571.26Z" fill="#531C5F"/>
<path d="M416.818 539.637L401.886 605.874L428.985 590.49L416.818 539.637Z" fill="#531C5F"/>
<path d="M615.356 416.564L596 494.766L626.97 475.964L615.356 416.564Z" fill="#531C5F"/>
<path d="M659.598 414L649.091 464.426L669 452.46L659.598 414Z" fill="#531C5F"/>
<path d="M212.12 712.235L137 760L770 758.697V387L747.906 401.329L611.474 481.227L519.23 534.203L393.846 608.889L301.602 660.997L212.12 712.235Z" fill="#863098"/>
<defs>
<linearGradient id="paint0_linear" x1="384" y1="0" x2="384" y2="758" gradientUnits="userSpaceOnUse">
<stop stop-color="#45BEF2"/>
<stop offset="0.65625" stop-color="white"/>
</linearGradient>
</defs>
</svg>
