<svg width="320" height="475" viewBox="0 0 320 475" fill="none" xmlns="http://www.w3.org/2000/svg">
<rect width="320" height="475" fill="url(#paint0_linear)"/>
<path d="M13.8943 159.444L-5 162.219V182.455L11.3902 190.125L27.7805 196L48.9512 190.125L66.935 186.372L79 182.455L69.8943 170.378L65.1138 160.913L62.1545 149L48.9512 152.427L32.1057 156.997L13.8943 159.444Z" fill="#ADCA52"/>
<path d="M78.9846 156.427L63 149L64.1583 158.078L66.7066 164.68L73.4247 175.738L78.9846 183L86.3977 182.01L102.614 177.553L119.062 173.097L123 171.942L96.3591 164.68L78.9846 156.427Z" fill="#CBEA69"/>
<path d="M156.178 213.333L162 221L121.247 217.5L91.6712 213.333L41.3699 201.333L26 195.833L42.3014 191.167L63.726 185.667L74.6712 183.333L117.986 173L135.918 167.5L148.26 163L145.932 171.167V178V185.667V192.333L150.589 202.667L156.178 213.333Z" fill="#ADCA52"/>
<path d="M165.643 172.908L147.58 164L145 168.454V178.517V192.705L149.926 205.077L160.483 221.904L178.78 223.389L214.672 225.204L255.958 230.483L296.776 237.246L320 245V205.077L312.728 203.923L272.145 199.138L249.859 196.664L219.129 190.23L193.559 182.147L165.643 172.908Z" fill="#CBEA69"/>
<path d="M14.9123 190.333L-6 182V291H320V243.833L317.676 242.333L294.673 235.667L264.699 230.667L235.886 226.667L204.285 222.667L171.522 221.333L131.324 217.333L93.2174 211.5L60.9195 204.5L30.9451 196.167L14.9123 190.333Z" fill="#89A828"/>
<path d="M46.6386 247.45L49.4371 271.055L51.7137 291.501H-6.53358L-7 256.26L2.09524 239.139L26.5824 185.613L36.1441 165L40.1087 195.586L43.3736 221.186L46.6386 247.45Z" fill="#2D3809"/>
<path d="M105.641 225.009L84.8852 291.501H123.132L105.641 225.009Z" fill="#2D3809"/>
<path d="M153.449 205.726L132.694 291.501H184L153.449 205.726Z" fill="#2D3809"/>
<defs>
<linearGradient id="paint0_linear" x1="160" y1="0" x2="160" y2="475" gradientUnits="userSpaceOnUse">
<stop stop-color="#F79130"/>
<stop offset="0.416667" stop-color="white"/>
</linearGradient>
</defs>
</svg>
