<svg width="969" height="800" viewBox="0 0 969 800" fill="none" xmlns="http://www.w3.org/2000/svg">
<rect width="969" height="800" fill="url(#paint0_linear)"/>
<path d="M37.6562 354L28 389.417L61.7966 408.687V371.188L48.6918 399.312L37.6562 354Z" fill="#531C5F"/>
<path d="M150.771 447.75V408.687L169.96 441.62L173.533 440.478V411.812L186.637 436.292L173.533 447.75L169.96 441.62L150.771 447.75Z" fill="#531C5F"/>
<path d="M266.646 411.812L254.231 442.542L270.784 451.917L266.646 411.812Z" fill="#531C5F"/>
<path d="M292.855 426.917L285.268 451.917L296.304 459.729L292.855 426.917Z" fill="#531C5F"/>
<path d="M318.375 451.917L314.237 467.021L321.134 468.062L318.375 451.917Z" fill="#531C5F"/>
<path d="M333.549 436.292L328.031 470.667L337.688 479L333.549 436.292Z" fill="#531C5F"/>
<path d="M357 457.125L345.275 479H357V457.125Z" fill="#531C5F"/>
<path d="M132.251 747.812L-7 738.035V799.955H144.36L132.251 747.812Z" fill="#B151B7"/>
<path d="M156.439 442.561L136.243 450.002L74.2611 420.235L31.0829 393.125L-1.64893 371.863V756.181L74.2611 760.966H142.51V743.424L136.243 701.431L131.368 671.663L111.171 629.138L145.993 637.643L182.207 641.364L200.314 648.806L223.295 669.006L258.117 696.115L290.848 717.378L316.616 721.63L402.276 681.231L448.24 644.022L485.847 629.138L491.418 617.976L460.079 602.56L430.133 581.298L387.651 564.288L347.955 546.747L316.616 528.673L283.188 494.654L236.527 450.002L205.188 420.235L182.207 431.398L156.439 442.561Z" fill="#B151B7"/>
<path d="M457.417 433.608L371 489.957L421.468 512.387L486.454 537.552L583.932 566L810 433.608L662.745 351L504.428 457.132L457.417 433.608Z" fill="#B151B7" fill-opacity="0.87"/>
<path d="M127.054 744.391L137.493 799H225.878L257.196 750.28L308 721.905L282.946 698.883L242.581 673.185L220.311 661.406L191.081 634.637L168.115 631.96L127.054 629.818L102 625L104.784 631.96L117.311 666.225L121.486 694.065L127.054 744.391Z" fill="#DB81E0"/>
<path d="M46.9456 397.185L-1 371V426.042L20.5408 437.265L43.4713 463.45L66.4018 493.376L94.8912 520.095L123.381 533.989L163.683 547.884L203.985 564.45L229 573L225.526 568.19L187.308 524.905L160.208 487.497L138.668 449.021L108.094 428.18L88.6375 417.492L46.9456 397.185Z" fill="#DB81E0"/>
<path d="M227.245 444.949L204 422L249.785 435.876L294.161 456.156L368.12 484.442L416.018 505.79L480.821 526.07L551.964 547.951L590 563.962L486.456 620L473.777 611.995L422.358 586.377L388.547 569.299L342.058 547.951L307.544 526.07L267.394 484.442L227.245 444.949Z" fill="#DB81E0"/>
<path d="M412.273 566.37L383 679L465.939 632.339L455.485 580.851L429.697 652.183L412.273 566.37Z" fill="#531C5F"/>
<path d="M525.182 526.682L506.364 609.813L540.515 590.505L525.182 526.682Z" fill="#531C5F"/>
<path d="M775.394 372.218L751 470.367L790.03 446.768L775.394 372.218Z" fill="#531C5F"/>
<path d="M831.152 369L817.909 432.287L843 417.27L831.152 369Z" fill="#531C5F"/>
<path d="M267.464 741.942L173 802L969 800.362V333L941.216 351.017L769.653 451.478L653.656 518.088L495.984 611.998L379.988 677.516L267.464 741.942Z" fill="#863098"/>
<defs>
<linearGradient id="paint0_linear" x1="484.5" y1="0" x2="484.5" y2="800" gradientUnits="userSpaceOnUse">
<stop stop-color="#45BEF2"/>
<stop offset="0.567708" stop-color="white"/>
</linearGradient>
</defs>
</svg>
