<svg width="712" height="800" viewBox="0 0 712 800" fill="none" xmlns="http://www.w3.org/2000/svg">
<rect width="712" height="800" fill="url(#paint0_linear)"/>
<path d="M28.1027 473L21 499.067L45.8595 513.25V485.65L36.2201 506.35L28.1027 473Z" fill="#531C5F"/>
<path d="M111.306 542V513.25L125.421 537.488L128.048 536.648V515.55L137.688 533.567L128.048 542L125.421 537.488L111.306 542Z" fill="#531C5F"/>
<path d="M196.539 515.55L187.407 538.167L199.583 545.067L196.539 515.55Z" fill="#531C5F"/>
<path d="M215.818 526.667L210.237 545.067L218.354 550.817L215.818 526.667Z" fill="#531C5F"/>
<path d="M234.589 545.067L231.545 556.183L236.618 556.95L234.589 545.067Z" fill="#531C5F"/>
<path d="M245.751 533.567L241.692 558.867L248.795 565L245.751 533.567Z" fill="#531C5F"/>
<path d="M263 548.9L254.375 565H263V548.9Z" fill="#531C5F"/>
<path d="M96.8683 763.557L0 756.724V800H105.292L96.8683 763.557Z" fill="#B151B7"/>
<path d="M115.744 538.115L100.958 543.6L55.5777 521.657L23.9647 501.674L0 486V769.3L55.5777 772.827H105.547V759.896L100.958 728.941L97.3884 706.998L82.6017 675.651L108.096 681.92L134.61 684.663L147.867 690.149L164.693 705.039L190.188 725.022L214.153 740.696L233.018 743.831L295.734 714.051L329.387 686.622L356.921 675.651L361 667.422L338.055 656.059L316.13 640.385L285.027 627.846L255.963 614.915L233.018 601.593L208.544 576.515L174.381 543.6L151.436 521.657L134.61 529.886L115.744 538.115Z" fill="#B151B7"/>
<path d="M336.189 531.092L273 572.763L309.902 589.351L357.42 607.962L428.698 629L594 531.092L486.326 470L370.564 548.489L336.189 531.092Z" fill="#B151B7" fill-opacity="0.87"/>
<path d="M94.3649 759.828L102.017 800H166.804L189.76 764.16L227 743.286L208.635 726.351L179.047 707.446L162.723 698.782L141.297 679.089L124.463 677.12L94.3649 675.545L76 672L78.0405 677.12L87.223 702.326L90.2838 722.806L94.3649 759.828Z" fill="#DB81E0"/>
<path d="M35.0211 504.185L0 485V525.328L15.7341 533.55L32.4834 552.735L49.2326 574.661L70.0423 594.238L90.852 604.418L120.29 614.598L149.728 626.735L168 633L165.462 629.476L137.547 597.762L117.752 570.354L102.018 542.164L79.6858 526.894L65.4743 519.063L35.0211 504.185Z" fill="#DB81E0"/>
<path d="M168.922 538.806L152 522L185.33 532.162L217.635 547.013L271.476 567.728L306.345 583.361L353.52 598.213L405.31 614.237L433 625.962L357.622 667L348.392 661.137L310.96 642.377L286.347 629.871L252.504 614.237L227.378 598.213L198.15 567.728L168.922 538.806Z" fill="#DB81E0"/>
<path d="M303.445 627.526L282 710L342.762 675.832L335.103 638.13L316.211 690.363L303.445 627.526Z" fill="#531C5F"/>
<path d="M386.164 598.464L372.377 659.337L397.397 645.199L386.164 598.464Z" fill="#531C5F"/>
<path d="M569.471 485.356L551.6 557.227L580.194 539.946L569.471 485.356Z" fill="#531C5F"/>
<path d="M610.32 483L600.618 529.343L619 518.346L610.32 483Z" fill="#531C5F"/>
<path d="M197.305 757.077L128 801L712 799.802V458L691.616 471.177L565.745 544.648L480.642 593.363L364.963 662.043L279.86 709.959L197.305 757.077Z" fill="#863098"/>
<defs>
<linearGradient id="paint0_linear" x1="356" y1="0" x2="356" y2="800" gradientUnits="userSpaceOnUse">
<stop stop-color="#45BEF2"/>
<stop offset="0.65625" stop-color="white"/>
</linearGradient>
</defs>
</svg>
