<svg width="768" height="793" viewBox="0 0 768 793" fill="none" xmlns="http://www.w3.org/2000/svg">
<rect width="768" height="758" fill="url(#paint0_linear)"/>
<path d="M781 492.215L729.476 513.018C686.763 530.265 640.274 536.012 594.647 529.686C544.254 522.7 492.916 530.452 446.833 552.007L432 558.945L491.502 625.675L664.285 633.215L781 558.945V492.215Z" fill="#E79D56"/>
<path d="M455.673 572.637L379.151 525.507C249.036 445.368 78.5655 486.284 -1 616.75V758.215H781V555.905L744.141 576.521C654.191 626.832 544.236 625.352 455.673 572.637Z" fill="#A2BA57"/>
<circle cx="23.6651" cy="612.63" r="57.6651" fill="#0B0E4F"/>
<circle cx="7.73854" cy="681.279" r="41.7385" fill="#0B0E4F"/>
<ellipse cx="28.6079" cy="749.928" rx="41.7385" ry="42.2877" fill="#0B0E4F"/>
<circle cx="70.3463" cy="759.264" r="32.9515" fill="#0B0E4F"/>
<circle cx="130.757" cy="719.722" r="49.4272" fill="#0B0E4F"/>
<ellipse cx="190.07" cy="727.96" rx="40.6402" ry="41.1894" fill="#0B0E4F"/>
<circle cx="237.85" cy="757.616" r="25.812" fill="#0B0E4F"/>
<ellipse cx="274.096" cy="748.28" rx="30.2055" ry="30.7547" fill="#0B0E4F"/>
<path d="M130.898 461.7V758.164H142.273L137.344 347.529V298.435L202.276 289.477C212.165 288.113 221.555 284.294 229.59 278.37L241.23 269.786C249.554 263.647 260.341 261.932 270.158 265.187L277.838 267.733C288.216 271.173 299.558 266.592 304.635 256.909C311.583 243.658 303.785 227.457 289.094 224.621L281.538 223.163C279.948 222.856 278.388 222.412 276.875 221.836L257.158 214.329L221.361 198.248C209.217 192.793 196.055 189.972 182.742 189.972H172.552C161.198 189.972 150.082 193.225 140.52 199.346L136.259 202.073C116.471 214.738 90.6885 212.775 73.0461 197.259L72.0987 196.426C66.1462 191.191 58.9834 187.522 51.2571 185.749C34.0102 181.792 15.9898 187.705 4.43921 201.11L-1.04834 207.479V232.496C-1.04834 269.587 25.9446 301.163 62.5849 306.932C71.6518 308.359 80.9032 308.118 89.8835 306.221L126.728 298.435L130.898 451.805L112.836 445.709C97.3453 440.482 86.9161 425.956 86.9161 409.607V376.813C86.9161 373.881 84.5395 371.505 81.6079 371.505C78.6763 371.505 76.2997 373.881 76.2997 376.813V413.735C76.2997 432.288 88.4094 448.669 106.147 454.109L130.898 461.7Z" fill="#0B0E4F"/>
<circle cx="57.1659" cy="344.074" r="28.558" fill="#0B0E4F"/>
<ellipse cx="83.5272" cy="361.099" rx="19.7709" ry="19.2217" fill="#0B0E4F"/>
<circle cx="661" cy="255.001" r="58" fill="#0B0E4F"/>
<path d="M677.752 758.163V-2.17188H746.95V758.163H677.752Z" fill="#0B0E4F"/>
<ellipse cx="677.5" cy="326" rx="32.5" ry="33" fill="#0B0E4F"/>
<path d="M409.508 22.5988H353.487C325.235 22.5988 300.33 4.06277 292.22 -23H737.818C742.862 -23 746.95 -18.9115 746.95 -13.868C746.95 -9.61299 744.011 -5.92184 739.865 -4.96832L705.577 2.91584L668.867 7.05411C653.103 8.83113 638.466 16.0959 627.519 27.5768C616.639 38.9881 602.111 46.2364 586.45 48.0676L510.744 56.9198C492.313 59.075 473.886 52.8543 460.533 39.9689C448.985 28.8259 433.563 22.5988 417.516 22.5988H409.508Z" fill="#0B0E4F"/>
<defs>
<linearGradient id="paint0_linear" x1="384" y1="0" x2="384" y2="758" gradientUnits="userSpaceOnUse">
<stop stop-color="#5ABCE6"/>
<stop offset="0.760417" stop-color="white"/>
</linearGradient>
</defs>
</svg>
