<svg width="768" height="759" viewBox="0 0 768 759" fill="none" xmlns="http://www.w3.org/2000/svg">
<rect x="-1" width="769" height="758" fill="url(#paint0_linear)"/>
<path d="M33.0108 446.111L-14 452.781V501.434L26.7805 519.875L67.561 534L120.236 519.875L164.981 510.851L195 501.434L172.344 472.399L160.45 449.642L153.087 421L120.236 429.24L78.3225 440.226L33.0108 446.111Z" fill="#ADCA52"/>
<path d="M192.363 438.476L154 421L156.78 442.359L162.896 457.893L179.019 483.913L192.363 501L210.154 498.67L249.073 488.184L288.548 477.699L298 474.981L234.062 457.893L192.363 438.476Z" fill="#CBEA69"/>
<path d="M375.259 573.155L389 591L292.81 582.853L223.003 573.155L104.277 545.224L68 532.422L106.476 521.56L157.045 508.759L182.878 503.328L285.115 479.276L327.438 466.474L356.57 456L351.074 475.009V490.914V508.759V524.276L362.067 548.328L375.259 573.155Z" fill="#ADCA52"/>
<path d="M400.19 478.006L357.149 457L351 467.503V491.232V524.686L362.739 553.862L387.893 593.54L431.493 597.041L517.017 601.32L615.398 613.768L712.661 629.717L768 648V553.862L750.672 551.138L653.968 539.857L600.865 534.022L527.638 518.851L466.709 499.79L400.19 478.006Z" fill="#CBEA69"/>
<path d="M41.779 519.725L-8 500V758H768V646.358L762.469 642.807L707.712 627.028L636.362 615.193L567.778 605.725L492.556 596.257L414.569 593.101L318.882 583.633L228.174 569.826L151.293 553.257L79.943 533.532L41.779 519.725Z" fill="#89A828"/>
<path d="M117.374 654.115L123.967 709.688L129.331 757.826H-7.9011L-9 674.857L12.4286 634.547L70.1209 508.529L92.6484 460L101.989 532.01L109.681 592.28L117.374 654.115Z" fill="#2D3809"/>
<path d="M256.385 601.281L207.484 757.826H297.593L256.385 601.281Z" fill="#2D3809"/>
<path d="M369.022 555.884L320.121 757.826H441L369.022 555.884Z" fill="#2D3809"/>
<defs>
<linearGradient id="paint0_linear" x1="383.5" y1="0" x2="383.5" y2="758" gradientUnits="userSpaceOnUse">
<stop stop-color="#F79130"/>
<stop offset="0.666667" stop-color="white"/>
</linearGradient>
</defs>
</svg>
