<svg width="130" height="62" viewBox="0 0 130 62" fill="none" xmlns="http://www.w3.org/2000/svg">
<path d="M17.2963 37.2323C19.6702 36.4482 21.675 36.46 23.3109 37.2677C24.9467 38.0754 26.1567 39.6662 26.9408 42.04C27.2983 43.1225 27.46 44.1538 27.4257 45.1341C27.3914 46.1143 27.1644 47.0212 26.7447 47.8549C26.3187 48.6696 25.6969 49.4016 24.8792 50.0508C24.0616 50.7 23.0451 51.2253 21.8297 51.6268L12.2867 54.7788L5.19231 33.3001L18.1821 29.0096L19.744 33.7383L12.3375 36.1847L13.1373 38.606L17.2963 37.2323ZM16.3834 48.4338L18.9187 47.5964C20.9507 46.9252 21.6719 45.697 21.0823 43.9119C20.7749 42.9814 20.3054 42.3887 19.6736 42.134C19.0546 41.854 18.2038 41.8928 17.1213 42.2504L14.6145 43.0784L16.3834 48.4338Z" fill="white"/>
<path d="M33.3584 24.8777L35.1445 24.5279C37.1229 24.1404 37.9435 23.0857 37.6062 21.3637C37.269 19.6418 36.1112 18.9746 34.1327 19.362L32.3467 19.7118L33.3584 24.8777ZM35.5542 36.0887L30.1685 37.1435L26.1107 16.4251L34.6838 14.7461C37.0103 14.2904 38.9056 14.5469 40.3697 15.5155C41.8522 16.4806 42.8087 18.0622 43.2392 20.2605C43.6698 22.4587 43.3806 24.2843 42.3717 25.7373C41.3812 27.1867 39.7227 28.1393 37.3962 28.5949L34.2088 29.2192L35.5542 36.0887Z" fill="white"/>
<path d="M55.389 22.5041C56.0078 22.9278 56.6586 23.2017 57.3412 23.3257C58.0238 23.4498 58.6942 23.4442 59.3523 23.309C60.0105 23.1739 60.6284 22.9203 61.2063 22.5484C61.7798 22.1533 62.269 21.6601 62.6739 21.0688C63.0788 20.4775 63.357 19.8499 63.5085 19.1861C63.6557 18.4991 63.6733 17.8244 63.5613 17.1619C63.4587 16.4857 63.2262 15.8518 62.8637 15.2602C62.5012 14.6686 62.0105 14.161 61.3917 13.7372C60.7728 13.3135 60.1221 13.0396 59.4395 12.9156C58.7568 12.7916 58.0817 12.804 57.4142 12.9529C56.7561 13.0881 56.1402 13.3532 55.5667 13.7483C54.9889 14.1202 54.4975 14.6019 54.0927 15.1932C53.6878 15.7845 53.4117 16.4237 53.2645 17.1107C53.113 17.7745 53.0932 18.4376 53.2052 19.1001C53.3172 19.7625 53.5545 20.3896 53.917 20.9811C54.2795 21.5727 54.7701 22.0804 55.389 22.5041ZM52.4935 26.7328C51.3384 25.9419 50.4117 24.9943 49.7134 23.89C49.0014 22.7763 48.5331 21.5871 48.3083 20.3223C48.0836 19.0575 48.1228 17.7612 48.4258 16.4336C48.7246 15.0828 49.3071 13.7748 50.1733 12.5096C51.0302 11.2582 52.0343 10.249 53.1856 9.48198C54.3232 8.70556 55.5223 8.1934 56.7828 7.94551C58.0527 7.68386 59.3355 7.68357 60.6313 7.94463C61.9133 8.19627 63.1319 8.71756 64.2871 9.50851C65.4423 10.2995 66.3759 11.2518 67.0878 12.3654C67.7861 13.4697 68.2429 14.6611 68.4582 15.9397C68.6829 17.2045 68.6459 18.5123 68.3472 19.8631C68.0347 21.2045 67.45 22.5009 66.5932 23.7524C65.7269 25.0175 64.725 26.0383 63.5874 26.8148C62.4455 27.568 61.2443 28.0686 59.9838 28.3165C58.7233 28.5644 57.452 28.5625 56.17 28.3108C54.8742 28.0498 53.6487 27.5238 52.4935 26.7328Z" fill="white"/>
<path d="M87.5427 17.7393C87.0229 16.1783 86.0468 15.1242 84.6144 14.577C83.9841 14.3363 83.3531 14.2265 82.7212 14.2478C82.1037 14.2745 81.525 14.4145 80.985 14.6678C80.4505 14.9068 79.9647 15.2547 79.5276 15.7115C79.1048 16.1737 78.7731 16.7199 78.5323 17.3502C78.2861 17.9947 78.1664 18.6302 78.1733 19.2566C78.1946 19.8884 78.322 20.4788 78.5555 21.0276C78.8033 21.5819 79.1485 22.0748 79.5909 22.5065C80.0333 22.9381 80.5625 23.2716 81.1784 23.5069C82.5249 24.0212 83.9541 23.9106 85.4661 23.1751L83.5619 28.1598L83.0747 28.146C82.3426 28.129 81.6781 28.0639 81.0812 27.9507C80.4788 27.8519 79.9054 27.6986 79.3611 27.4906C78.2439 27.0638 77.2489 26.4457 76.3763 25.6364C75.5235 24.8181 74.8482 23.879 74.3504 22.8189C73.8724 21.7499 73.5967 20.6023 73.5235 19.3761C73.4558 18.1356 73.6599 16.8922 74.136 15.6461C74.612 14.3999 75.2762 13.3487 76.1285 12.4925C77.0007 11.6274 77.9658 10.9702 79.0238 10.5209C80.1016 10.0627 81.2355 9.82288 82.4255 9.80147C83.621 9.76574 84.7845 9.96401 85.9161 10.3963C86.5606 10.6425 87.1635 10.9549 87.7247 11.3334C88.3057 11.7031 88.8853 12.1625 89.4634 12.7116L87.5427 17.7393Z" fill="white"/>
<path d="M94.3097 36.2625C94.853 36.5171 95.4022 36.6493 95.9571 36.6591C96.5121 36.6688 97.0407 36.5779 97.5428 36.3862C98.0449 36.1945 98.5001 35.9145 98.9083 35.5463C99.31 35.1603 99.6326 34.7077 99.8759 34.1885C100.119 33.6694 100.258 33.138 100.292 32.5943C100.319 32.033 100.246 31.498 100.072 30.9894C99.9037 30.4688 99.6382 29.9984 99.2756 29.5781C98.913 29.1579 98.4601 28.8204 97.9168 28.5658C97.3735 28.3112 96.8244 28.179 96.2694 28.1692C95.7144 28.1595 95.183 28.2565 94.6752 28.4603C94.1731 28.652 93.7212 28.9408 93.3194 29.3268C92.9112 29.695 92.5855 30.1387 92.3422 30.6579C92.0989 31.177 91.9635 31.7173 91.936 32.2787C91.9021 32.8223 91.9721 33.3485 92.1461 33.857C92.32 34.3656 92.5883 34.83 92.9509 35.2502C93.3135 35.6705 93.7664 36.0079 94.3097 36.2625ZM92.5699 39.975C91.5557 39.4998 90.7017 38.8713 90.0078 38.0896C89.3019 37.3023 88.7785 36.4239 88.4378 35.4543C88.097 34.4848 87.9605 33.4563 88.0284 32.369C88.0898 31.264 88.3807 30.1561 88.9013 29.0453C89.4162 27.9467 90.0786 27.0202 90.8885 26.266C91.6864 25.5061 92.5669 24.9469 93.5301 24.5884C94.4989 24.2178 95.5117 24.0519 96.5684 24.0907C97.6131 24.1238 98.6425 24.378 99.6567 24.8533C100.671 25.3286 101.531 25.9599 102.237 26.7472C102.931 27.5288 103.445 28.4105 103.78 29.3921C104.121 30.3617 104.261 31.399 104.199 32.504C104.126 33.6034 103.832 34.7024 103.317 35.8011C102.796 36.9119 102.137 37.8472 101.339 38.6071C100.535 39.3492 99.6511 39.8996 98.688 40.2581C97.7248 40.6165 96.7209 40.7792 95.6762 40.7461C94.6195 40.7073 93.584 40.4503 92.5699 39.975Z" fill="white"/>
<path d="M108.976 42.2726L115.207 39.8986L118.711 42.0544L111.202 44.5599L112.4 53.2211L108.722 50.9584L107.943 43.9522L105.03 48.6868L102.192 46.9408L108.909 36.0236L111.747 37.7696L108.976 42.2726Z" fill="white"/>
</svg>
