<svg width="180" height="137" viewBox="0 0 180 137" fill="none" xmlns="http://www.w3.org/2000/svg">
<circle cx="49.6552" cy="30.3046" r="19.0506" transform="rotate(57.2505 49.6552 30.3046)" stroke="#6F56E6" stroke-width="5"/>
<circle cx="29.7832" cy="39.248" r="19.0506" transform="rotate(57.2505 29.7832 39.248)" stroke="#6F56E6" stroke-width="5"/>
<circle cx="147.233" cy="76.4472" r="19.0506" transform="rotate(57.2505 147.233 76.4472)" stroke="#6F56E6" stroke-width="5"/>
<circle cx="126.444" cy="50.1015" r="19.0506" transform="rotate(57.2505 126.444 50.1015)" stroke="#6F56E6" stroke-width="5"/>
<circle cx="103.976" cy="35.0849" r="19.0506" transform="rotate(57.2505 103.976 35.0849)" stroke="#6F56E6" stroke-width="5"/>
<circle cx="72.3808" cy="29.7831" r="19.0506" transform="rotate(57.2505 72.3808 29.7831)" stroke="#6F56E6" stroke-width="5"/>
<circle cx="92.6547" cy="69.2718" r="48.4888" transform="rotate(57.2505 92.6547 69.2718)" fill="white"/>
<circle cx="48.8847" cy="58.9877" r="19.0506" transform="rotate(57.2505 48.8847 58.9877)" stroke="#6F56E6" stroke-width="5"/>
<circle cx="71.6142" cy="76.3979" r="19.0506" transform="rotate(57.2505 71.6142 76.3979)" stroke="#6F56E6" stroke-width="5"/>
<circle cx="97.7715" cy="85.1962" r="19.0506" transform="rotate(57.2505 97.7715 85.1962)" stroke="#6F56E6" stroke-width="5"/>
<circle cx="125.744" cy="92.828" r="19.0506" transform="rotate(57.2505 125.744 92.828)" stroke="#6F56E6" stroke-width="5"/>
<circle cx="150.217" cy="95.0238" r="19.0506" transform="rotate(57.2505 150.217 95.0238)" stroke="#6F56E6" stroke-width="5"/>
<circle cx="49.6552" cy="30.3046" r="19.0506" transform="rotate(57.2505 49.6552 30.3046)" stroke="#6F56E6" stroke-width="5"/>
<circle cx="29.7832" cy="39.248" r="19.0506" transform="rotate(57.2505 29.7832 39.248)" stroke="#6F56E6" stroke-width="5"/>
<circle cx="147.233" cy="76.4472" r="19.0506" transform="rotate(57.2505 147.233 76.4472)" stroke="#6F56E6" stroke-width="5"/>
<circle cx="126.444" cy="50.1015" r="19.0506" transform="rotate(57.2505 126.444 50.1015)" stroke="#6F56E6" stroke-width="5"/>
<circle cx="103.976" cy="35.0849" r="19.0506" transform="rotate(57.2505 103.976 35.0849)" stroke="#6F56E6" stroke-width="5"/>
<circle cx="72.3808" cy="29.7831" r="19.0506" transform="rotate(57.2505 72.3808 29.7831)" stroke="#6F56E6" stroke-width="5"/>
<circle cx="92.6547" cy="69.2718" r="48.4888" transform="rotate(57.2505 92.6547 69.2718)" fill="white"/>
<circle cx="48.8847" cy="58.9877" r="19.0506" transform="rotate(57.2505 48.8847 58.9877)" stroke="#6F56E6" stroke-width="5"/>
<circle cx="71.6142" cy="76.3979" r="19.0506" transform="rotate(57.2505 71.6142 76.3979)" stroke="#6F56E6" stroke-width="5"/>
<circle cx="97.7715" cy="85.1962" r="19.0506" transform="rotate(57.2505 97.7715 85.1962)" stroke="#6F56E6" stroke-width="5"/>
<circle cx="125.744" cy="92.828" r="19.0506" transform="rotate(57.2505 125.744 92.828)" stroke="#6F56E6" stroke-width="5"/>
<circle cx="150.217" cy="95.0238" r="19.0506" transform="rotate(57.2505 150.217 95.0238)" stroke="#6F56E6" stroke-width="5"/>
</svg>
