<svg width="320" height="277" viewBox="0 0 320 277" fill="none" xmlns="http://www.w3.org/2000/svg">
<ellipse cx="15.881" cy="143.333" rx="15.881" ry="9.66667" fill="white"/>
<ellipse cx="21.7503" cy="133.667" rx="12.0833" ry="9.66667" fill="white"/>
<ellipse cx="32.107" cy="141.952" rx="15.5357" ry="11.0476" fill="white"/>
<circle cx="23.5" cy="25.5" r="17.5" fill="white"/>
<path d="M32.5 234C27.8587 234 23.4075 235.844 20.1256 239.126C16.8437 242.408 15 246.859 15 251.5C15 256.141 16.8437 260.592 20.1256 263.874C23.4075 267.156 27.8587 269 32.5 269L32.5 251.5L32.5 234Z" fill="white"/>
<path d="M291.647 8.78115C292.545 6.01722 296.455 6.01722 297.353 8.78115L299.552 15.5471C299.953 16.7832 301.105 17.6201 302.405 17.6201L309.519 17.6201C312.425 17.6201 313.633 21.3389 311.282 23.0471L305.527 27.2287C304.475 27.9926 304.035 29.3467 304.437 30.5828L306.635 37.3488C307.533 40.1127 304.37 42.4111 302.019 40.7029L296.263 36.5213C295.212 35.7574 293.788 35.7574 292.737 36.5213L286.981 40.7029C284.63 42.4111 281.467 40.1127 282.365 37.3488L284.563 30.5828C284.965 29.3467 284.525 27.9926 283.473 27.2287L277.718 23.0471C275.367 21.3389 276.575 17.6201 279.481 17.6201L286.595 17.6201C287.895 17.6201 289.047 16.7832 289.448 15.5471L291.647 8.78115Z" fill="white"/>
<path d="M295.927 235.245L298.125 242.011C298.727 243.865 300.455 245.12 302.405 245.12L309.519 245.12C310.972 245.12 311.576 246.979 310.401 247.834L304.645 252.015C303.068 253.161 302.408 255.192 303.01 257.046L305.209 263.812C305.658 265.194 304.076 266.343 302.901 265.489L297.145 261.308C295.568 260.162 293.432 260.162 291.855 261.308L286.099 265.489C284.924 266.343 283.342 265.194 283.791 263.812L285.99 257.046C286.592 255.192 285.932 253.161 284.355 252.015L278.599 247.834C277.424 246.979 278.028 245.12 279.481 245.12L286.595 245.12C288.545 245.12 290.273 243.865 290.875 242.011L293.073 235.245C293.522 233.863 295.478 233.863 295.927 235.245Z" stroke="white" stroke-width="3"/>
</svg>
