<svg width="1089" height="900" viewBox="0 0 1089 900" fill="none" xmlns="http://www.w3.org/2000/svg">
<circle cx="920.655" cy="387.305" r="19.0506" transform="rotate(57.2505 920.655 387.305)" stroke="#6F56E6" stroke-width="5"/>
<circle cx="900.783" cy="396.248" r="19.0506" transform="rotate(57.2505 900.783 396.248)" stroke="#6F56E6" stroke-width="5"/>
<circle cx="1018.23" cy="433.447" r="19.0506" transform="rotate(57.2505 1018.23 433.447)" stroke="#6F56E6" stroke-width="5"/>
<circle cx="997.444" cy="407.101" r="19.0506" transform="rotate(57.2505 997.444 407.101)" stroke="#6F56E6" stroke-width="5"/>
<circle cx="974.976" cy="392.085" r="19.0506" transform="rotate(57.2505 974.976 392.085)" stroke="#6F56E6" stroke-width="5"/>
<circle cx="943.381" cy="386.783" r="19.0506" transform="rotate(57.2505 943.381 386.783)" stroke="#6F56E6" stroke-width="5"/>
<circle cx="963.655" cy="426.272" r="48.4888" transform="rotate(57.2505 963.655 426.272)" fill="white"/>
<circle cx="919.885" cy="415.988" r="19.0506" transform="rotate(57.2505 919.885 415.988)" stroke="#6F56E6" stroke-width="5"/>
<circle cx="942.614" cy="433.398" r="19.0506" transform="rotate(57.2505 942.614 433.398)" stroke="#6F56E6" stroke-width="5"/>
<circle cx="968.772" cy="442.196" r="19.0506" transform="rotate(57.2505 968.772 442.196)" stroke="#6F56E6" stroke-width="5"/>
<circle cx="996.745" cy="449.828" r="19.0506" transform="rotate(57.2505 996.745 449.828)" stroke="#6F56E6" stroke-width="5"/>
<circle cx="1021.22" cy="452.024" r="19.0506" transform="rotate(57.2505 1021.22 452.024)" stroke="#6F56E6" stroke-width="5"/>
<circle cx="920.655" cy="387.305" r="19.0506" transform="rotate(57.2505 920.655 387.305)" stroke="#6F56E6" stroke-width="5"/>
<circle cx="900.783" cy="396.248" r="19.0506" transform="rotate(57.2505 900.783 396.248)" stroke="#6F56E6" stroke-width="5"/>
<circle cx="1018.23" cy="433.447" r="19.0506" transform="rotate(57.2505 1018.23 433.447)" stroke="#6F56E6" stroke-width="5"/>
<circle cx="997.444" cy="407.101" r="19.0506" transform="rotate(57.2505 997.444 407.101)" stroke="#6F56E6" stroke-width="5"/>
<circle cx="974.976" cy="392.085" r="19.0506" transform="rotate(57.2505 974.976 392.085)" stroke="#6F56E6" stroke-width="5"/>
<circle cx="943.381" cy="386.783" r="19.0506" transform="rotate(57.2505 943.381 386.783)" stroke="#6F56E6" stroke-width="5"/>
<circle cx="963.655" cy="426.272" r="48.4888" transform="rotate(57.2505 963.655 426.272)" fill="white"/>
<circle cx="919.885" cy="415.988" r="19.0506" transform="rotate(57.2505 919.885 415.988)" stroke="#6F56E6" stroke-width="5"/>
<circle cx="942.614" cy="433.398" r="19.0506" transform="rotate(57.2505 942.614 433.398)" stroke="#6F56E6" stroke-width="5"/>
<circle cx="968.772" cy="442.196" r="19.0506" transform="rotate(57.2505 968.772 442.196)" stroke="#6F56E6" stroke-width="5"/>
<circle cx="996.745" cy="449.828" r="19.0506" transform="rotate(57.2505 996.745 449.828)" stroke="#6F56E6" stroke-width="5"/>
<circle cx="1021.22" cy="452.024" r="19.0506" transform="rotate(57.2505 1021.22 452.024)" stroke="#6F56E6" stroke-width="5"/>
<circle cx="845.905" cy="163.573" r="11.8652" transform="rotate(34.8785 845.905 163.573)" fill="white"/>
<circle cx="847.195" cy="170.8" r="9.36517" transform="rotate(34.8785 847.195 170.8)" stroke="#CBEA69" stroke-width="5"/>
<circle cx="815.487" cy="142.37" r="11.8652" transform="rotate(34.8785 815.487 142.37)" fill="white"/>
<circle cx="838.386" cy="109.519" r="11.8652" transform="rotate(34.8785 838.386 109.519)" fill="white"/>
<circle cx="868.804" cy="130.722" r="11.8652" transform="rotate(34.8785 868.804 130.722)" fill="white"/>
<circle cx="452" cy="266" r="37.6263" transform="rotate(57.2505 452 266)" fill="white"/>
<circle cx="467.924" cy="246.212" r="5.20271" stroke="#FDE15A" stroke-width="5"/>
<circle cx="416.106" cy="265.818" r="5.20271" stroke="#A5E783" stroke-width="5"/>
<circle cx="479.128" cy="286.125" r="7.30345" stroke="#FD8CC8" stroke-width="5"/>
<circle cx="719.5" cy="419.5" r="30.923" transform="rotate(57.2505 719.5 419.5)" stroke="#EA80B9" stroke-width="4"/>
<circle cx="719.547" cy="419.548" r="24.4837" transform="rotate(57.2505 719.547 419.548)" stroke="#67D3F9" stroke-width="4"/>
<circle cx="719.806" cy="419.808" r="17.8378" transform="rotate(57.2505 719.806 419.808)" stroke="#6F56E6" stroke-width="4"/>
<circle cx="719.911" cy="419.91" r="11.7994" transform="rotate(57.2505 719.911 419.91)" stroke="#CBEA69" stroke-width="4"/>
<circle cx="719.787" cy="419.79" r="8.31563" transform="rotate(57.2505 719.787 419.79)" fill="white"/>
<circle cx="312" cy="58" r="17" fill="white"/>
<circle cx="68.0487" cy="146.285" r="13.1944" stroke="#CBEA69" stroke-width="5"/>
<circle cx="65.6944" cy="161.979" r="13.1944" stroke="#CBEA69" stroke-width="5"/>
<circle cx="134.75" cy="104.694" r="13.1944" stroke="#CBEA69" stroke-width="5"/>
<circle cx="110.424" cy="107.048" r="13.1944" stroke="#CBEA69" stroke-width="5"/>
<circle cx="92.3751" cy="114.896" r="13.1944" stroke="#CBEA69" stroke-width="5"/>
<circle cx="76.6805" cy="132.16" r="13.1944" stroke="#CBEA69" stroke-width="5"/>
<circle cx="108.854" cy="135.299" r="35.3125" fill="white"/>
<circle cx="85.3126" cy="158.056" r="13.1944" stroke="#CBEA69" stroke-width="5"/>
<circle cx="104.931" cy="150.993" r="13.1944" stroke="#CBEA69" stroke-width="5"/>
<circle cx="120.625" cy="138.438" r="13.1944" stroke="#CBEA69" stroke-width="5"/>
<circle cx="136.319" cy="124.313" r="13.1944" stroke="#CBEA69" stroke-width="5"/>
<circle cx="147.306" cy="110.188" r="13.1944" stroke="#CBEA69" stroke-width="5"/>
<circle cx="68.0487" cy="146.285" r="13.1944" stroke="#CBEA69" stroke-width="5"/>
<circle cx="65.6944" cy="161.979" r="13.1944" stroke="#CBEA69" stroke-width="5"/>
<circle cx="134.75" cy="104.694" r="13.1944" stroke="#CBEA69" stroke-width="5"/>
<circle cx="110.424" cy="107.048" r="13.1944" stroke="#CBEA69" stroke-width="5"/>
<circle cx="92.3751" cy="114.896" r="13.1944" stroke="#CBEA69" stroke-width="5"/>
<circle cx="76.6805" cy="132.16" r="13.1944" stroke="#CBEA69" stroke-width="5"/>
<circle cx="108.854" cy="135.299" r="35.3125" fill="white"/>
<circle cx="85.3126" cy="158.056" r="13.1944" stroke="#CBEA69" stroke-width="5"/>
<circle cx="104.931" cy="150.993" r="13.1944" stroke="#CBEA69" stroke-width="5"/>
<circle cx="120.625" cy="138.438" r="13.1944" stroke="#CBEA69" stroke-width="5"/>
<circle cx="136.319" cy="124.313" r="13.1944" stroke="#CBEA69" stroke-width="5"/>
<circle cx="147.306" cy="110.188" r="13.1944" stroke="#CBEA69" stroke-width="5"/>
<circle cx="97" cy="343" r="20" fill="white"/>
</svg>
