<svg width="860" height="411" viewBox="0 0 860 411" fill="none" xmlns="http://www.w3.org/2000/svg">
<circle cx="729.655" cy="304.305" r="19.0506" transform="rotate(57.2505 729.655 304.305)" stroke="#6F56E6" stroke-width="5"/>
<circle cx="709.783" cy="313.248" r="19.0506" transform="rotate(57.2505 709.783 313.248)" stroke="#6F56E6" stroke-width="5"/>
<circle cx="827.233" cy="350.447" r="19.0506" transform="rotate(57.2505 827.233 350.447)" stroke="#6F56E6" stroke-width="5"/>
<circle cx="806.444" cy="324.101" r="19.0506" transform="rotate(57.2505 806.444 324.101)" stroke="#6F56E6" stroke-width="5"/>
<circle cx="783.976" cy="309.085" r="19.0506" transform="rotate(57.2505 783.976 309.085)" stroke="#6F56E6" stroke-width="5"/>
<circle cx="752.381" cy="303.783" r="19.0506" transform="rotate(57.2505 752.381 303.783)" stroke="#6F56E6" stroke-width="5"/>
<circle cx="772.655" cy="343.272" r="48.4888" transform="rotate(57.2505 772.655 343.272)" fill="white"/>
<circle cx="728.885" cy="332.988" r="19.0506" transform="rotate(57.2505 728.885 332.988)" stroke="#6F56E6" stroke-width="5"/>
<circle cx="751.614" cy="350.398" r="19.0506" transform="rotate(57.2505 751.614 350.398)" stroke="#6F56E6" stroke-width="5"/>
<circle cx="777.771" cy="359.196" r="19.0506" transform="rotate(57.2505 777.771 359.196)" stroke="#6F56E6" stroke-width="5"/>
<circle cx="805.744" cy="366.828" r="19.0506" transform="rotate(57.2505 805.744 366.828)" stroke="#6F56E6" stroke-width="5"/>
<circle cx="830.217" cy="369.024" r="19.0506" transform="rotate(57.2505 830.217 369.024)" stroke="#6F56E6" stroke-width="5"/>
<circle cx="729.655" cy="304.305" r="19.0506" transform="rotate(57.2505 729.655 304.305)" stroke="#6F56E6" stroke-width="5"/>
<circle cx="709.783" cy="313.248" r="19.0506" transform="rotate(57.2505 709.783 313.248)" stroke="#6F56E6" stroke-width="5"/>
<circle cx="827.233" cy="350.447" r="19.0506" transform="rotate(57.2505 827.233 350.447)" stroke="#6F56E6" stroke-width="5"/>
<circle cx="806.444" cy="324.101" r="19.0506" transform="rotate(57.2505 806.444 324.101)" stroke="#6F56E6" stroke-width="5"/>
<circle cx="783.976" cy="309.085" r="19.0506" transform="rotate(57.2505 783.976 309.085)" stroke="#6F56E6" stroke-width="5"/>
<circle cx="752.381" cy="303.783" r="19.0506" transform="rotate(57.2505 752.381 303.783)" stroke="#6F56E6" stroke-width="5"/>
<circle cx="772.655" cy="343.272" r="48.4888" transform="rotate(57.2505 772.655 343.272)" fill="white"/>
<circle cx="728.885" cy="332.988" r="19.0506" transform="rotate(57.2505 728.885 332.988)" stroke="#6F56E6" stroke-width="5"/>
<circle cx="751.614" cy="350.398" r="19.0506" transform="rotate(57.2505 751.614 350.398)" stroke="#6F56E6" stroke-width="5"/>
<circle cx="777.771" cy="359.196" r="19.0506" transform="rotate(57.2505 777.771 359.196)" stroke="#6F56E6" stroke-width="5"/>
<circle cx="805.744" cy="366.828" r="19.0506" transform="rotate(57.2505 805.744 366.828)" stroke="#6F56E6" stroke-width="5"/>
<circle cx="830.217" cy="369.024" r="19.0506" transform="rotate(57.2505 830.217 369.024)" stroke="#6F56E6" stroke-width="5"/>
<circle cx="763.905" cy="70.5734" r="11.8652" transform="rotate(34.8785 763.905 70.5734)" fill="white"/>
<circle cx="765.195" cy="77.8" r="9.36517" transform="rotate(34.8785 765.195 77.8)" stroke="#CBEA69" stroke-width="5"/>
<circle cx="733.487" cy="49.3703" r="11.8652" transform="rotate(34.8785 733.487 49.3703)" fill="white"/>
<circle cx="756.386" cy="16.5187" r="11.8652" transform="rotate(34.8785 756.386 16.5187)" fill="white"/>
<circle cx="786.804" cy="37.7219" r="11.8652" transform="rotate(34.8785 786.804 37.7219)" fill="white"/>
<circle cx="444" cy="220" r="37.6263" transform="rotate(57.2505 444 220)" fill="white"/>
<circle cx="459.923" cy="200.212" r="5.20271" stroke="#FDE15A" stroke-width="5"/>
<circle cx="408.105" cy="219.818" r="5.20271" stroke="#A5E783" stroke-width="5"/>
<circle cx="471.128" cy="240.125" r="7.30345" stroke="#FD8CC8" stroke-width="5"/>
<circle cx="196" cy="17" r="17" fill="white"/>
<circle cx="18.0489" cy="139.285" r="13.1944" stroke="#CBEA69" stroke-width="5"/>
<circle cx="15.6944" cy="154.979" r="13.1944" stroke="#CBEA69" stroke-width="5"/>
<circle cx="84.7501" cy="97.6944" r="13.1944" stroke="#CBEA69" stroke-width="5"/>
<circle cx="60.4239" cy="100.048" r="13.1944" stroke="#CBEA69" stroke-width="5"/>
<circle cx="42.3751" cy="107.896" r="13.1944" stroke="#CBEA69" stroke-width="5"/>
<circle cx="26.6808" cy="125.16" r="13.1944" stroke="#CBEA69" stroke-width="5"/>
<circle cx="58.8545" cy="128.299" r="35.3125" fill="white"/>
<circle cx="35.3126" cy="151.056" r="13.1944" stroke="#CBEA69" stroke-width="5"/>
<circle cx="54.9308" cy="143.993" r="13.1944" stroke="#CBEA69" stroke-width="5"/>
<circle cx="70.6251" cy="131.438" r="13.1944" stroke="#CBEA69" stroke-width="5"/>
<circle cx="86.3194" cy="117.313" r="13.1944" stroke="#CBEA69" stroke-width="5"/>
<circle cx="97.3058" cy="103.188" r="13.1944" stroke="#CBEA69" stroke-width="5"/>
<circle cx="18.0489" cy="139.285" r="13.1944" stroke="#CBEA69" stroke-width="5"/>
<circle cx="15.6944" cy="154.979" r="13.1944" stroke="#CBEA69" stroke-width="5"/>
<circle cx="84.7501" cy="97.6944" r="13.1944" stroke="#CBEA69" stroke-width="5"/>
<circle cx="60.4239" cy="100.048" r="13.1944" stroke="#CBEA69" stroke-width="5"/>
<circle cx="42.3751" cy="107.896" r="13.1944" stroke="#CBEA69" stroke-width="5"/>
<circle cx="26.6808" cy="125.16" r="13.1944" stroke="#CBEA69" stroke-width="5"/>
<circle cx="58.8545" cy="128.299" r="35.3125" fill="white"/>
<circle cx="35.3126" cy="151.056" r="13.1944" stroke="#CBEA69" stroke-width="5"/>
<circle cx="54.9308" cy="143.993" r="13.1944" stroke="#CBEA69" stroke-width="5"/>
<circle cx="70.6251" cy="131.438" r="13.1944" stroke="#CBEA69" stroke-width="5"/>
<circle cx="86.3194" cy="117.313" r="13.1944" stroke="#CBEA69" stroke-width="5"/>
<circle cx="97.3058" cy="103.188" r="13.1944" stroke="#CBEA69" stroke-width="5"/>
<circle cx="233" cy="278" r="20" fill="white"/>
</svg>
