<svg width="1270" height="1050" viewBox="0 0 1270 1050" fill="none" xmlns="http://www.w3.org/2000/svg">
<circle cx="124.049" cy="198.285" r="13.1944" stroke="#CBEA69" stroke-width="5"/>
<circle cx="121.694" cy="213.979" r="13.1944" stroke="#CBEA69" stroke-width="5"/>
<circle cx="190.75" cy="156.694" r="13.1944" stroke="#CBEA69" stroke-width="5"/>
<circle cx="166.424" cy="159.048" r="13.1944" stroke="#CBEA69" stroke-width="5"/>
<circle cx="148.375" cy="166.896" r="13.1944" stroke="#CBEA69" stroke-width="5"/>
<circle cx="132.681" cy="184.16" r="13.1944" stroke="#CBEA69" stroke-width="5"/>
<circle cx="164.854" cy="187.299" r="35.3125" fill="white"/>
<circle cx="141.312" cy="210.056" r="13.1944" stroke="#CBEA69" stroke-width="5"/>
<circle cx="160.931" cy="202.993" r="13.1944" stroke="#CBEA69" stroke-width="5"/>
<circle cx="176.625" cy="190.438" r="13.1944" stroke="#CBEA69" stroke-width="5"/>
<circle cx="192.319" cy="176.313" r="13.1944" stroke="#CBEA69" stroke-width="5"/>
<circle cx="203.306" cy="162.188" r="13.1944" stroke="#CBEA69" stroke-width="5"/>
<circle cx="124.049" cy="198.285" r="13.1944" stroke="#CBEA69" stroke-width="5"/>
<circle cx="121.694" cy="213.979" r="13.1944" stroke="#CBEA69" stroke-width="5"/>
<circle cx="190.75" cy="156.694" r="13.1944" stroke="#CBEA69" stroke-width="5"/>
<circle cx="166.424" cy="159.048" r="13.1944" stroke="#CBEA69" stroke-width="5"/>
<circle cx="148.375" cy="166.896" r="13.1944" stroke="#CBEA69" stroke-width="5"/>
<circle cx="132.681" cy="184.16" r="13.1944" stroke="#CBEA69" stroke-width="5"/>
<circle cx="164.854" cy="187.299" r="35.3125" fill="white"/>
<circle cx="141.312" cy="210.056" r="13.1944" stroke="#CBEA69" stroke-width="5"/>
<circle cx="160.931" cy="202.993" r="13.1944" stroke="#CBEA69" stroke-width="5"/>
<circle cx="176.625" cy="190.438" r="13.1944" stroke="#CBEA69" stroke-width="5"/>
<circle cx="192.319" cy="176.313" r="13.1944" stroke="#CBEA69" stroke-width="5"/>
<circle cx="203.306" cy="162.188" r="13.1944" stroke="#CBEA69" stroke-width="5"/>
<circle cx="106" cy="460" r="20" fill="white"/>
<circle cx="473" cy="109" r="17" fill="white"/>
<circle cx="542" cy="324" r="37.6263" transform="rotate(57.2505 542 324)" fill="white"/>
<circle cx="557.924" cy="304.211" r="5.20271" stroke="#FDE15A" stroke-width="5"/>
<circle cx="506.106" cy="323.818" r="5.20271" stroke="#A5E783" stroke-width="5"/>
<circle cx="569.128" cy="344.125" r="7.30345" stroke="#FD8CC8" stroke-width="5"/>
<circle cx="816.5" cy="442.5" r="30.923" transform="rotate(57.2505 816.5 442.5)" stroke="#EA80B9" stroke-width="4"/>
<circle cx="816.548" cy="442.548" r="24.4837" transform="rotate(57.2505 816.548 442.548)" stroke="#67D3F9" stroke-width="4"/>
<circle cx="816.806" cy="442.808" r="17.8378" transform="rotate(57.2505 816.806 442.808)" stroke="#6F56E6" stroke-width="4"/>
<circle cx="816.911" cy="442.91" r="11.7994" transform="rotate(57.2505 816.911 442.91)" stroke="#CBEA69" stroke-width="4"/>
<circle cx="816.788" cy="442.79" r="8.31563" transform="rotate(57.2505 816.788 442.79)" fill="white"/>
<circle cx="1054.11" cy="149.898" r="11.8652" transform="rotate(34.8785 1054.11 149.898)" fill="white"/>
<circle cx="1055.4" cy="157.124" r="9.36517" transform="rotate(34.8785 1055.4 157.124)" stroke="#CBEA69" stroke-width="5"/>
<circle cx="1023.7" cy="128.695" r="11.8652" transform="rotate(34.8785 1023.7 128.695)" fill="white"/>
<circle cx="1046.6" cy="95.843" r="11.8652" transform="rotate(34.8785 1046.6 95.843)" fill="white"/>
<circle cx="1077.01" cy="117.046" r="11.8652" transform="rotate(34.8785 1077.01 117.046)" fill="white"/>
<circle cx="1061.66" cy="367.305" r="19.0506" transform="rotate(57.2505 1061.66 367.305)" stroke="#6F56E6" stroke-width="5"/>
<circle cx="1041.78" cy="376.248" r="19.0506" transform="rotate(57.2505 1041.78 376.248)" stroke="#6F56E6" stroke-width="5"/>
<circle cx="1159.23" cy="413.447" r="19.0506" transform="rotate(57.2505 1159.23 413.447)" stroke="#6F56E6" stroke-width="5"/>
<circle cx="1138.44" cy="387.101" r="19.0506" transform="rotate(57.2505 1138.44 387.101)" stroke="#6F56E6" stroke-width="5"/>
<circle cx="1115.98" cy="372.085" r="19.0506" transform="rotate(57.2505 1115.98 372.085)" stroke="#6F56E6" stroke-width="5"/>
<circle cx="1084.38" cy="366.783" r="19.0506" transform="rotate(57.2505 1084.38 366.783)" stroke="#6F56E6" stroke-width="5"/>
<circle cx="1104.65" cy="406.272" r="48.4888" transform="rotate(57.2505 1104.65 406.272)" fill="white"/>
<circle cx="1060.89" cy="395.988" r="19.0506" transform="rotate(57.2505 1060.89 395.988)" stroke="#6F56E6" stroke-width="5"/>
<circle cx="1083.61" cy="413.398" r="19.0506" transform="rotate(57.2505 1083.61 413.398)" stroke="#6F56E6" stroke-width="5"/>
<circle cx="1109.77" cy="422.196" r="19.0506" transform="rotate(57.2505 1109.77 422.196)" stroke="#6F56E6" stroke-width="5"/>
<circle cx="1137.74" cy="429.828" r="19.0506" transform="rotate(57.2505 1137.74 429.828)" stroke="#6F56E6" stroke-width="5"/>
<circle cx="1162.22" cy="432.024" r="19.0506" transform="rotate(57.2505 1162.22 432.024)" stroke="#6F56E6" stroke-width="5"/>
<circle cx="1061.66" cy="367.305" r="19.0506" transform="rotate(57.2505 1061.66 367.305)" stroke="#6F56E6" stroke-width="5"/>
<circle cx="1041.78" cy="376.248" r="19.0506" transform="rotate(57.2505 1041.78 376.248)" stroke="#6F56E6" stroke-width="5"/>
<circle cx="1159.23" cy="413.447" r="19.0506" transform="rotate(57.2505 1159.23 413.447)" stroke="#6F56E6" stroke-width="5"/>
<circle cx="1138.44" cy="387.101" r="19.0506" transform="rotate(57.2505 1138.44 387.101)" stroke="#6F56E6" stroke-width="5"/>
<circle cx="1115.98" cy="372.085" r="19.0506" transform="rotate(57.2505 1115.98 372.085)" stroke="#6F56E6" stroke-width="5"/>
<circle cx="1084.38" cy="366.783" r="19.0506" transform="rotate(57.2505 1084.38 366.783)" stroke="#6F56E6" stroke-width="5"/>
<circle cx="1104.65" cy="406.272" r="48.4888" transform="rotate(57.2505 1104.65 406.272)" fill="white"/>
<circle cx="1060.89" cy="395.988" r="19.0506" transform="rotate(57.2505 1060.89 395.988)" stroke="#6F56E6" stroke-width="5"/>
<circle cx="1083.61" cy="413.398" r="19.0506" transform="rotate(57.2505 1083.61 413.398)" stroke="#6F56E6" stroke-width="5"/>
<circle cx="1109.77" cy="422.196" r="19.0506" transform="rotate(57.2505 1109.77 422.196)" stroke="#6F56E6" stroke-width="5"/>
<circle cx="1137.74" cy="429.828" r="19.0506" transform="rotate(57.2505 1137.74 429.828)" stroke="#6F56E6" stroke-width="5"/>
<circle cx="1162.22" cy="432.024" r="19.0506" transform="rotate(57.2505 1162.22 432.024)" stroke="#6F56E6" stroke-width="5"/>
</svg>
