<svg width="113" height="89" viewBox="0 0 113 89" fill="none" xmlns="http://www.w3.org/2000/svg">
<circle cx="18.0484" cy="57.2848" r="13.1944" stroke="#CBEA69" stroke-width="5"/>
<circle cx="15.6944" cy="72.9791" r="13.1944" stroke="#CBEA69" stroke-width="5"/>
<circle cx="84.7501" cy="15.6944" r="13.1944" stroke="#CBEA69" stroke-width="5"/>
<circle cx="60.4234" cy="18.0484" r="13.1944" stroke="#CBEA69" stroke-width="5"/>
<circle cx="42.3751" cy="25.8956" r="13.1944" stroke="#CBEA69" stroke-width="5"/>
<circle cx="26.6808" cy="43.1598" r="13.1944" stroke="#CBEA69" stroke-width="5"/>
<circle cx="58.854" cy="46.2988" r="35.3125" fill="white"/>
<circle cx="35.3126" cy="69.0558" r="13.1944" stroke="#CBEA69" stroke-width="5"/>
<circle cx="54.9308" cy="61.9933" r="13.1944" stroke="#CBEA69" stroke-width="5"/>
<circle cx="70.6251" cy="49.4376" r="13.1944" stroke="#CBEA69" stroke-width="5"/>
<circle cx="86.3194" cy="35.3126" r="13.1944" stroke="#CBEA69" stroke-width="5"/>
<circle cx="97.3058" cy="21.1876" r="13.1944" stroke="#CBEA69" stroke-width="5"/>
<circle cx="18.0484" cy="57.2848" r="13.1944" stroke="#CBEA69" stroke-width="5"/>
<circle cx="15.6944" cy="72.9791" r="13.1944" stroke="#CBEA69" stroke-width="5"/>
<circle cx="84.7501" cy="15.6944" r="13.1944" stroke="#CBEA69" stroke-width="5"/>
<circle cx="60.4234" cy="18.0484" r="13.1944" stroke="#CBEA69" stroke-width="5"/>
<circle cx="42.3751" cy="25.8956" r="13.1944" stroke="#CBEA69" stroke-width="5"/>
<circle cx="26.6808" cy="43.1598" r="13.1944" stroke="#CBEA69" stroke-width="5"/>
<circle cx="58.854" cy="46.2988" r="35.3125" fill="white"/>
<circle cx="35.3126" cy="69.0558" r="13.1944" stroke="#CBEA69" stroke-width="5"/>
<circle cx="54.9308" cy="61.9933" r="13.1944" stroke="#CBEA69" stroke-width="5"/>
<circle cx="70.6251" cy="49.4376" r="13.1944" stroke="#CBEA69" stroke-width="5"/>
<circle cx="86.3194" cy="35.3126" r="13.1944" stroke="#CBEA69" stroke-width="5"/>
<circle cx="97.3058" cy="21.1876" r="13.1944" stroke="#CBEA69" stroke-width="5"/>
</svg>
