<svg width="969" height="800" viewBox="0 0 969 800" fill="none" xmlns="http://www.w3.org/2000/svg">
<circle cx="799.655" cy="359.305" r="19.0506" transform="rotate(57.2505 799.655 359.305)" stroke="#6F56E6" stroke-width="5"/>
<circle cx="779.783" cy="368.248" r="19.0506" transform="rotate(57.2505 779.783 368.248)" stroke="#6F56E6" stroke-width="5"/>
<circle cx="897.233" cy="405.447" r="19.0506" transform="rotate(57.2505 897.233 405.447)" stroke="#6F56E6" stroke-width="5"/>
<circle cx="876.444" cy="379.101" r="19.0506" transform="rotate(57.2505 876.444 379.101)" stroke="#6F56E6" stroke-width="5"/>
<circle cx="853.976" cy="364.085" r="19.0506" transform="rotate(57.2505 853.976 364.085)" stroke="#6F56E6" stroke-width="5"/>
<circle cx="822.381" cy="358.783" r="19.0506" transform="rotate(57.2505 822.381 358.783)" stroke="#6F56E6" stroke-width="5"/>
<circle cx="842.655" cy="398.272" r="48.4888" transform="rotate(57.2505 842.655 398.272)" fill="white"/>
<circle cx="798.885" cy="387.988" r="19.0506" transform="rotate(57.2505 798.885 387.988)" stroke="#6F56E6" stroke-width="5"/>
<circle cx="821.614" cy="405.398" r="19.0506" transform="rotate(57.2505 821.614 405.398)" stroke="#6F56E6" stroke-width="5"/>
<circle cx="847.771" cy="414.196" r="19.0506" transform="rotate(57.2505 847.771 414.196)" stroke="#6F56E6" stroke-width="5"/>
<circle cx="875.744" cy="421.828" r="19.0506" transform="rotate(57.2505 875.744 421.828)" stroke="#6F56E6" stroke-width="5"/>
<circle cx="900.217" cy="424.024" r="19.0506" transform="rotate(57.2505 900.217 424.024)" stroke="#6F56E6" stroke-width="5"/>
<circle cx="799.655" cy="359.305" r="19.0506" transform="rotate(57.2505 799.655 359.305)" stroke="#6F56E6" stroke-width="5"/>
<circle cx="779.783" cy="368.248" r="19.0506" transform="rotate(57.2505 779.783 368.248)" stroke="#6F56E6" stroke-width="5"/>
<circle cx="897.233" cy="405.447" r="19.0506" transform="rotate(57.2505 897.233 405.447)" stroke="#6F56E6" stroke-width="5"/>
<circle cx="876.444" cy="379.101" r="19.0506" transform="rotate(57.2505 876.444 379.101)" stroke="#6F56E6" stroke-width="5"/>
<circle cx="853.976" cy="364.085" r="19.0506" transform="rotate(57.2505 853.976 364.085)" stroke="#6F56E6" stroke-width="5"/>
<circle cx="822.381" cy="358.783" r="19.0506" transform="rotate(57.2505 822.381 358.783)" stroke="#6F56E6" stroke-width="5"/>
<circle cx="842.655" cy="398.272" r="48.4888" transform="rotate(57.2505 842.655 398.272)" fill="white"/>
<circle cx="798.885" cy="387.988" r="19.0506" transform="rotate(57.2505 798.885 387.988)" stroke="#6F56E6" stroke-width="5"/>
<circle cx="821.614" cy="405.398" r="19.0506" transform="rotate(57.2505 821.614 405.398)" stroke="#6F56E6" stroke-width="5"/>
<circle cx="847.771" cy="414.196" r="19.0506" transform="rotate(57.2505 847.771 414.196)" stroke="#6F56E6" stroke-width="5"/>
<circle cx="875.744" cy="421.828" r="19.0506" transform="rotate(57.2505 875.744 421.828)" stroke="#6F56E6" stroke-width="5"/>
<circle cx="900.217" cy="424.024" r="19.0506" transform="rotate(57.2505 900.217 424.024)" stroke="#6F56E6" stroke-width="5"/>
<circle cx="833.905" cy="125.573" r="11.8652" transform="rotate(34.8785 833.905 125.573)" fill="white"/>
<circle cx="835.195" cy="132.8" r="9.36517" transform="rotate(34.8785 835.195 132.8)" stroke="#CBEA69" stroke-width="5"/>
<circle cx="803.487" cy="104.37" r="11.8652" transform="rotate(34.8785 803.487 104.37)" fill="white"/>
<circle cx="826.386" cy="71.5187" r="11.8652" transform="rotate(34.8785 826.386 71.5187)" fill="white"/>
<circle cx="856.804" cy="92.7219" r="11.8652" transform="rotate(34.8785 856.804 92.7219)" fill="white"/>
<circle cx="514" cy="275" r="37.6263" transform="rotate(57.2505 514 275)" fill="white"/>
<circle cx="529.923" cy="255.212" r="5.20271" stroke="#FDE15A" stroke-width="5"/>
<circle cx="478.105" cy="274.818" r="5.20271" stroke="#A5E783" stroke-width="5"/>
<circle cx="541.128" cy="295.125" r="7.30345" stroke="#FD8CC8" stroke-width="5"/>
<circle cx="266" cy="72" r="17" fill="white"/>
<circle cx="88.0489" cy="194.285" r="13.1944" stroke="#CBEA69" stroke-width="5"/>
<circle cx="85.6944" cy="209.979" r="13.1944" stroke="#CBEA69" stroke-width="5"/>
<circle cx="154.75" cy="152.694" r="13.1944" stroke="#CBEA69" stroke-width="5"/>
<circle cx="130.424" cy="155.048" r="13.1944" stroke="#CBEA69" stroke-width="5"/>
<circle cx="112.375" cy="162.896" r="13.1944" stroke="#CBEA69" stroke-width="5"/>
<circle cx="96.6808" cy="180.16" r="13.1944" stroke="#CBEA69" stroke-width="5"/>
<circle cx="128.854" cy="183.299" r="35.3125" fill="white"/>
<circle cx="105.313" cy="206.056" r="13.1944" stroke="#CBEA69" stroke-width="5"/>
<circle cx="124.931" cy="198.993" r="13.1944" stroke="#CBEA69" stroke-width="5"/>
<circle cx="140.625" cy="186.438" r="13.1944" stroke="#CBEA69" stroke-width="5"/>
<circle cx="156.319" cy="172.313" r="13.1944" stroke="#CBEA69" stroke-width="5"/>
<circle cx="167.306" cy="158.188" r="13.1944" stroke="#CBEA69" stroke-width="5"/>
<circle cx="88.0489" cy="194.285" r="13.1944" stroke="#CBEA69" stroke-width="5"/>
<circle cx="85.6944" cy="209.979" r="13.1944" stroke="#CBEA69" stroke-width="5"/>
<circle cx="154.75" cy="152.694" r="13.1944" stroke="#CBEA69" stroke-width="5"/>
<circle cx="130.424" cy="155.048" r="13.1944" stroke="#CBEA69" stroke-width="5"/>
<circle cx="112.375" cy="162.896" r="13.1944" stroke="#CBEA69" stroke-width="5"/>
<circle cx="96.6808" cy="180.16" r="13.1944" stroke="#CBEA69" stroke-width="5"/>
<circle cx="128.854" cy="183.299" r="35.3125" fill="white"/>
<circle cx="105.313" cy="206.056" r="13.1944" stroke="#CBEA69" stroke-width="5"/>
<circle cx="124.931" cy="198.993" r="13.1944" stroke="#CBEA69" stroke-width="5"/>
<circle cx="140.625" cy="186.438" r="13.1944" stroke="#CBEA69" stroke-width="5"/>
<circle cx="156.319" cy="172.313" r="13.1944" stroke="#CBEA69" stroke-width="5"/>
<circle cx="167.306" cy="158.188" r="13.1944" stroke="#CBEA69" stroke-width="5"/>
<circle cx="303" cy="333" r="20" fill="white"/>
</svg>
