<svg width="712" height="800" viewBox="0 0 712 800" fill="none" xmlns="http://www.w3.org/2000/svg">
<circle cx="528.681" cy="461.387" r="13.4194" transform="rotate(57.2505 528.681 461.387)" stroke="#6F56E6" stroke-width="5"/>
<circle cx="514" cy="467.992" r="13.4194" transform="rotate(57.2505 514 467.992)" stroke="#6F56E6" stroke-width="5"/>
<circle cx="600.76" cy="495.471" r="13.4194" transform="rotate(57.2505 600.76 495.471)" stroke="#6F56E6" stroke-width="5"/>
<circle cx="585.404" cy="476.009" r="13.4194" transform="rotate(57.2505 585.404 476.009)" stroke="#6F56E6" stroke-width="5"/>
<circle cx="568.807" cy="464.916" r="13.4194" transform="rotate(57.2505 568.807 464.916)" stroke="#6F56E6" stroke-width="5"/>
<circle cx="545.467" cy="461.001" r="13.4194" transform="rotate(57.2505 545.467 461.001)" stroke="#6F56E6" stroke-width="5"/>
<circle cx="560.444" cy="490.17" r="35.8186" transform="rotate(57.2505 560.444 490.17)" fill="white"/>
<circle cx="528.111" cy="482.573" r="13.4194" transform="rotate(57.2505 528.111 482.573)" stroke="#6F56E6" stroke-width="5"/>
<circle cx="544.902" cy="495.434" r="13.4194" transform="rotate(57.2505 544.902 495.434)" stroke="#6F56E6" stroke-width="5"/>
<circle cx="564.224" cy="501.935" r="13.4194" transform="rotate(57.2505 564.224 501.935)" stroke="#6F56E6" stroke-width="5"/>
<circle cx="584.887" cy="507.571" r="13.4194" transform="rotate(57.2505 584.887 507.571)" stroke="#6F56E6" stroke-width="5"/>
<circle cx="602.965" cy="509.195" r="13.4194" transform="rotate(57.2505 602.965 509.195)" stroke="#6F56E6" stroke-width="5"/>
<circle cx="528.681" cy="461.387" r="13.4194" transform="rotate(57.2505 528.681 461.387)" stroke="#6F56E6" stroke-width="5"/>
<circle cx="514" cy="467.992" r="13.4194" transform="rotate(57.2505 514 467.992)" stroke="#6F56E6" stroke-width="5"/>
<circle cx="600.76" cy="495.471" r="13.4194" transform="rotate(57.2505 600.76 495.471)" stroke="#6F56E6" stroke-width="5"/>
<circle cx="585.404" cy="476.009" r="13.4194" transform="rotate(57.2505 585.404 476.009)" stroke="#6F56E6" stroke-width="5"/>
<circle cx="568.807" cy="464.916" r="13.4194" transform="rotate(57.2505 568.807 464.916)" stroke="#6F56E6" stroke-width="5"/>
<circle cx="545.467" cy="461.001" r="13.4194" transform="rotate(57.2505 545.467 461.001)" stroke="#6F56E6" stroke-width="5"/>
<circle cx="560.444" cy="490.17" r="35.8186" transform="rotate(57.2505 560.444 490.17)" fill="white"/>
<circle cx="528.111" cy="482.573" r="13.4194" transform="rotate(57.2505 528.111 482.573)" stroke="#6F56E6" stroke-width="5"/>
<circle cx="544.902" cy="495.434" r="13.4194" transform="rotate(57.2505 544.902 495.434)" stroke="#6F56E6" stroke-width="5"/>
<circle cx="564.224" cy="501.935" r="13.4194" transform="rotate(57.2505 564.224 501.935)" stroke="#6F56E6" stroke-width="5"/>
<circle cx="584.887" cy="507.571" r="13.4194" transform="rotate(57.2505 584.887 507.571)" stroke="#6F56E6" stroke-width="5"/>
<circle cx="602.965" cy="509.195" r="13.4194" transform="rotate(57.2505 602.965 509.195)" stroke="#6F56E6" stroke-width="5"/>
<circle cx="606.865" cy="306.133" r="8.76478" transform="rotate(34.8785 606.865 306.133)" fill="white"/>
<circle cx="607.817" cy="311.471" r="6.26478" transform="rotate(34.8785 607.817 311.471)" stroke="#CBEA69" stroke-width="5"/>
<circle cx="584.395" cy="290.47" r="8.76478" transform="rotate(34.8785 584.395 290.47)" fill="white"/>
<circle cx="601.311" cy="266.202" r="8.76478" transform="rotate(34.8785 601.311 266.202)" fill="white"/>
<circle cx="623.78" cy="281.865" r="8.76478" transform="rotate(34.8785 623.78 281.865)" fill="white"/>
<circle cx="264.412" cy="334.412" r="27.7945" transform="rotate(57.2505 264.412 334.412)" fill="white"/>
<circle cx="276.174" cy="319.794" r="3.18998" stroke="#FDE15A" stroke-width="5"/>
<circle cx="237.897" cy="334.279" r="3.18998" stroke="#A5E783" stroke-width="5"/>
<circle cx="284.452" cy="349.278" r="4.74179" stroke="#FD8CC8" stroke-width="5"/>
<circle cx="66.3317" cy="136.316" r="9.09346" stroke="#CBEA69" stroke-width="5"/>
<circle cx="64.5935" cy="147.91" r="9.09346" stroke="#CBEA69" stroke-width="5"/>
<circle cx="115.604" cy="105.593" r="9.09346" stroke="#CBEA69" stroke-width="5"/>
<circle cx="97.6345" cy="107.333" r="9.09346" stroke="#CBEA69" stroke-width="5"/>
<circle cx="84.3015" cy="113.131" r="9.09346" stroke="#CBEA69" stroke-width="5"/>
<circle cx="72.7087" cy="125.882" r="9.09346" stroke="#CBEA69" stroke-width="5"/>
<circle cx="96.4749" cy="128.2" r="26.0853" fill="white"/>
<circle cx="79.0847" cy="145.01" r="9.09346" stroke="#CBEA69" stroke-width="5"/>
<circle cx="93.5769" cy="139.793" r="9.09346" stroke="#CBEA69" stroke-width="5"/>
<circle cx="105.17" cy="130.519" r="9.09346" stroke="#CBEA69" stroke-width="5"/>
<circle cx="116.764" cy="120.085" r="9.09346" stroke="#CBEA69" stroke-width="5"/>
<circle cx="124.88" cy="109.651" r="9.09346" stroke="#CBEA69" stroke-width="5"/>
<circle cx="66.3317" cy="136.316" r="9.09346" stroke="#CBEA69" stroke-width="5"/>
<circle cx="64.5935" cy="147.91" r="9.09346" stroke="#CBEA69" stroke-width="5"/>
<circle cx="115.604" cy="105.593" r="9.09346" stroke="#CBEA69" stroke-width="5"/>
<circle cx="97.6345" cy="107.333" r="9.09346" stroke="#CBEA69" stroke-width="5"/>
<circle cx="84.3015" cy="113.131" r="9.09346" stroke="#CBEA69" stroke-width="5"/>
<circle cx="72.7087" cy="125.882" r="9.09346" stroke="#CBEA69" stroke-width="5"/>
<circle cx="96.4749" cy="128.2" r="26.0853" fill="white"/>
<circle cx="79.0847" cy="145.01" r="9.09346" stroke="#CBEA69" stroke-width="5"/>
<circle cx="93.5769" cy="139.793" r="9.09346" stroke="#CBEA69" stroke-width="5"/>
<circle cx="105.17" cy="130.519" r="9.09346" stroke="#CBEA69" stroke-width="5"/>
<circle cx="116.764" cy="120.085" r="9.09346" stroke="#CBEA69" stroke-width="5"/>
<circle cx="124.88" cy="109.651" r="9.09346" stroke="#CBEA69" stroke-width="5"/>
<ellipse cx="78" cy="421.5" rx="15" ry="14.5" fill="white"/>
<circle cx="288.5" cy="77.5" r="12.5" fill="white"/>
<circle cx="529.61" cy="125.611" r="22.3202" transform="rotate(57.2505 529.61 125.611)" stroke="#EA80B9" stroke-width="4"/>
<circle cx="529.646" cy="125.648" r="17.5635" transform="rotate(57.2505 529.646 125.648)" stroke="#67D3F9" stroke-width="4"/>
<circle cx="529.838" cy="125.837" r="12.6542" transform="rotate(57.2505 529.838 125.837)" stroke="#6F56E6" stroke-width="4"/>
<circle cx="529.916" cy="125.914" r="8.19359" transform="rotate(57.2505 529.916 125.914)" stroke="#CBEA69" stroke-width="4"/>
<circle cx="529.824" cy="125.824" r="6.14274" transform="rotate(57.2505 529.824 125.824)" fill="white"/>
</svg>
