<svg width="913" height="443" viewBox="0 0 913 443" fill="none" xmlns="http://www.w3.org/2000/svg">
<g id="Group 636">
<g id="Group 372">
<circle id="Ellipse 277" cx="782.655" cy="336.305" r="19.0506" transform="rotate(57.2505 782.655 336.305)" stroke="#6F56E6" stroke-width="5"/>
<circle id="Ellipse 278" cx="762.783" cy="345.248" r="19.0506" transform="rotate(57.2505 762.783 345.248)" stroke="#6F56E6" stroke-width="5"/>
<circle id="Ellipse 279" cx="880.233" cy="382.447" r="19.0506" transform="rotate(57.2505 880.233 382.447)" stroke="#6F56E6" stroke-width="5"/>
<circle id="Ellipse 280" cx="859.444" cy="356.101" r="19.0506" transform="rotate(57.2505 859.444 356.101)" stroke="#6F56E6" stroke-width="5"/>
<circle id="Ellipse 281" cx="836.976" cy="341.085" r="19.0506" transform="rotate(57.2505 836.976 341.085)" stroke="#6F56E6" stroke-width="5"/>
<circle id="Ellipse 282" cx="805.381" cy="335.783" r="19.0506" transform="rotate(57.2505 805.381 335.783)" stroke="#6F56E6" stroke-width="5"/>
<circle id="Ellipse 283" cx="825.655" cy="375.272" r="48.4888" transform="rotate(57.2505 825.655 375.272)" fill="white"/>
<circle id="Ellipse 284" cx="781.885" cy="364.988" r="19.0506" transform="rotate(57.2505 781.885 364.988)" stroke="#6F56E6" stroke-width="5"/>
<circle id="Ellipse 285" cx="804.614" cy="382.398" r="19.0506" transform="rotate(57.2505 804.614 382.398)" stroke="#6F56E6" stroke-width="5"/>
<circle id="Ellipse 286" cx="830.772" cy="391.196" r="19.0506" transform="rotate(57.2505 830.772 391.196)" stroke="#6F56E6" stroke-width="5"/>
<circle id="Ellipse 287" cx="858.745" cy="398.828" r="19.0506" transform="rotate(57.2505 858.745 398.828)" stroke="#6F56E6" stroke-width="5"/>
<circle id="Ellipse 288" cx="883.217" cy="401.024" r="19.0506" transform="rotate(57.2505 883.217 401.024)" stroke="#6F56E6" stroke-width="5"/>
<circle id="Ellipse 289" cx="782.655" cy="336.305" r="19.0506" transform="rotate(57.2505 782.655 336.305)" stroke="#6F56E6" stroke-width="5"/>
<circle id="Ellipse 290" cx="762.783" cy="345.248" r="19.0506" transform="rotate(57.2505 762.783 345.248)" stroke="#6F56E6" stroke-width="5"/>
<circle id="Ellipse 291" cx="880.233" cy="382.447" r="19.0506" transform="rotate(57.2505 880.233 382.447)" stroke="#6F56E6" stroke-width="5"/>
<circle id="Ellipse 292" cx="859.444" cy="356.101" r="19.0506" transform="rotate(57.2505 859.444 356.101)" stroke="#6F56E6" stroke-width="5"/>
<circle id="Ellipse 293" cx="836.976" cy="341.085" r="19.0506" transform="rotate(57.2505 836.976 341.085)" stroke="#6F56E6" stroke-width="5"/>
<circle id="Ellipse 294" cx="805.381" cy="335.783" r="19.0506" transform="rotate(57.2505 805.381 335.783)" stroke="#6F56E6" stroke-width="5"/>
<circle id="Ellipse 295" cx="825.655" cy="375.272" r="48.4888" transform="rotate(57.2505 825.655 375.272)" fill="white"/>
<circle id="Ellipse 296" cx="781.885" cy="364.988" r="19.0506" transform="rotate(57.2505 781.885 364.988)" stroke="#6F56E6" stroke-width="5"/>
<circle id="Ellipse 297" cx="804.614" cy="382.398" r="19.0506" transform="rotate(57.2505 804.614 382.398)" stroke="#6F56E6" stroke-width="5"/>
<circle id="Ellipse 298" cx="830.772" cy="391.196" r="19.0506" transform="rotate(57.2505 830.772 391.196)" stroke="#6F56E6" stroke-width="5"/>
<circle id="Ellipse 299" cx="858.745" cy="398.828" r="19.0506" transform="rotate(57.2505 858.745 398.828)" stroke="#6F56E6" stroke-width="5"/>
<circle id="Ellipse 300" cx="883.217" cy="401.024" r="19.0506" transform="rotate(57.2505 883.217 401.024)" stroke="#6F56E6" stroke-width="5"/>
</g>
<g id="Group 372_2">
<circle id="Ellipse 261" cx="747.905" cy="98.5734" r="11.8652" transform="rotate(34.8785 747.905 98.5734)" fill="white"/>
<circle id="Ellipse 305" cx="749.195" cy="105.8" r="9.36517" transform="rotate(34.8785 749.195 105.8)" stroke="#CBEA69" stroke-width="5"/>
<circle id="Ellipse 262" cx="717.487" cy="77.3703" r="11.8652" transform="rotate(34.8785 717.487 77.3703)" fill="white"/>
<circle id="Ellipse 263" cx="740.386" cy="44.5187" r="11.8652" transform="rotate(34.8785 740.386 44.5187)" fill="white"/>
<circle id="Ellipse 264" cx="770.804" cy="65.7219" r="11.8652" transform="rotate(34.8785 770.804 65.7219)" fill="white"/>
</g>
<g id="Group 372_3">
<circle id="Ellipse 301" cx="444" cy="220" r="37.6263" transform="rotate(57.2505 444 220)" fill="white"/>
<circle id="Ellipse 302" cx="459.924" cy="200.212" r="5.20271" stroke="#FDE15A" stroke-width="5"/>
<circle id="Ellipse 303" cx="408.106" cy="219.818" r="5.20271" stroke="#A5E783" stroke-width="5"/>
<circle id="Ellipse 304" cx="471.128" cy="240.125" r="7.30345" stroke="#FD8CC8" stroke-width="5"/>
</g>
<circle id="Ellipse 1672" cx="196" cy="17" r="17" fill="white"/>
<g id="Group 640">
<g id="Group 372_4">
<circle id="Ellipse 247" cx="18.0484" cy="139.285" r="13.1944" stroke="#CBEA69" stroke-width="5"/>
<circle id="Ellipse 248" cx="15.6944" cy="154.979" r="13.1944" stroke="#CBEA69" stroke-width="5"/>
<circle id="Ellipse 254" cx="84.7501" cy="97.6944" r="13.1944" stroke="#CBEA69" stroke-width="5"/>
<circle id="Ellipse 255" cx="60.4234" cy="100.048" r="13.1944" stroke="#CBEA69" stroke-width="5"/>
<circle id="Ellipse 256" cx="42.3751" cy="107.896" r="13.1944" stroke="#CBEA69" stroke-width="5"/>
<circle id="Ellipse 257" cx="26.6808" cy="125.16" r="13.1944" stroke="#CBEA69" stroke-width="5"/>
<circle id="Ellipse 246" cx="58.854" cy="128.299" r="35.3125" fill="white"/>
<circle id="Ellipse 249" cx="35.3126" cy="151.056" r="13.1944" stroke="#CBEA69" stroke-width="5"/>
<circle id="Ellipse 250" cx="54.9308" cy="143.993" r="13.1944" stroke="#CBEA69" stroke-width="5"/>
<circle id="Ellipse 251" cx="70.6251" cy="131.438" r="13.1944" stroke="#CBEA69" stroke-width="5"/>
<circle id="Ellipse 252" cx="86.3194" cy="117.313" r="13.1944" stroke="#CBEA69" stroke-width="5"/>
<circle id="Ellipse 253" cx="97.3058" cy="103.188" r="13.1944" stroke="#CBEA69" stroke-width="5"/>
<circle id="Ellipse 265" cx="18.0484" cy="139.285" r="13.1944" stroke="#CBEA69" stroke-width="5"/>
<circle id="Ellipse 266" cx="15.6944" cy="154.979" r="13.1944" stroke="#CBEA69" stroke-width="5"/>
<circle id="Ellipse 267" cx="84.7501" cy="97.6944" r="13.1944" stroke="#CBEA69" stroke-width="5"/>
<circle id="Ellipse 268" cx="60.4234" cy="100.048" r="13.1944" stroke="#CBEA69" stroke-width="5"/>
<circle id="Ellipse 269" cx="42.3751" cy="107.896" r="13.1944" stroke="#CBEA69" stroke-width="5"/>
<circle id="Ellipse 270" cx="26.6808" cy="125.16" r="13.1944" stroke="#CBEA69" stroke-width="5"/>
<circle id="Ellipse 271" cx="58.854" cy="128.299" r="35.3125" fill="white"/>
<circle id="Ellipse 272" cx="35.3126" cy="151.056" r="13.1944" stroke="#CBEA69" stroke-width="5"/>
<circle id="Ellipse 273" cx="54.9308" cy="143.993" r="13.1944" stroke="#CBEA69" stroke-width="5"/>
<circle id="Ellipse 274" cx="70.6251" cy="131.438" r="13.1944" stroke="#CBEA69" stroke-width="5"/>
<circle id="Ellipse 275" cx="86.3194" cy="117.313" r="13.1944" stroke="#CBEA69" stroke-width="5"/>
<circle id="Ellipse 276" cx="97.3058" cy="103.188" r="13.1944" stroke="#CBEA69" stroke-width="5"/>
</g>
</g>
<circle id="Ellipse 1672_2" cx="233" cy="278" r="20" fill="white"/>
</g>
</svg>
