<svg width="1039" height="768" viewBox="0 0 1039 768" fill="none" xmlns="http://www.w3.org/2000/svg">
<circle cx="868.655" cy="363.305" r="19.0506" transform="rotate(57.2505 868.655 363.305)" stroke="#6F56E6" stroke-width="5"/>
<circle cx="848.783" cy="372.248" r="19.0506" transform="rotate(57.2505 848.783 372.248)" stroke="#6F56E6" stroke-width="5"/>
<circle cx="966.233" cy="409.447" r="19.0506" transform="rotate(57.2505 966.233 409.447)" stroke="#6F56E6" stroke-width="5"/>
<circle cx="945.444" cy="383.101" r="19.0506" transform="rotate(57.2505 945.444 383.101)" stroke="#6F56E6" stroke-width="5"/>
<circle cx="922.976" cy="368.085" r="19.0506" transform="rotate(57.2505 922.976 368.085)" stroke="#6F56E6" stroke-width="5"/>
<circle cx="891.381" cy="362.783" r="19.0506" transform="rotate(57.2505 891.381 362.783)" stroke="#6F56E6" stroke-width="5"/>
<circle cx="911.655" cy="402.272" r="48.4888" transform="rotate(57.2505 911.655 402.272)" fill="white"/>
<circle cx="867.885" cy="391.988" r="19.0506" transform="rotate(57.2505 867.885 391.988)" stroke="#6F56E6" stroke-width="5"/>
<circle cx="890.614" cy="409.398" r="19.0506" transform="rotate(57.2505 890.614 409.398)" stroke="#6F56E6" stroke-width="5"/>
<circle cx="916.772" cy="418.196" r="19.0506" transform="rotate(57.2505 916.772 418.196)" stroke="#6F56E6" stroke-width="5"/>
<circle cx="944.745" cy="425.828" r="19.0506" transform="rotate(57.2505 944.745 425.828)" stroke="#6F56E6" stroke-width="5"/>
<circle cx="969.217" cy="428.024" r="19.0506" transform="rotate(57.2505 969.217 428.024)" stroke="#6F56E6" stroke-width="5"/>
<circle cx="868.655" cy="363.305" r="19.0506" transform="rotate(57.2505 868.655 363.305)" stroke="#6F56E6" stroke-width="5"/>
<circle cx="848.783" cy="372.248" r="19.0506" transform="rotate(57.2505 848.783 372.248)" stroke="#6F56E6" stroke-width="5"/>
<circle cx="966.233" cy="409.447" r="19.0506" transform="rotate(57.2505 966.233 409.447)" stroke="#6F56E6" stroke-width="5"/>
<circle cx="945.444" cy="383.101" r="19.0506" transform="rotate(57.2505 945.444 383.101)" stroke="#6F56E6" stroke-width="5"/>
<circle cx="922.976" cy="368.085" r="19.0506" transform="rotate(57.2505 922.976 368.085)" stroke="#6F56E6" stroke-width="5"/>
<circle cx="891.381" cy="362.783" r="19.0506" transform="rotate(57.2505 891.381 362.783)" stroke="#6F56E6" stroke-width="5"/>
<circle cx="911.655" cy="402.272" r="48.4888" transform="rotate(57.2505 911.655 402.272)" fill="white"/>
<circle cx="867.885" cy="391.988" r="19.0506" transform="rotate(57.2505 867.885 391.988)" stroke="#6F56E6" stroke-width="5"/>
<circle cx="890.614" cy="409.398" r="19.0506" transform="rotate(57.2505 890.614 409.398)" stroke="#6F56E6" stroke-width="5"/>
<circle cx="916.772" cy="418.196" r="19.0506" transform="rotate(57.2505 916.772 418.196)" stroke="#6F56E6" stroke-width="5"/>
<circle cx="944.745" cy="425.828" r="19.0506" transform="rotate(57.2505 944.745 425.828)" stroke="#6F56E6" stroke-width="5"/>
<circle cx="969.217" cy="428.024" r="19.0506" transform="rotate(57.2505 969.217 428.024)" stroke="#6F56E6" stroke-width="5"/>
<circle cx="833.905" cy="125.573" r="11.8652" transform="rotate(34.8785 833.905 125.573)" fill="white"/>
<circle cx="835.195" cy="132.8" r="9.36517" transform="rotate(34.8785 835.195 132.8)" stroke="#CBEA69" stroke-width="5"/>
<circle cx="803.487" cy="104.37" r="11.8652" transform="rotate(34.8785 803.487 104.37)" fill="white"/>
<circle cx="826.386" cy="71.5187" r="11.8652" transform="rotate(34.8785 826.386 71.5187)" fill="white"/>
<circle cx="856.804" cy="92.7219" r="11.8652" transform="rotate(34.8785 856.804 92.7219)" fill="white"/>
<circle cx="530" cy="247" r="37.6263" transform="rotate(57.2505 530 247)" fill="white"/>
<circle cx="545.924" cy="227.212" r="5.20271" stroke="#FDE15A" stroke-width="5"/>
<circle cx="494.106" cy="246.818" r="5.20271" stroke="#A5E783" stroke-width="5"/>
<circle cx="557.128" cy="267.125" r="7.30345" stroke="#FD8CC8" stroke-width="5"/>
<circle cx="282" cy="44" r="17" fill="white"/>
<circle cx="104.048" cy="166.285" r="13.1944" stroke="#CBEA69" stroke-width="5"/>
<circle cx="101.694" cy="181.979" r="13.1944" stroke="#CBEA69" stroke-width="5"/>
<circle cx="170.75" cy="124.694" r="13.1944" stroke="#CBEA69" stroke-width="5"/>
<circle cx="146.423" cy="127.048" r="13.1944" stroke="#CBEA69" stroke-width="5"/>
<circle cx="128.375" cy="134.896" r="13.1944" stroke="#CBEA69" stroke-width="5"/>
<circle cx="112.681" cy="152.16" r="13.1944" stroke="#CBEA69" stroke-width="5"/>
<circle cx="144.854" cy="155.299" r="35.3125" fill="white"/>
<circle cx="121.313" cy="178.056" r="13.1944" stroke="#CBEA69" stroke-width="5"/>
<circle cx="140.931" cy="170.993" r="13.1944" stroke="#CBEA69" stroke-width="5"/>
<circle cx="156.625" cy="158.438" r="13.1944" stroke="#CBEA69" stroke-width="5"/>
<circle cx="172.319" cy="144.313" r="13.1944" stroke="#CBEA69" stroke-width="5"/>
<circle cx="183.306" cy="130.188" r="13.1944" stroke="#CBEA69" stroke-width="5"/>
<circle cx="104.048" cy="166.285" r="13.1944" stroke="#CBEA69" stroke-width="5"/>
<circle cx="101.694" cy="181.979" r="13.1944" stroke="#CBEA69" stroke-width="5"/>
<circle cx="170.75" cy="124.694" r="13.1944" stroke="#CBEA69" stroke-width="5"/>
<circle cx="146.423" cy="127.048" r="13.1944" stroke="#CBEA69" stroke-width="5"/>
<circle cx="128.375" cy="134.896" r="13.1944" stroke="#CBEA69" stroke-width="5"/>
<circle cx="112.681" cy="152.16" r="13.1944" stroke="#CBEA69" stroke-width="5"/>
<circle cx="144.854" cy="155.299" r="35.3125" fill="white"/>
<circle cx="121.313" cy="178.056" r="13.1944" stroke="#CBEA69" stroke-width="5"/>
<circle cx="140.931" cy="170.993" r="13.1944" stroke="#CBEA69" stroke-width="5"/>
<circle cx="156.625" cy="158.438" r="13.1944" stroke="#CBEA69" stroke-width="5"/>
<circle cx="172.319" cy="144.313" r="13.1944" stroke="#CBEA69" stroke-width="5"/>
<circle cx="183.306" cy="130.188" r="13.1944" stroke="#CBEA69" stroke-width="5"/>
<circle cx="319" cy="305" r="20" fill="white"/>
</svg>
