<svg width="320" height="292" viewBox="0 0 320 292" fill="none" xmlns="http://www.w3.org/2000/svg">
<circle cx="276.884" cy="169.84" r="5.91194" transform="rotate(34.8785 276.884 169.84)" fill="white"/>
<circle cx="277.526" cy="173.441" r="3.41194" transform="rotate(34.8785 277.526 173.441)" stroke="#CBEA69" stroke-width="5"/>
<circle cx="261.728" cy="159.274" r="5.91194" transform="rotate(34.8785 261.728 159.274)" fill="white"/>
<circle cx="273.138" cy="142.906" r="5.91194" transform="rotate(34.8785 273.138 142.906)" fill="white"/>
<circle cx="288.293" cy="153.472" r="5.91194" transform="rotate(34.8785 288.293 153.472)" fill="white"/>
<circle cx="246.035" cy="39.618" r="5.76101" transform="rotate(57.2505 246.035 39.618)" stroke="#6F56E6" stroke-width="5"/>
<circle cx="238.417" cy="43.0452" r="5.76101" transform="rotate(57.2505 238.417 43.0452)" stroke="#6F56E6" stroke-width="5"/>
<circle cx="283.439" cy="57.3035" r="5.76101" transform="rotate(57.2505 283.439 57.3035)" stroke="#6F56E6" stroke-width="5"/>
<circle cx="275.469" cy="47.2034" r="5.76101" transform="rotate(57.2505 275.469 47.2034)" stroke="#6F56E6" stroke-width="5"/>
<circle cx="266.858" cy="41.4485" r="5.76101" transform="rotate(57.2505 266.858 41.4485)" stroke="#6F56E6" stroke-width="5"/>
<circle cx="254.746" cy="39.4168" r="5.76101" transform="rotate(57.2505 254.746 39.4168)" stroke="#6F56E6" stroke-width="5"/>
<circle cx="262.517" cy="54.5526" r="18.5873" transform="rotate(57.2505 262.517 54.5526)" fill="white"/>
<circle cx="245.74" cy="50.6126" r="5.76101" transform="rotate(57.2505 245.74 50.6126)" stroke="#6F56E6" stroke-width="5"/>
<circle cx="254.453" cy="57.2859" r="5.76101" transform="rotate(57.2505 254.453 57.2859)" stroke="#6F56E6" stroke-width="5"/>
<circle cx="264.478" cy="60.6595" r="5.76101" transform="rotate(57.2505 264.478 60.6595)" stroke="#6F56E6" stroke-width="5"/>
<circle cx="275.202" cy="63.5828" r="5.76101" transform="rotate(57.2505 275.202 63.5828)" stroke="#6F56E6" stroke-width="5"/>
<circle cx="284.584" cy="64.4266" r="5.76101" transform="rotate(57.2505 284.584 64.4266)" stroke="#6F56E6" stroke-width="5"/>
<circle cx="246.035" cy="39.618" r="5.76101" transform="rotate(57.2505 246.035 39.618)" stroke="#6F56E6" stroke-width="5"/>
<circle cx="238.417" cy="43.0452" r="5.76101" transform="rotate(57.2505 238.417 43.0452)" stroke="#6F56E6" stroke-width="5"/>
<circle cx="283.439" cy="57.3035" r="5.76101" transform="rotate(57.2505 283.439 57.3035)" stroke="#6F56E6" stroke-width="5"/>
<circle cx="275.469" cy="47.2034" r="5.76101" transform="rotate(57.2505 275.469 47.2034)" stroke="#6F56E6" stroke-width="5"/>
<circle cx="266.858" cy="41.4485" r="5.76101" transform="rotate(57.2505 266.858 41.4485)" stroke="#6F56E6" stroke-width="5"/>
<circle cx="254.746" cy="39.4168" r="5.76101" transform="rotate(57.2505 254.746 39.4168)" stroke="#6F56E6" stroke-width="5"/>
<circle cx="262.517" cy="54.5526" r="18.5873" transform="rotate(57.2505 262.517 54.5526)" fill="white"/>
<circle cx="245.74" cy="50.6126" r="5.76101" transform="rotate(57.2505 245.74 50.6126)" stroke="#6F56E6" stroke-width="5"/>
<circle cx="254.453" cy="57.2859" r="5.76101" transform="rotate(57.2505 254.453 57.2859)" stroke="#6F56E6" stroke-width="5"/>
<circle cx="264.478" cy="60.6595" r="5.76101" transform="rotate(57.2505 264.478 60.6595)" stroke="#6F56E6" stroke-width="5"/>
<circle cx="275.202" cy="63.5828" r="5.76101" transform="rotate(57.2505 275.202 63.5828)" stroke="#6F56E6" stroke-width="5"/>
<circle cx="284.584" cy="64.4266" r="5.76101" transform="rotate(57.2505 284.584 64.4266)" stroke="#6F56E6" stroke-width="5"/>
<circle cx="138.111" cy="50.1108" r="19.0641" transform="rotate(57.2505 138.111 50.1108)" stroke="#EA80B9" stroke-width="4"/>
<circle cx="138.141" cy="50.1417" r="14.9442" transform="rotate(57.2505 138.141 50.1417)" stroke="#67D3F9" stroke-width="4"/>
<circle cx="138.308" cy="50.3078" r="10.6922" transform="rotate(57.2505 138.308 50.3078)" stroke="#6F56E6" stroke-width="4"/>
<circle cx="138.375" cy="50.3749" r="6.82882" transform="rotate(57.2505 138.375 50.3749)" stroke="#CBEA69" stroke-width="4"/>
<circle cx="138.296" cy="50.2966" r="5.32031" transform="rotate(57.2505 138.296 50.2966)" fill="white"/>
<circle cx="28.4119" cy="51.4123" r="18.3879" transform="rotate(57.2505 28.4119 51.4123)" fill="white"/>
<circle cx="36.194" cy="41.7423" r="2.5" stroke="#FDE15A" stroke-width="2.5286"/>
<circle cx="10.8707" cy="51.3248" r="2.5" stroke="#A5E783" stroke-width="2.5286"/>
<circle cx="41.6698" cy="61.2465" r="2.5" stroke="#FD8CC8" stroke-width="4.58185"/>
<circle cx="75.9854" cy="121.347" r="4.44443" stroke="#CBEA69" stroke-width="5"/>
<circle cx="74.9444" cy="128.292" r="4.44443" stroke="#CBEA69" stroke-width="5"/>
<circle cx="105.499" cy="102.944" r="4.44443" stroke="#CBEA69" stroke-width="5"/>
<circle cx="94.7354" cy="103.985" r="4.44443" stroke="#CBEA69" stroke-width="5"/>
<circle cx="86.7501" cy="107.458" r="4.44443" stroke="#CBEA69" stroke-width="5"/>
<circle cx="79.8058" cy="115.097" r="4.44443" stroke="#CBEA69" stroke-width="5"/>
<circle cx="94.042" cy="116.485" r="15.625" fill="white"/>
<circle cx="83.6241" cy="126.556" r="4.44443" stroke="#CBEA69" stroke-width="5"/>
<circle cx="92.3058" cy="123.43" r="4.44443" stroke="#CBEA69" stroke-width="5"/>
<circle cx="99.2491" cy="117.875" r="4.44443" stroke="#CBEA69" stroke-width="5"/>
<circle cx="106.194" cy="111.625" r="4.44443" stroke="#CBEA69" stroke-width="5"/>
<circle cx="111.055" cy="105.376" r="4.44443" stroke="#CBEA69" stroke-width="5"/>
<circle cx="75.9854" cy="121.347" r="4.44443" stroke="#CBEA69" stroke-width="5"/>
<circle cx="74.9444" cy="128.292" r="4.44443" stroke="#CBEA69" stroke-width="5"/>
<circle cx="105.499" cy="102.944" r="4.44443" stroke="#CBEA69" stroke-width="5"/>
<circle cx="94.7354" cy="103.985" r="4.44443" stroke="#CBEA69" stroke-width="5"/>
<circle cx="86.7501" cy="107.458" r="4.44443" stroke="#CBEA69" stroke-width="5"/>
<circle cx="79.8058" cy="115.097" r="4.44443" stroke="#CBEA69" stroke-width="5"/>
<circle cx="94.042" cy="116.485" r="15.625" fill="white"/>
<circle cx="83.6241" cy="126.556" r="4.44443" stroke="#CBEA69" stroke-width="5"/>
<circle cx="92.3058" cy="123.43" r="4.44443" stroke="#CBEA69" stroke-width="5"/>
<circle cx="99.2491" cy="117.875" r="4.44443" stroke="#CBEA69" stroke-width="5"/>
<circle cx="106.194" cy="111.625" r="4.44443" stroke="#CBEA69" stroke-width="5"/>
<circle cx="111.055" cy="105.376" r="4.44443" stroke="#CBEA69" stroke-width="5"/>
<circle cx="184" cy="140" r="9" fill="white"/>
</svg>
