<svg width="768" height="758" viewBox="0 0 768 758" fill="none" xmlns="http://www.w3.org/2000/svg">
<circle cx="620.681" cy="356.387" r="13.4194" transform="rotate(57.2505 620.681 356.387)" stroke="#6F56E6" stroke-width="5"/>
<circle cx="606" cy="362.992" r="13.4194" transform="rotate(57.2505 606 362.992)" stroke="#6F56E6" stroke-width="5"/>
<circle cx="692.76" cy="390.471" r="13.4194" transform="rotate(57.2505 692.76 390.471)" stroke="#6F56E6" stroke-width="5"/>
<circle cx="677.404" cy="371.009" r="13.4194" transform="rotate(57.2505 677.404 371.009)" stroke="#6F56E6" stroke-width="5"/>
<circle cx="660.807" cy="359.916" r="13.4194" transform="rotate(57.2505 660.807 359.916)" stroke="#6F56E6" stroke-width="5"/>
<circle cx="637.467" cy="356.001" r="13.4194" transform="rotate(57.2505 637.467 356.001)" stroke="#6F56E6" stroke-width="5"/>
<circle cx="652.444" cy="385.17" r="35.8186" transform="rotate(57.2505 652.444 385.17)" fill="white"/>
<circle cx="620.111" cy="377.573" r="13.4194" transform="rotate(57.2505 620.111 377.573)" stroke="#6F56E6" stroke-width="5"/>
<circle cx="636.902" cy="390.434" r="13.4194" transform="rotate(57.2505 636.902 390.434)" stroke="#6F56E6" stroke-width="5"/>
<circle cx="656.224" cy="396.935" r="13.4194" transform="rotate(57.2505 656.224 396.935)" stroke="#6F56E6" stroke-width="5"/>
<circle cx="676.887" cy="402.571" r="13.4194" transform="rotate(57.2505 676.887 402.571)" stroke="#6F56E6" stroke-width="5"/>
<circle cx="694.965" cy="404.195" r="13.4194" transform="rotate(57.2505 694.965 404.195)" stroke="#6F56E6" stroke-width="5"/>
<circle cx="620.681" cy="356.387" r="13.4194" transform="rotate(57.2505 620.681 356.387)" stroke="#6F56E6" stroke-width="5"/>
<circle cx="606" cy="362.992" r="13.4194" transform="rotate(57.2505 606 362.992)" stroke="#6F56E6" stroke-width="5"/>
<circle cx="692.76" cy="390.471" r="13.4194" transform="rotate(57.2505 692.76 390.471)" stroke="#6F56E6" stroke-width="5"/>
<circle cx="677.404" cy="371.009" r="13.4194" transform="rotate(57.2505 677.404 371.009)" stroke="#6F56E6" stroke-width="5"/>
<circle cx="660.807" cy="359.916" r="13.4194" transform="rotate(57.2505 660.807 359.916)" stroke="#6F56E6" stroke-width="5"/>
<circle cx="637.467" cy="356.001" r="13.4194" transform="rotate(57.2505 637.467 356.001)" stroke="#6F56E6" stroke-width="5"/>
<circle cx="652.444" cy="385.17" r="35.8186" transform="rotate(57.2505 652.444 385.17)" fill="white"/>
<circle cx="620.111" cy="377.573" r="13.4194" transform="rotate(57.2505 620.111 377.573)" stroke="#6F56E6" stroke-width="5"/>
<circle cx="636.902" cy="390.434" r="13.4194" transform="rotate(57.2505 636.902 390.434)" stroke="#6F56E6" stroke-width="5"/>
<circle cx="656.224" cy="396.935" r="13.4194" transform="rotate(57.2505 656.224 396.935)" stroke="#6F56E6" stroke-width="5"/>
<circle cx="676.887" cy="402.571" r="13.4194" transform="rotate(57.2505 676.887 402.571)" stroke="#6F56E6" stroke-width="5"/>
<circle cx="694.965" cy="404.195" r="13.4194" transform="rotate(57.2505 694.965 404.195)" stroke="#6F56E6" stroke-width="5"/>
<circle cx="690.865" cy="222.133" r="8.76478" transform="rotate(34.8785 690.865 222.133)" fill="white"/>
<circle cx="691.817" cy="227.471" r="6.26478" transform="rotate(34.8785 691.817 227.471)" stroke="#CBEA69" stroke-width="5"/>
<circle cx="668.395" cy="206.47" r="8.76478" transform="rotate(34.8785 668.395 206.47)" fill="white"/>
<circle cx="685.311" cy="182.202" r="8.76478" transform="rotate(34.8785 685.311 182.202)" fill="white"/>
<circle cx="707.78" cy="197.865" r="8.76478" transform="rotate(34.8785 707.78 197.865)" fill="white"/>
<circle cx="321.412" cy="329.412" r="27.7945" transform="rotate(57.2505 321.412 329.412)" fill="white"/>
<circle cx="333.174" cy="314.794" r="3.18998" stroke="#FDE15A" stroke-width="5"/>
<circle cx="294.897" cy="329.279" r="3.18998" stroke="#A5E783" stroke-width="5"/>
<circle cx="341.452" cy="344.278" r="4.74179" stroke="#FD8CC8" stroke-width="5"/>
<circle cx="72.3317" cy="161.316" r="9.09346" stroke="#CBEA69" stroke-width="5"/>
<circle cx="70.5935" cy="172.91" r="9.09346" stroke="#CBEA69" stroke-width="5"/>
<circle cx="121.604" cy="130.593" r="9.09346" stroke="#CBEA69" stroke-width="5"/>
<circle cx="103.634" cy="132.333" r="9.09346" stroke="#CBEA69" stroke-width="5"/>
<circle cx="90.3015" cy="138.131" r="9.09346" stroke="#CBEA69" stroke-width="5"/>
<circle cx="78.7087" cy="150.882" r="9.09346" stroke="#CBEA69" stroke-width="5"/>
<circle cx="102.475" cy="153.2" r="26.0853" fill="white"/>
<circle cx="85.0847" cy="170.01" r="9.09346" stroke="#CBEA69" stroke-width="5"/>
<circle cx="99.5769" cy="164.793" r="9.09346" stroke="#CBEA69" stroke-width="5"/>
<circle cx="111.17" cy="155.519" r="9.09346" stroke="#CBEA69" stroke-width="5"/>
<circle cx="122.764" cy="145.085" r="9.09346" stroke="#CBEA69" stroke-width="5"/>
<circle cx="130.88" cy="134.651" r="9.09346" stroke="#CBEA69" stroke-width="5"/>
<circle cx="72.3317" cy="161.316" r="9.09346" stroke="#CBEA69" stroke-width="5"/>
<circle cx="70.5935" cy="172.91" r="9.09346" stroke="#CBEA69" stroke-width="5"/>
<circle cx="121.604" cy="130.593" r="9.09346" stroke="#CBEA69" stroke-width="5"/>
<circle cx="103.634" cy="132.333" r="9.09346" stroke="#CBEA69" stroke-width="5"/>
<circle cx="90.3015" cy="138.131" r="9.09346" stroke="#CBEA69" stroke-width="5"/>
<circle cx="78.7087" cy="150.882" r="9.09346" stroke="#CBEA69" stroke-width="5"/>
<circle cx="102.475" cy="153.2" r="26.0853" fill="white"/>
<circle cx="85.0847" cy="170.01" r="9.09346" stroke="#CBEA69" stroke-width="5"/>
<circle cx="99.5769" cy="164.793" r="9.09346" stroke="#CBEA69" stroke-width="5"/>
<circle cx="111.17" cy="155.519" r="9.09346" stroke="#CBEA69" stroke-width="5"/>
<circle cx="122.764" cy="145.085" r="9.09346" stroke="#CBEA69" stroke-width="5"/>
<circle cx="130.88" cy="134.651" r="9.09346" stroke="#CBEA69" stroke-width="5"/>
<ellipse cx="87" cy="347.5" rx="15" ry="14.5" fill="white"/>
<circle cx="321.5" cy="59.5" r="12.5" fill="white"/>
<circle cx="502.61" cy="80.6108" r="22.3202" transform="rotate(57.2505 502.61 80.6108)" stroke="#EA80B9" stroke-width="4"/>
<circle cx="502.646" cy="80.6477" r="17.5635" transform="rotate(57.2505 502.646 80.6477)" stroke="#67D3F9" stroke-width="4"/>
<circle cx="502.838" cy="80.8372" r="12.6542" transform="rotate(57.2505 502.838 80.8372)" stroke="#6F56E6" stroke-width="4"/>
<circle cx="502.916" cy="80.9143" r="8.19359" transform="rotate(57.2505 502.916 80.9143)" stroke="#CBEA69" stroke-width="4"/>
<circle cx="502.824" cy="80.8243" r="6.14274" transform="rotate(57.2505 502.824 80.8243)" fill="white"/>
</svg>
